<?xml version="1.0" encoding="utf-8"?>
<!-- Generator: Adobe Illustrator 15.0.2, SVG Export Plug-In . SVG Version: 6.00 Build 0)  -->
<!DOCTYPE svg PUBLIC "-//W3C//DTD SVG 1.1//EN" "http://www.w3.org/Graphics/SVG/1.1/DTD/svg11.dtd">
<svg version="1.1" id="Layer_1" xmlns="http://www.w3.org/2000/svg" xmlns:xlink="http://www.w3.org/1999/xlink" x="0px" y="0px"
	 width="600px" height="400px" viewBox="0 0 600 400" enable-background="new 0 0 600 400" xml:space="preserve">
<path fill="#53427F" d="M229.729,217.711c6.864,0,12.348-1.271,16.452-3.816c4.104-2.544,6.684-6.288,7.74-11.232
	c0.24-1.008,0.36-2.184,0.36-3.528c0-3.312-1.249-5.976-3.744-7.992c-2.496-2.016-6.457-3.528-11.88-4.536
	c-3.409-0.72-5.772-1.428-7.092-2.124c-1.32-0.695-1.98-1.62-1.98-2.772c0-0.335,0.024-0.6,0.072-0.792
	c0.335-1.392,1.14-2.448,2.412-3.168c1.271-0.72,2.939-1.08,5.004-1.08c1.68,0,3.035,0.349,4.068,1.044
	c1.032,0.696,1.595,1.548,1.692,2.556c0.384,0.864,1.104,1.296,2.16,1.296h10.224c0.432,0,0.792-0.155,1.08-0.468
	c0.288-0.312,0.479-0.684,0.576-1.116c0.096-0.576,0.144-0.983,0.144-1.224c0-2.016-0.804-4.02-2.412-6.012
	c-1.608-1.991-3.852-3.636-6.732-4.932s-6.145-1.944-9.792-1.944c-6.096,0-11.077,1.285-14.94,3.852
	c-3.864,2.568-6.276,6.108-7.236,10.62c-0.288,1.2-0.432,2.376-0.432,3.528c0,6.48,4.776,10.704,14.328,12.672
	c3.888,0.864,6.576,1.632,8.064,2.304c1.487,0.672,2.232,1.608,2.232,2.808c0,0.336-0.025,0.601-0.072,0.792
	c-0.336,1.393-1.308,2.484-2.916,3.276c-1.608,0.792-3.708,1.188-6.3,1.188c-2.064,0-3.684-0.372-4.86-1.116
	c-1.177-0.744-1.957-1.692-2.34-2.844c-0.336-0.479-0.66-0.816-0.972-1.008c-0.313-0.191-0.781-0.288-1.404-0.288h-9.648
	c-0.432,0-0.828,0.144-1.188,0.432c-0.36,0.288-0.564,0.648-0.612,1.08c-0.097,0.769-0.144,1.344-0.144,1.728
	c0,2.353,0.767,4.5,2.304,6.444c1.536,1.944,3.816,3.492,6.84,4.644C221.81,217.136,225.457,217.711,229.729,217.711
	L229.729,217.711z"/>
<path fill="#53427F" d="M256.009,216.992h34.56c0.479,0,0.936-0.168,1.368-0.504c0.432-0.335,0.695-0.767,0.792-1.296l1.512-7.128
	c0.095-0.528,0.011-0.972-0.252-1.332c-0.265-0.36-0.661-0.54-1.188-0.54h-23.328l1.944-9.36h21.24c0.527,0,1.008-0.18,1.44-0.54
	s0.695-0.803,0.792-1.332l1.368-6.552c0.095-0.528,0.011-0.972-0.252-1.332c-0.264-0.36-0.66-0.54-1.188-0.54h-21.24l2.016-9.144
	h22.752c0.527,0,1.008-0.168,1.44-0.504c0.432-0.335,0.695-0.768,0.792-1.296l1.512-7.128c0.096-0.527,0.011-0.972-0.252-1.332
	c-0.264-0.36-0.66-0.54-1.188-0.54h-33.984c-0.529,0-1.008,0.18-1.44,0.54c-0.432,0.36-0.696,0.805-0.792,1.332l-9.936,46.728
	c-0.097,0.529,0,0.961,0.288,1.296C255.073,216.824,255.48,216.992,256.009,216.992L256.009,216.992z"/>
<path fill="#53427F" d="M298.56,216.992h34.56c0.479,0,0.936-0.168,1.368-0.504c0.432-0.335,0.695-0.767,0.792-1.296l1.512-7.128
	c0.096-0.528,0.011-0.972-0.252-1.332c-0.265-0.36-0.661-0.54-1.188-0.54h-23.328l1.944-9.36h21.24c0.527,0,1.008-0.18,1.44-0.54
	s0.695-0.803,0.792-1.332l1.368-6.552c0.095-0.528,0.011-0.972-0.252-1.332c-0.264-0.36-0.66-0.54-1.188-0.54h-21.24l2.016-9.144
	h22.752c0.527,0,1.008-0.168,1.44-0.504c0.432-0.335,0.695-0.768,0.792-1.296l1.512-7.128c0.096-0.527,0.012-0.972-0.252-1.332
	c-0.264-0.36-0.66-0.54-1.188-0.54h-33.984c-0.529,0-1.008,0.18-1.44,0.54c-0.432,0.36-0.696,0.805-0.792,1.332l-9.936,46.728
	c-0.097,0.529,0,0.961,0.288,1.296C297.624,216.824,298.031,216.992,298.56,216.992L298.56,216.992z"/>
<path fill="#53427F" d="M341.111,216.992h20.448c7.344,0,12.971-1.572,16.884-4.716c3.912-3.143,6.732-8.147,8.46-15.012
	c0.864-3.456,1.631-7.128,2.304-11.016c0.24-1.44,0.36-2.664,0.36-3.672c0-3.359-0.889-6.239-2.664-8.64
	c-1.776-2.4-4.176-4.223-7.2-5.472c-3.024-1.248-6.433-1.872-10.224-1.872h-17.712c-0.528,0-1.008,0.18-1.44,0.54
	c-0.432,0.36-0.696,0.805-0.792,1.332l-9.936,46.728c-0.097,0.529,0,0.961,0.288,1.296
	C340.175,216.824,340.583,216.992,341.111,216.992L341.111,216.992z M355.007,206.191l6.192-28.8h6.84
	c2.592,0,4.524,0.529,5.796,1.584c1.271,1.056,1.908,2.664,1.908,4.824c0,0.769-0.072,1.632-0.216,2.592
	c-0.529,2.88-1.296,6.456-2.304,10.728c-0.768,3.168-2.041,5.472-3.816,6.912c-1.776,1.44-4.152,2.16-7.128,2.16H355.007z"/>
</svg>
