<?xml version="1.0" encoding="UTF-8"?>
<svg width="180px" height="180px" viewBox="0 0 180 180" version="1.1" xmlns="http://www.w3.org/2000/svg" xmlns:xlink="http://www.w3.org/1999/xlink">
    <g id="duckly-icon" stroke="none" stroke-width="1" fill="none" fill-rule="evenodd">
        <g id="Group" transform="translate(90.150075, 90.086192) scale(-1, 1) translate(-90.150075, -90.086192) translate(7.150075, 9.586192)" fill-rule="nonzero">
            <path d="M71.4710403,0 L70.7527043,0.00489563807 L69.9609416,0.0201035641 L69.3566669,0.0399910774 C51.0450821,0.739246988 34.3967375,10.1627573 24.3409274,25.0707215 L24.2013534,25.2789346 L24.1106885,25.3013296 C11.0299632,28.6104756 1.5503481,39.7861657 0.175545052,53.4012259 C-0.666170919,61.7369752 1.53950386,69.9597831 6.35205205,77.5906826 L7.4167359,79.2788725 L11.6793534,84.3859346 L11.5244163,84.8111156 C9.3656902,90.8444369 8.24628411,97.0564969 8.24628411,103.275877 C8.24628411,135.052035 33.9555059,160.827617 65.6893355,160.827617 L96.2505604,160.822865 C118.905191,160.822865 138.493007,149.01061 151.683329,128.197304 C160.177738,114.793785 165.699851,97.7002515 165.699851,84.2512259 L165.694924,83.5484549 L165.668571,82.7375279 L165.628597,82.0114795 C164.349594,62.6867453 146.262814,50.0159884 128.752004,52.4728613 L128.160353,52.5619346 L128.141767,52.2946504 C125.770497,23.0255519 101.311777,0 71.4710403,0 Z" id="3" fill="#2DAA5E"></path>
            <path d="M71.4710403,10 L70.8244367,10.0046384 L70.1638467,10.0180448 C53.4348079,10.4806569 38.5084987,19.8124132 30.5738282,34.0068338 L30.3823534,34.3529346 L29.7950832,34.3534485 L28.0091196,34.68097 C18.1717593,36.4850084 11.118085,44.5705913 10.1249502,54.4058834 C9.50527774,60.5426738 11.2250553,66.5712189 14.810426,72.2562745 L15.5202152,73.3817344 L21.8839687,81.0060159 L22.8237363,81.8768171 L23.2968765,82.310571 L23.4143534,82.4149346 L23.2091265,82.8273878 C19.9985048,89.3475459 18.2462841,96.2879749 18.2462841,103.275877 C18.2462841,129.528065 39.4772649,150.827617 65.6893355,150.827617 L96.2490053,150.822865 C115.615441,150.822865 131.989335,140.591787 143.236709,122.844303 C150.761246,110.971167 155.699851,95.6976622 155.699851,84.2512259 L155.696091,83.7431345 L155.678228,83.176882 C154.934834,66.2730704 135.607455,56.9456132 121.989625,65.3250073 L121.543353,65.6059346 L117.740353,63.1179346 L117.766541,62.9889734 C118.154501,60.9724686 118.33019,59.0937407 118.33019,56.9655257 C118.33019,31.037069 97.3606051,10 71.4710403,10 Z" id="2" fill="#243DCD"></path>
            <path d="M70.9006617,20.0043478 C55.3371428,20.2417516 41.997923,30.1784841 36.863022,44.2017699 L36.8083534,44.3509346 L30.7062109,44.3531225 L29.8129037,44.5169429 C24.3287539,45.5226616 20.615803,50.0484331 20.0743554,55.4105409 C19.6857656,59.2588542 20.8812635,63.1361275 23.2688,66.9218664 L23.6236946,67.4845963 L29.1506473,74.1063241 L29.6205311,74.5417247 L30.0526956,74.9377216 C32.0778829,76.7726133 34.2215419,78.423113 36.5087731,79.8438256 L36.6763534,79.9459346 L36.5178457,80.1587053 C31.4736334,86.9757451 28.2462841,95.0181782 28.2462841,103.275877 C28.2462841,124.006302 45.0012416,140.827617 65.6893355,140.827617 L96.2474501,140.822865 C112.561887,140.822865 125.671226,131.880162 134.79009,117.491303 C141.514807,106.88022 145.699851,93.4369506 145.699851,84.2512259 L145.69793,83.9348974 C145.502648,73.7532572 132.451253,68.2969545 125.109171,75.5124479 L122.495353,78.1789346 L107.895353,68.6279346 L107.563934,68.3863825 L107.13661,68.0634276 C107.069696,68.0117018 107.004919,67.961029 106.942258,67.9114134 L106.591504,67.6264422 C106.537217,67.5810731 106.485,67.53677 106.434833,67.4935373 L106.326353,67.3979346 L106.348116,67.2755773 L106.419553,66.9647852 L106.596309,66.2963672 L106.700072,65.9236728 L107.069582,64.633243 L107.321083,63.7307504 C107.360455,63.5858583 107.398567,63.4435605 107.435437,63.3036063 L107.641906,62.4899977 C108.12157,60.5162506 108.33019,58.9569385 108.33019,56.9655257 C108.33019,36.5588586 91.8366544,20 71.4710403,20 L70.9006617,20.0043478 Z" id="1" fill="#FF6083"></path>
            <path d="M71.4710403,30 C86.3049393,30 98.3301903,42.0728771 98.3301903,56.9655257 C98.3301903,60.5908109 96.4049149,63.9483444 96.3253934,67.2066323 C96.2458719,70.4649201 96.3253934,72.6665167 102.243365,76.8803661 C114.391674,84.8311203 120.484559,88.8139366 120.522019,88.828815 C123.388471,89.9673256 125.905789,88.6696606 128.398825,86.4428374 L132.03376,82.732515 C133.095161,81.5762472 135.711077,82.6368116 135.699851,84.2512259 C135.699851,96.5212435 123.900828,130.822865 96.2458719,130.822865 C76.174158,130.826033 65.9886459,130.827617 65.6893355,130.827617 C50.5329567,130.827617 38.2462841,118.492283 38.2462841,103.275877 C38.2462841,95.2638736 42.7882765,87.7697659 47.0907392,83.016237 C51.3932019,78.2627081 53.1883419,75.9727992 51.3882049,75.045553 C44.5435521,73.8473868 39.4688872,70.0342499 36.4173258,67.2066323 L31.7271739,61.5874582 C28.9275085,57.1482371 30.0212325,54.6455007 31.6166877,54.3529158 L44.7353482,54.3499346 C46.0393047,40.6782154 57.5115249,30 71.4710403,30 Z" id="0" fill="#FFEB3B"></path>
        </g>
    </g>
</svg>