<svg width="64" height="64" viewBox="0 0 64 64" fill="none" xmlns="http://www.w3.org/2000/svg">
<path d="M29.3147 43.5093C31.7662 43.5093 33.7974 41.4783 33.7974 39.027C33.7974 36.5757 31.7662 34.5447 29.3147 34.5447C26.8633 34.5447 24.832 36.5757 24.832 39.027C24.832 41.4783 26.7931 43.5093 29.3147 43.5093Z" fill="url(#paint0_linear_1404_10031)"/>
<path d="M57.5177 13.9646C59.9692 13.9646 62.0004 11.9336 62.0004 9.48232C62.0004 7.03106 59.9692 5 57.5177 5C55.0662 5 53.0352 7.03106 53.0352 9.48232C53.0352 11.9336 54.9963 13.9646 57.5177 13.9646Z" fill="url(#paint1_linear_1404_10031)"/>
<path d="M51.064 49.1032L49.8732 47.9127L43.3593 41.3993C41.8185 43.9907 39.6472 46.1618 37.0556 47.7026C34.3941 49.2433 31.3122 50.1538 28.0203 50.1538C24.6584 50.1538 21.5065 49.2433 18.8449 47.6325C16.2533 46.0917 14.0821 43.8506 12.6112 41.2593L6.02734 47.7026C7.77838 50.1538 9.87961 52.3249 12.3311 54.0759C16.7437 57.2275 22.1368 59.1185 28.0203 59.1185C33.8338 59.1185 39.1569 57.2974 43.5695 54.1458L44.7601 55.3365C46.5112 57.0874 49.3129 57.0874 51.064 55.3365C52.8149 53.6557 52.8149 50.7842 51.064 49.1032Z" fill="url(#paint2_linear_1404_10031)"/>
<path d="M11.1054 31.8936C11.1054 30.3529 11.3155 28.8821 11.6657 27.4115C12.086 25.8006 12.7163 24.2599 13.5568 22.859C15.0977 20.2678 17.2691 18.0967 19.8606 16.5559C22.5221 15.0151 25.6039 14.1046 28.8959 14.1046C32.1178 14.1046 35.1997 14.9451 37.7912 16.4859C40.3826 18.0266 42.624 20.1278 44.1649 22.719C45.0054 24.1898 45.7058 25.7305 46.126 27.4115C46.4763 28.8121 46.6863 30.3529 46.6863 31.8936C46.6863 33.4345 46.4763 34.9052 46.126 36.376H55.3014C55.5116 34.9052 55.6517 33.4345 55.6517 31.8936C55.6517 30.3529 55.5116 28.8821 55.3014 27.4115C54.601 23.2794 52.9902 19.4974 50.6087 16.2057C48.8576 13.7545 46.6863 11.6534 44.235 9.9025C39.8924 6.82093 34.5692 5 28.8258 5C23.0125 5 17.6893 6.82093 13.2767 9.97253C10.8252 11.7234 8.72397 13.8245 6.97293 16.2758C4.66156 19.4974 3.05062 23.2794 2.35021 27.3414C2.14008 28.8121 2 30.2829 2 31.8237C2 33.3644 2.14008 34.8352 2.35021 36.306H11.5256C11.2455 34.9052 11.1054 33.4345 11.1054 31.8936Z" fill="url(#paint3_linear_1404_10031)"/>
<defs>
<linearGradient id="paint0_linear_1404_10031" x1="3.22703" y1="38.7925" x2="61.5001" y2="39.3176" gradientUnits="userSpaceOnUse">
<stop stop-color="#FFE53B"/>
<stop offset="1" stop-color="#00FFFF"/>
</linearGradient>
<linearGradient id="paint1_linear_1404_10031" x1="17.1428" y1="9.11905" x2="75.416" y2="9.64409" gradientUnits="userSpaceOnUse">
<stop stop-color="#FFE53B"/>
<stop offset="1" stop-color="#00FFFF"/>
</linearGradient>
<linearGradient id="paint2_linear_1404_10031" x1="-5.38085" y1="49.8635" x2="52.8924" y2="50.3885" gradientUnits="userSpaceOnUse">
<stop stop-color="#FFE53B"/>
<stop offset="1" stop-color="#00FFFF"/>
</linearGradient>
<linearGradient id="paint3_linear_1404_10031" x1="2.06885" y1="20.711" x2="55.7347" y2="20.711" gradientUnits="userSpaceOnUse">
<stop stop-color="#00FFA9"/>
<stop offset="1" stop-color="#0D4DFF"/>
</linearGradient>
</defs>
</svg>
