<svg xmlns="http://www.w3.org/2000/svg" width="172" height="253" fill="none"><path fill="#EDF4FC" d="M6.416 210.5h28.039v14H6.416a2.961 2.961 0 0 1-2.961-2.961v-8.078a2.961 2.961 0 0 1 2.961-2.961Z"/><path fill="#F9D0B4" d="M48.244 74.176v24.748c0 20.468 16.747 37.215 37.215 37.215 20.468 0 37.215-16.747 37.215-37.215V74.681c-21.899 10.226-52.833 10.065-74.43-.505Z"/><path fill="#F9D0B4" d="M129.222 71.141a61.112 61.112 0 0 1-6.548 3.54v24.243c0 .84-.038 1.67-.094 2.496.81.13 1.635.217 2.482.217 8.581 0 15.537-6.957 15.537-15.538 0-7.139-4.819-13.137-11.377-14.958Zm-80.978 3.035a59.758 59.758 0 0 1-5.773-3.234c-6.951 1.547-12.152 7.74-12.152 15.157 0 8.58 6.956 15.538 15.538 15.538.847 0 1.672-.086 2.482-.217a37.487 37.487 0 0 1-.094-2.495l-.001-24.75Z"/><path fill="#EDF4FC" d="m116.648 151.265-8.134-7.427a1.873 1.873 0 0 0-2.619.092l-15.687 16.491a2.12 2.12 0 0 0-.022 2.899l.602.652a50.866 50.866 0 0 1 14.68 3.618l11.36-13.752c.637-.767.557-1.9-.18-2.573Zm-35.437 12.708.602-.652a2.12 2.12 0 0 0-.022-2.899l-15.687-16.491a1.872 1.872 0 0 0-2.619-.092l-8.134 7.427a1.872 1.872 0 0 0-.181 2.575l11.36 13.752a50.85 50.85 0 0 1 14.681-3.62Z"/><path fill="#F9D0B4" d="m81.813 163.321-.602.652a51.571 51.571 0 0 1 4.789-.231c1.616 0 3.211.083 4.789.231l-.602-.652a2.12 2.12 0 0 1 .022-2.899l14.884-15.648a12.845 12.845 0 0 1-1.948-6.802v-6.335a36.89 36.89 0 0 1-17.686 4.501 36.856 36.856 0 0 1-16.604-3.945v5.778c0 2.453-.699 4.8-1.948 6.802l14.884 15.648a2.12 2.12 0 0 1 .022 2.9Z"/><path fill="#EDF4FC" d="M165.584 210.5h-28.039v14h28.039a2.961 2.961 0 0 0 2.961-2.961v-8.078a2.961 2.961 0 0 0-2.961-2.961Z"/><path fill="#F9D0B4" d="M160.549 250.5a4.082 4.082 0 0 0 4.076-4.31l-1.258-21.69h-25.823v26h23.005Z"/><path fill="#F5C84C" d="M160.511 175.239a14.686 14.686 0 0 0-11.078-13.425l-28.902-7.274-3.296-1.625a1.85 1.85 0 0 1-.406.925l-11.36 13.752A50.986 50.986 0 0 0 86 163.743a50.986 50.986 0 0 0-19.469 3.849l-11.36-13.752a1.863 1.863 0 0 1-.406-.925l-3.296 1.625-28.902 7.274a14.685 14.685 0 0 0-11.078 13.425L9.444 210.5h25.011v40h103.09v-40h25.011l-2.045-35.261Z"/><path fill="#F9D0B4" d="M34.455 224.5H8.633l-1.258 21.69a4.083 4.083 0 0 0 4.076 4.31h23.004v-26Z"/><path fill="#818182" d="M86 163.743c-28.31 0-51.342 23.032-51.342 51.342 0 13.723 5.422 26.195 14.224 35.416h25.065c-14.735-5.029-25.366-19-25.366-35.416 0-20.633 16.786-37.418 37.419-37.418 20.633 0 37.419 16.786 37.419 37.418 0 16.416-10.631 30.386-25.366 35.416h25.065c8.801-9.22 14.224-21.693 14.224-35.416 0-28.31-23.032-51.342-51.342-51.342Z"/><path fill="#5B5D60" d="M101.664 218.275c0 1.473-.219 2.894-.601 4.246a73.304 73.304 0 0 0 22.324-8.673 37.166 37.166 0 0 0-3.384-14.354 59.516 59.516 0 0 1-21.536 9.336c1.997 2.63 3.197 5.897 3.197 9.445Zm-31.328 0c0-3.549 1.2-6.815 3.197-9.444a59.516 59.516 0 0 1-21.536-9.336 37.166 37.166 0 0 0-3.384 14.354 73.314 73.314 0 0 0 22.324 8.673 15.59 15.59 0 0 1-.601-4.247Zm8.702 14.011V250.5h13.923v-18.214a15.543 15.543 0 0 1-6.962 1.653c-2.503 0-4.86-.605-6.961-1.653Z"/><path fill="#818182" d="M86 202.612c-8.637 0-15.664 7.027-15.664 15.664S77.362 233.94 86 233.94s15.664-7.027 15.664-15.664S94.637 202.612 86 202.612Z"/><path fill="#FC657E" d="M86 163.743c-11.282 0-21.719 3.667-30.201 9.858 2.517 4.449 5.122 8.295 7.792 11.536a37.225 37.225 0 0 1 22.408-7.471 37.225 37.225 0 0 1 22.409 7.471c2.671-3.241 5.276-7.087 7.792-11.536-8.481-6.192-18.918-9.858-30.2-9.858Z"/><path fill="#5B5D60" d="M38.335 62.302v2.808c0 1.917.95 3.706 2.53 4.79 23.99 16.451 66.283 16.448 90.27 0a5.809 5.809 0 0 0 2.53-4.79v-2.808c-27.225-8.534-65.025-9.5-95.33 0Z"/><path fill="#FCDD86" d="M134.292 46.773c-8.193-3.772-17.197-6.56-26.61-8.26-6.758-1.222-13.626-1.724-20.493-1.73l-2.218-.003c-7.751-.007-15.504.623-23.102 2.158-8.299 1.677-16.435 4.264-24.157 7.831a3.645 3.645 0 0 0-2.035 4.132l2.659 11.4c30.305-9.499 68.105-8.534 95.33 0l2.659-11.397a3.642 3.642 0 0 0-2.033-4.13Z"/><path fill="#F5C84C" d="M147.007 36.353C141.364 26.479 119.853 2.5 86 2.5c-33.853 0-55.364 23.979-61.007 33.853-4.184 7.323 5.591 13.09 10.924 15.584l-.241-1.035a3.645 3.645 0 0 1 2.035-4.132c7.722-3.567 15.858-6.155 24.157-7.831 7.598-1.535 15.351-2.165 23.102-2.158l2.218.002c6.867.006 13.736.509 20.493 1.73 9.413 1.701 18.417 4.489 26.61 8.261a3.64 3.64 0 0 1 2.032 4.131l-.241 1.032c5.335-2.494 15.109-8.261 10.925-15.584Z"/><path fill="#000" d="M85.459 138.638c-21.899 0-39.715-17.816-39.715-39.715V74.938a2.5 2.5 0 1 1 5 0v23.985c0 19.142 15.573 34.715 34.715 34.715 19.142 0 34.715-15.573 34.715-34.715V75.417a2.5 2.5 0 1 1 5 0v23.506c0 21.899-17.817 39.715-39.715 39.715Zm52.086 113.402a2.5 2.5 0 0 1-2.5-2.5v-56.644a2.5 2.5 0 1 1 5 0v56.644a2.5 2.5 0 0 1-2.5 2.5Zm-103.09 0a2.5 2.5 0 0 1-2.5-2.5v-56.644a2.5 2.5 0 1 1 5 0v56.644a2.5 2.5 0 0 1-2.5 2.5Z"/><path fill="#000" d="M125.062 104.136c-.661 0-1.333-.043-2.055-.131a2.5 2.5 0 1 1 .607-4.963c.519.063.991.094 1.447.094 7.189 0 13.038-5.849 13.038-13.038a13.005 13.005 0 0 0-8.96-12.371 2.5 2.5 0 1 1 1.564-4.749 17.995 17.995 0 0 1 12.396 17.12c.001 9.946-8.091 18.038-18.037 18.038Zm-79.206 0c-9.946 0-18.038-8.092-18.038-18.038 0-7.92 5.303-15.027 12.896-17.283a2.498 2.498 0 0 1 3.108 1.685 2.5 2.5 0 0 1-1.685 3.108c-5.488 1.63-9.32 6.766-9.32 12.49 0 7.189 5.849 13.038 13.038 13.038a11.4 11.4 0 0 0 1.216-.068 2.5 2.5 0 0 1 .525 4.973c-.608.063-1.177.095-1.74.095ZM86 115.573c-4.776 0-9.262-1.95-11.999-5.215a2.5 2.5 0 0 1 3.832-3.212c1.798 2.146 4.852 3.427 8.167 3.427 3.315 0 6.368-1.281 8.167-3.427a2.501 2.501 0 0 1 3.832 3.213c-2.738 3.265-7.224 5.214-11.999 5.214Zm16.789-22.757a5 5 0 1 0 0-10 5 5 0 0 0 0 10Zm-33.578 0a5 5 0 1 0 0-10 5 5 0 0 0 0 10Z"/><path fill="#000" d="M86 84.714c-17.077.001-34.149-4.25-46.549-12.753a8.31 8.31 0 0 1-3.616-6.852v-2.546a2.5 2.5 0 1 1 5 0v2.546a3.31 3.31 0 0 0 1.444 2.728c23.291 15.972 64.151 15.972 87.442 0a3.31 3.31 0 0 0 1.444-2.728v-2.655a2.5 2.5 0 1 1 5 0v2.655a8.31 8.31 0 0 1-3.616 6.852C120.151 80.462 103.073 84.713 86 84.714Z"/><path fill="#000" d="M38.335 64.802A2.499 2.499 0 0 1 35.9 62.87l-2.659-11.4c-.658-2.819.782-5.75 3.421-6.969 7.712-3.562 16.026-6.258 24.71-8.013 7.291-1.472 15.267-2.196 23.6-2.207l2.218.002c7.536.007 14.384.586 20.936 1.77 9.675 1.748 18.83 4.591 27.212 8.45 2.64 1.216 4.079 4.147 3.421 6.969L136.1 62.87a2.503 2.503 0 0 1-3.182 1.818c-28.5-8.934-65.332-8.933-93.834 0a2.535 2.535 0 0 1-.749.114ZM86 53.002c15.877 0 31.756 2.046 45.836 6.136l2.054-8.802a1.146 1.146 0 0 0-.644-1.292c-7.998-3.683-16.749-6.398-26.009-8.072-6.257-1.13-12.815-1.683-20.051-1.69l-2.218-.002h-.128c-7.99 0-15.551.709-22.477 2.108-8.304 1.678-16.245 4.251-23.604 7.65a1.15 1.15 0 0 0-.649 1.294l2.054 8.804c14.081-4.088 29.96-6.134 45.836-6.134Z"/><path fill="#000" d="M35.582 54.28c-.361 0-.727-.078-1.074-.244-4.847-2.312-10.968-6.166-12.606-11.401-.782-2.499-.463-5.099.921-7.521C28.404 25.347 50.632 0 86 0c35.367 0 57.597 25.347 63.178 35.113 1.384 2.422 1.702 5.023.92 7.521-1.638 5.234-7.757 9.088-12.602 11.399a2.502 2.502 0 0 1-3.333-1.18 2.501 2.501 0 0 1 1.181-3.333c5.498-2.624 9.137-5.678 9.982-8.38.371-1.186.216-2.313-.49-3.547C139.655 28.528 118.986 5 86 5 53.013 5 32.345 28.528 27.164 37.594c-.706 1.235-.861 2.362-.49 3.548.846 2.703 4.486 5.757 9.986 8.381a2.5 2.5 0 0 1-1.078 4.757Zm70.422 115.163a2.501 2.501 0 0 1-1.927-4.093l10.444-12.643-7.238-6.609-15.019 15.789a2.501 2.501 0 0 1-3.719 3.342l-.194-.21a4.633 4.633 0 0 1 .044-6.319l15.688-16.493c1.629-1.712 4.37-1.807 6.116-.216l8.134 7.427a4.369 4.369 0 0 1 .422 6.014l-10.823 13.103a2.496 2.496 0 0 1-1.928.908Zm-39.953.067c-.72 0-1.435-.31-1.929-.908l-10.879-13.17a4.368 4.368 0 0 1 .422-6.013l8.134-7.427c1.744-1.593 4.489-1.496 6.116.216l15.687 16.491a4.63 4.63 0 0 1 .048 6.317l-.299.324a2.5 2.5 0 1 1-3.67-3.396l.053-.057-15.018-15.788-7.238 6.609 10.499 12.709a2.501 2.501 0 0 1-1.926 4.093Z"/><path fill="#000" d="M104.705 146.605a2.5 2.5 0 0 1-2.199-1.307 15.391 15.391 0 0 1-1.861-7.326v-5.702a2.5 2.5 0 1 1 5 0v5.702c0 1.719.435 3.428 1.256 4.939a2.501 2.501 0 0 1-2.196 3.694Zm-37.449.07a2.5 2.5 0 0 1-2.187-3.707 10.377 10.377 0 0 0 1.286-4.996v-4.784a2.5 2.5 0 1 1 5 0v4.784c0 2.584-.659 5.146-1.907 7.41a2.499 2.499 0 0 1-2.192 1.293ZM86 204.756a2.5 2.5 0 0 1-2.5-2.5v-23.901a2.5 2.5 0 1 1 5 0v23.901a2.5 2.5 0 0 1-2.5 2.5ZM165.584 227h-28.039a2.5 2.5 0 0 1-2.5-2.5v-14a2.5 2.5 0 0 1 2.5-2.5h28.039a5.467 5.467 0 0 1 5.461 5.461v8.078a5.467 5.467 0 0 1-5.461 5.461Zm-25.539-5h25.539a.462.462 0 0 0 .461-.461v-8.078a.462.462 0 0 0-.461-.461h-25.539v9Zm-105.59 5H6.416a5.467 5.467 0 0 1-5.461-5.461v-8.078A5.467 5.467 0 0 1 6.416 208h28.039a2.5 2.5 0 0 1 2.5 2.5v14a2.5 2.5 0 0 1-2.5 2.5ZM6.416 213a.462.462 0 0 0-.461.461v8.078c0 .254.207.461.461.461h25.539v-9H6.416Z"/><path fill="#000" d="M160.549 253h-23.004a2.5 2.5 0 1 1 0-5h23.004a1.57 1.57 0 0 0 1.15-.495c.302-.319.454-.736.43-1.175l-1.214-20.941a2.5 2.5 0 0 1 2.352-2.64c1.356-.085 2.561.972 2.641 2.351l1.214 20.946a6.613 6.613 0 0 1-1.789 4.894 6.614 6.614 0 0 1-4.784 2.06Zm1.936-41.175a2.5 2.5 0 0 1-2.494-2.355l-1.977-34.086a12.133 12.133 0 0 0-9.192-11.145l-28.902-7.274a2.49 2.49 0 0 1-.495-.182l-2.857-1.409a2.5 2.5 0 0 1 2.211-4.484l2.619 1.292 28.646 7.209a17.11 17.11 0 0 1 12.964 15.71l1.977 34.081a2.5 2.5 0 0 1-2.352 2.64l-.148.003Z"/><path fill="#000" d="M137.545 253H34.455a2.5 2.5 0 1 1 0-5h103.09a2.5 2.5 0 1 1 0 5ZM9.476 212.501a2.5 2.5 0 0 1-2.498-2.644l2.016-34.762c.42-7.545 5.63-13.859 12.964-15.705l28.644-7.209 2.498-1.232a2.5 2.5 0 1 1 2.211 4.485l-2.736 1.349a2.49 2.49 0 0 1-.495.182l-28.901 7.274a12.133 12.133 0 0 0-9.193 11.14l-2.017 34.768a2.5 2.5 0 0 1-2.493 2.354Z"/><path fill="#000" d="M34.455 253H11.451a6.606 6.606 0 0 1-4.783-2.06 6.608 6.608 0 0 1-1.79-4.889l1.217-20.986a2.5 2.5 0 0 1 4.991.289l-1.217 20.981c-.024.433.129.851.431 1.17a1.57 1.57 0 0 0 1.15.495h23.004a2.5 2.5 0 0 1 .001 5Zm63.953-.123a2.5 2.5 0 0 1-.831-4.858c13.961-4.924 23.342-18.159 23.342-32.935 0-19.254-15.665-34.918-34.919-34.918-19.254 0-34.918 15.665-34.918 34.918 0 14.675 9.296 27.88 23.131 32.86a2.5 2.5 0 0 1-1.693 4.705c-15.813-5.691-26.438-20.788-26.438-37.564 0-22.011 17.907-39.918 39.918-39.918 22.012 0 39.919 17.907 39.919 39.918 0 16.892-10.722 32.022-26.68 37.65a2.487 2.487 0 0 1-.831.142Z"/><path fill="#000" d="M48.38 252.466c-.671 0-1.34-.269-1.833-.799-9.279-9.999-14.389-22.991-14.389-36.583 0-29.688 24.153-53.842 53.842-53.842s53.842 24.153 53.842 53.842c0 13.561-5.09 26.531-14.332 36.521a2.5 2.5 0 0 1-3.67-3.396c8.385-9.063 13.002-20.828 13.002-33.125 0-26.932-21.91-48.842-48.842-48.842s-48.842 21.91-48.842 48.842c0 12.326 4.636 24.11 13.054 33.181a2.5 2.5 0 0 1-1.832 4.201Z"/><path fill="#000" d="M99.021 211.21a2.5 2.5 0 0 1-.544-4.94 56.814 56.814 0 0 0 19.42-8.362 2.501 2.501 0 0 1 2.793 4.147 61.812 61.812 0 0 1-21.121 9.094 2.522 2.522 0 0 1-.548.061Zm2.641 13.684a2.5 2.5 0 0 1-.53-4.943 70.774 70.774 0 0 0 20.587-8.022 2.5 2.5 0 0 1 2.518 4.32 75.731 75.731 0 0 1-22.04 8.586c-.179.04-.359.059-.535.059Zm-28.691-13.686c-.181 0-.365-.02-.548-.061a61.772 61.772 0 0 1-21.373-9.269 2.5 2.5 0 1 1 2.815-4.133 56.805 56.805 0 0 0 19.65 8.523 2.5 2.5 0 0 1-.544 4.94Zm-2.633 13.686c-.176 0-.355-.019-.535-.058a75.714 75.714 0 0 1-21.987-8.557 2.5 2.5 0 1 1 2.515-4.321 70.77 70.77 0 0 0 20.538 7.993 2.5 2.5 0 0 1-.531 4.943ZM92.962 252.5a2.5 2.5 0 0 1-2.5-2.5v-17.094a2.5 2.5 0 1 1 5 0V250a2.5 2.5 0 0 1-2.5 2.5Zm-13.923 0a2.5 2.5 0 0 1-2.5-2.5v-17.063a2.5 2.5 0 1 1 5 0V250a2.5 2.5 0 0 1-2.5 2.5Z"/><path fill="#000" d="M86 236.439c-10.016 0-18.164-8.148-18.164-18.164 0-10.016 8.148-18.164 18.164-18.164 10.016 0 18.164 8.148 18.164 18.164 0 10.016-8.148 18.164-18.164 18.164Zm0-31.327c-7.258 0-13.164 5.905-13.164 13.164 0 7.259 5.905 13.164 13.164 13.164 7.259 0 13.164-5.905 13.164-13.164 0-7.259-5.905-13.164-13.164-13.164Z"/><path fill="#000" d="M89.48 221.355h-6.961a2.5 2.5 0 1 1 0-5h6.961a2.5 2.5 0 1 1 0 5Zm19.397-34.296a2.5 2.5 0 0 1-1.946-4.067c2.308-2.869 4.581-6.244 6.757-10.03a2.502 2.502 0 0 1 3.414-.922 2.502 2.502 0 0 1 .922 3.413c-2.306 4.012-4.728 7.602-7.196 10.673a2.5 2.5 0 0 1-1.951.933Zm-45.88-.157a2.498 2.498 0 0 1-1.955-.939c-2.378-2.977-4.708-6.432-6.927-10.271a2.5 2.5 0 1 1 4.33-2.502c2.094 3.623 4.282 6.87 6.504 9.651a2.5 2.5 0 0 1-1.952 4.061Z"/></svg>