<?xml version="1.0" encoding="UTF-8"?>
<svg width="150px" height="150px" viewBox="0 0 150 150" version="1.1" xmlns="http://www.w3.org/2000/svg" xmlns:xlink="http://www.w3.org/1999/xlink">
    <title>Artboard</title>
    <g id="Artboard" stroke="none" stroke-width="1" fill="none" fill-rule="evenodd">
        <g id="Logo/Master" transform="translate(23.000000, 0.000000)" fill="#0861CE">
            <path d="M10.754391,111.413079 L10.8771706,111.786565 C11.035992,112.271194 11.2086755,112.764856 11.3888843,113.25302 C11.6296907,113.903774 11.8899042,114.556099 12.1616036,115.192322 C12.4305305,115.821868 12.721637,116.460055 13.0273978,117.088816 C13.3323665,117.714435 13.6535737,118.334949 13.9819101,118.93347 C14.3118308,119.53474 14.6619507,120.137973 15.0227642,120.727068 C15.3827857,121.313807 15.7610261,121.89819 16.1467916,122.463329 C16.5353297,123.033573 16.9408984,123.598712 17.352012,124.142643 C17.7615414,124.685789 18.1936463,125.230506 18.6360489,125.76187 C19.0713224,126.285379 19.5291715,126.809281 19.9953379,127.317867 C20.4555633,127.820169 20.9371762,128.321292 21.4271064,128.806707 C21.9138681,129.289765 22.4192447,129.767325 22.928582,130.226034 C23.4379193,130.685528 23.9654755,131.138739 24.4965963,131.573491 C25.0285092,132.009422 25.5778488,132.437891 26.1295649,132.847115 C26.6800927,133.255555 27.2500277,133.657318 27.8231312,134.042193 C28.3974228,134.426676 28.9871609,134.802126 29.5753148,135.156762 C30.1678254,135.514539 30.7757824,135.86132 31.3821552,136.188071 C31.9960532,136.519536 32.621833,136.837647 33.2428602,137.134158 C33.8690361,137.434204 34.5122427,137.723254 35.1550533,137.993059 C35.79826,138.26365 36.4569131,138.521281 37.1127938,138.760061 C37.771843,139.00002 38.4459426,139.226625 39.1168736,139.433986 C39.7921614,139.642526 40.4797271,139.836142 41.1609559,140.010514 C41.8461452,140.186065 42.5479692,140.346691 43.2470208,140.489253 C43.943696,140.631028 44.658194,140.75788 45.3695236,140.865881 C46.0832295,140.974274 46.8088173,141.066173 47.5260877,141.138436 C48.2524677,141.211876 48.9895413,141.267644 49.7167134,141.30456 C51.1920488,141.378394 52.6867914,141.378001 54.1589583,141.304168 C54.8849422,141.267644 55.6216198,141.211876 56.3487918,141.138436 C57.0648741,141.066173 57.7900659,140.974667 58.505356,140.865881 C59.2174777,140.757487 59.9315796,140.630635 60.6282548,140.489253 C61.3269103,140.346691 62.0283383,140.186065 62.7135276,140.010514 C63.3951524,139.836535 64.0831142,139.642133 64.7599862,139.433594 C65.4305213,139.225839 66.1038287,138.999234 66.7616897,138.760061 C67.415194,138.52246 68.0742432,138.264043 68.7210144,137.993059 C69.3646171,137.722468 70.0070317,137.433812 70.6304352,137.134944 C71.2522544,136.837647 71.8788264,136.519143 72.4915362,136.188464 C73.0987011,135.86132 73.7066581,135.514539 74.2995648,135.156762 C74.8877186,134.802126 75.4774567,134.426676 76.0529366,134.041408 C76.6236637,133.658496 77.1935986,133.25634 77.747295,132.845937 C78.298615,132.436712 78.8467665,132.008636 79.3778872,131.573884 C79.9094041,131.138739 80.4373563,130.685136 80.9466936,130.226034 C81.0674929,130.117248 81.3106757,129.893784 81.3106757,129.893784 L81.3106757,129.893784 L81.600594,129.627513 L87.5356012,135.95479 L86.8108055,136.616933 C86.1957194,137.171075 85.5612261,137.715792 84.9255446,138.236552 C84.2874868,138.758883 83.6288337,139.272574 82.9674081,139.763487 C82.3008337,140.257542 81.6164365,140.7406 80.9328314,141.198916 C80.2484342,141.657625 79.5402732,142.108479 78.8277554,142.538126 C78.1148417,142.968558 77.3833129,143.385638 76.6541605,143.778761 C75.9190672,144.175418 75.165755,144.55833 74.4164034,144.916893 C73.6638833,145.277027 72.89156,145.6242 72.1200289,145.948202 C71.3405765,146.275347 70.547658,146.585996 69.7626607,146.871511 C68.9756831,147.157811 68.1653377,147.430366 67.352616,147.681714 C66.5391022,147.933061 65.7101419,148.166735 64.8891029,148.376846 C64.0609347,148.58892 63.216924,148.782536 62.3800424,148.952589 C61.5364278,149.124212 60.6769706,149.276591 59.8258308,149.406192 C58.9699382,149.536578 58.0970148,149.646543 57.2312207,149.734122 C56.3594855,149.822093 55.4746803,149.888857 54.6009649,149.932843 C53.7141793,149.977614 52.8182844,150 51.9374398,150 C51.0561991,150 50.1607002,149.977614 49.2747068,149.932843 C48.4009914,149.888857 47.5157901,149.822093 46.6436589,149.734122 C45.7778647,149.646543 44.9049414,149.536578 44.0490488,149.406192 C43.1971168,149.276591 42.3380557,149.124212 41.4952332,148.952589 C40.6575595,148.782536 39.8135488,148.588528 38.9853807,148.376846 C38.1643416,148.166735 37.3361734,147.933454 36.5238478,147.682106 C35.7119182,147.430759 34.9003847,147.158204 34.1118228,146.871511 C33.3244492,146.584818 32.5319267,146.274169 31.7564349,145.948595 C30.9856959,145.624985 30.2113923,145.277419 29.4568919,144.916107 C28.7087285,144.55833 27.9558123,144.175418 27.2199269,143.778368 C26.4911706,143.385638 25.7600379,142.968558 25.0467281,142.538519 C24.338171,142.110836 23.630406,141.660374 22.9428403,141.199701 C22.2568588,140.739422 21.5728576,140.256756 20.9098478,139.765058 C20.2480262,139.273753 19.5881849,138.759669 18.9489389,138.236159 C18.3096928,137.71265 17.6763878,137.168719 17.0668465,136.619289 C16.4533446,136.065932 15.8473679,135.492939 15.2651549,134.916018 C14.6754168,134.33085 14.0975606,133.72958 13.5474288,133.129096 C12.9905639,132.521935 12.4420164,131.893959 11.9164405,131.262842 C11.3876961,130.627797 10.8692494,129.973901 10.3753585,129.319613 C9.88384408,128.668466 9.39747846,127.990221 8.92893568,127.303336 C8.46237322,126.619985 8.00808871,125.917391 7.577568,125.215189 C7.14150241,124.50474 6.72127934,123.780546 6.32759251,123.06185 C5.93113323,122.339619 5.5449716,121.593039 5.18019739,120.844102 C4.81661136,120.097522 4.46649148,119.33052 4.1389472,118.56391 C3.81338324,117.802799 3.50049331,117.016946 3.20899078,116.229522 C2.9935324,115.647103 2.78599527,115.053295 2.59232036,114.464593 L2.59232036,114.464593 L2.46954077,114.091106 L10.754391,111.413079 Z M88.0844145,54.8913915 L88.0844145,98.4933748 C88.0844145,99.7095166 88.0217623,100.936264 87.8976476,102.139443 C87.7759121,103.327696 87.5915244,104.521054 87.3496394,105.686524 C87.1113233,106.83903 86.8111481,107.992322 86.458234,109.113797 C86.1088887,110.22388 85.6992704,111.329249 85.2416717,112.399658 C84.7880383,113.461032 84.2757181,114.512586 83.7197793,115.524859 C83.1689954,116.529276 82.5599212,117.52073 81.9104006,118.471725 C81.266035,119.416042 80.5673445,120.341504 79.8333625,121.222185 C79.1017597,122.099724 78.3186076,122.953302 77.5049226,123.759349 C76.6928236,124.563825 75.8315546,125.339627 74.9441145,126.065148 C74.0570709,126.791062 73.1232364,127.483194 72.1679892,128.123083 C71.2099662,128.764936 70.2087212,129.368293 69.192408,129.915871 C68.1705432,130.466591 67.1094218,130.974103 66.0371974,131.423871 C64.9562493,131.877567 63.8400098,132.282948 62.7213911,132.628228 C61.5873077,132.978615 60.4234842,133.27558 59.2616435,133.511267 C58.0871137,133.750488 56.8824474,133.933145 55.6813499,134.054524 C54.4667703,134.177081 53.2280022,134.239145 51.9999405,134.239145 C50.7722753,134.239145 49.5339037,134.177081 48.3193241,134.054524 C47.1174336,133.933145 45.9119742,133.750488 44.7374444,133.511267 C43.5767933,133.27558 42.4129698,132.978615 41.2792829,132.628621 C40.1594746,132.282948 39.0432351,131.877174 37.962287,131.423478 C36.8904592,130.974103 35.8289412,130.466591 34.8066799,129.915478 C33.7911597,129.368293 32.7911043,128.765721 31.8330814,128.124261 C30.876248,127.482802 29.942017,126.790276 29.056163,126.065541 C28.1687228,125.340019 27.3070573,124.563825 26.4945619,123.758956 C25.6812733,122.952909 24.8981213,122.099724 24.1673116,121.222578 C23.432933,120.342289 22.7338459,119.416042 22.0886872,118.470547 C21.4399598,117.520338 20.8308856,116.528883 20.2793086,115.523681 C19.7237663,114.511801 19.2118426,113.460639 18.7582092,112.399658 C18.3006105,111.329249 17.8905957,110.223487 17.541647,109.113404 C17.1891294,107.993108 16.8889542,106.840601 16.6502415,105.687702 C16.4083566,104.520662 16.2239689,103.32691 16.1022333,102.139443 C15.9781186,100.936264 15.9154665,99.7095166 15.9154665,98.4933748 L15.9154665,98.4933748 L15.9154665,82.3881377 L24.6391854,82.3881377 L24.6391854,98.4933748 C24.6391854,99.416087 24.6867694,100.348227 24.7807476,101.264261 C24.8731397,102.161441 25.0127192,103.065691 25.1955208,103.951086 C25.3771328,104.825483 25.604346,105.697129 25.8700229,106.542065 C26.1329241,107.377966 26.4426161,108.21426 26.7903752,109.027771 C27.1337725,109.830283 27.5215815,110.626903 27.9434923,111.395241 C28.3614377,112.156901 28.8230018,112.90874 29.3154954,113.630726 C29.8060063,114.34957 30.3373601,115.052308 30.8936954,115.720086 C31.4496343,116.386686 32.0448298,117.035216 32.6634208,117.648394 C33.279236,118.258429 33.9339115,118.848038 34.6103963,119.401508 C35.2848983,119.953407 35.9946918,120.47938 36.7195536,120.965287 C37.4467945,121.452372 38.2061546,121.909604 38.975428,122.324019 C39.7506494,122.74197 40.5548177,123.126138 41.364934,123.466313 C42.1825843,123.809629 43.027199,124.116414 43.8753824,124.378026 C44.7314964,124.642388 45.611799,124.867075 46.4913085,125.046197 C47.3795417,125.22689 48.2915668,125.365159 49.203592,125.45747 C51.060158,125.644055 52.9421021,125.644448 54.797082,125.457077 C55.7079176,125.365159 56.6195462,125.22689 57.5077794,125.046197 C58.388082,124.867075 59.2691776,124.642388 60.1248951,124.378026 C60.9722855,124.116414 61.8169001,123.809629 62.6341539,123.466313 C63.4442702,123.126531 64.2484385,122.742362 65.0240564,122.324412 C65.7945194,121.909211 66.554276,121.451587 67.2819135,120.964501 C68.0051891,120.479773 68.7141895,119.9538 69.3898812,119.401508 C70.066366,118.848038 70.7210414,118.258036 71.3360636,117.648787 C71.9546546,117.035609 72.5502467,116.386686 73.1061855,115.719693 C73.6629174,115.051915 74.1938747,114.34957 74.6835925,113.631512 C75.1768792,112.909133 75.6384432,112.157294 76.0555956,111.396419 C76.4779029,110.627689 76.8661084,109.830676 77.2095057,109.027771 C77.5572649,108.21426 77.8665604,107.378359 78.1298581,106.542458 C78.3959315,105.696344 78.6231447,104.823911 78.8043602,103.949515 C78.9871617,103.066084 79.1267412,102.162226 79.2191333,101.264261 C79.3131116,100.348227 79.3606955,99.416087 79.3606955,98.4933748 L79.3606955,98.4933748 L79.3606955,54.8913915 L88.0844145,54.8913915 Z M104,78.5326741 L104,98.5519786 C104,99.4289026 103.976994,100.316818 103.932568,101.190994 C103.887349,102.064778 103.819521,102.942879 103.731066,103.800569 C103.643405,104.657081 103.531547,105.521052 103.400253,106.369321 C103.269356,107.215234 103.115453,108.067429 102.942114,108.901174 C102.768774,109.736882 102.572825,110.573767 102.360613,111.389063 C102.146418,112.21064 101.91001,113.032216 101.658132,113.830241 C101.405858,114.63219 101.130577,115.43571 100.840224,116.218426 C100.54749,117.008207 100.233337,117.794456 99.9072845,118.555582 C99.5792485,119.321418 99.2289996,120.087255 98.8652644,120.832287 C98.5007359,121.580459 98.1139945,122.326276 97.71575,123.049719 C97.3222654,123.766489 96.9014115,124.490717 96.4638979,125.202383 C96.0343175,125.901489 95.5793509,126.603735 95.1105014,127.289494 C94.6400652,127.977608 94.1525727,128.655517 93.6611137,129.305556 L93.6611137,129.305556 L93.423119,129.619584 L86.4379746,124.444005 L86.675176,124.129977 C87.0857169,123.5871 87.4918945,123.022634 87.8818091,122.451888 C88.2697405,121.884282 88.6485487,121.300582 89.007524,120.716096 C89.3684827,120.128078 89.7195248,119.524751 90.0507341,118.922995 C90.3799601,118.323593 90.7016496,117.702995 91.0062828,117.078471 C91.3089328,116.458265 91.6000796,115.821573 91.8725835,115.185665 C92.1446908,114.549366 92.4060883,113.895794 92.6484462,113.242615 C92.8892176,112.593362 93.1176925,111.926052 93.3275245,111.259526 C93.5349765,110.601245 93.7313221,109.919018 93.9110081,109.231689 C94.0891075,108.548285 94.2513405,107.853104 94.3937407,107.165382 C94.5373308,106.47452 94.6654513,105.766386 94.7749289,105.060608 C94.8848031,104.349334 94.9772244,103.630209 95.0498127,102.924038 C95.1231944,102.209231 95.1799165,101.478722 95.2168057,100.751747 C95.2544882,100.026341 95.2735278,99.2864123 95.2735278,98.5519786 L95.2735278,98.5519786 L95.2735278,78.5326741 L104,78.5326741 Z M32.8545242,45.1087917 L41.1641062,47.66579 L41.0466521,48.0402622 C40.93513,48.396697 40.8402176,48.7633268 40.7638922,49.1303488 C40.6875668,49.5008999 40.6290375,49.8804696 40.5902816,50.2584709 C40.5507348,50.645883 40.5313568,51.0391768 40.5313568,51.4258047 L40.5313568,51.4258047 L40.5313568,98.4802971 C40.5313568,98.8673171 40.5511302,99.2610031 40.5906771,99.6507679 C40.6290375,100.026024 40.6875668,100.40481 40.7638922,100.776145 C40.8402176,101.142775 40.93513,101.509405 41.0466521,101.865448 C41.1558014,102.213648 41.2851196,102.563417 41.430652,102.905735 C41.5749979,103.243348 41.73714,103.57704 41.9127279,103.896616 C42.0883159,104.217368 42.2813045,104.533023 42.4873435,104.835345 C42.6914052,105.134923 42.9144494,105.430188 43.1497531,105.712904 C43.3822885,105.992484 43.6310381,106.26383 43.8896745,106.520274 C44.1494972,106.777896 44.4235568,107.02493 44.7051303,107.255103 C44.9870993,107.486452 45.2844915,107.707214 45.5897931,107.911507 C45.8970721,108.116977 46.2154242,108.308722 46.5357536,108.481254 C46.8608286,108.656531 47.1973722,108.817299 47.5354977,108.959245 C47.8783688,109.10276 48.232313,109.231375 48.5878391,109.341168 C48.9461335,109.451745 49.3151055,109.545461 49.684473,109.620355 C50.0566087,109.696426 50.4394222,109.754067 50.822631,109.792495 C51.592608,109.870134 52.4068775,109.870134 53.1768544,109.792495 C53.5596679,109.754067 53.9432722,109.696034 54.3165944,109.620355 C54.6855664,109.545461 55.0537475,109.451745 55.4108554,109.341168 C55.766777,109.231375 56.1207212,109.103152 56.461615,108.960029 C56.8013223,108.817691 57.1386569,108.656531 57.4637319,108.481254 C57.7848523,108.308722 58.1024134,108.117369 58.4085059,107.912292 C58.714203,107.707606 59.0111998,107.487236 59.2911914,107.257455 C59.5755332,107.025322 59.8499883,106.777896 60.1082291,106.521451 C60.3676564,106.265006 60.6175924,105.992092 60.8513143,105.710944 C61.085827,105.429403 61.3084757,105.134923 61.5125374,104.834953 C61.7177855,104.533415 61.9107741,104.218153 62.0859666,103.898185 C62.2623455,103.57704 62.424883,103.242956 62.5688335,102.905343 C62.7143659,102.563417 62.8440795,102.212864 62.9536243,101.863095 C63.0647509,101.508228 63.1592679,101.142383 63.2355933,100.775753 C63.3119187,100.405202 63.3708434,100.02524 63.4092039,99.6476309 C63.4487507,99.2598267 63.4685241,98.866925 63.4685241,98.4802971 L63.4685241,98.4802971 L63.4685241,90.2458296 L72.168829,90.2458296 L72.168829,98.4802971 C72.168829,99.1590525 72.1340278,99.8444739 72.0652163,100.516955 C71.9964048,101.184732 71.893583,101.854076 71.7587283,102.50656 C71.6262463,103.149632 71.4589632,103.794274 71.2624154,104.422446 C71.067054,105.044736 70.8380778,105.664674 70.5818143,106.265398 C70.3295055,106.857495 70.0435818,107.446456 69.7315572,108.016203 C69.4234873,108.578107 69.08378,109.132561 68.7215309,109.664273 C68.363632,110.189318 67.9740957,110.706521 67.5628085,111.200981 C67.1507304,111.695441 66.7129469,112.17304 66.2605311,112.621623 C65.8081152,113.070597 65.3264347,113.504279 64.8297264,113.910905 C64.3349954,114.315962 63.8133726,114.702982 63.2783038,115.060594 C62.7428396,115.419773 62.1832518,115.756994 61.6161501,116.062062 C61.042721,116.37105 60.4487274,116.654551 59.8495928,116.905506 C59.2480854,117.15803 58.6240362,117.384674 57.9956369,117.57838 C57.3628875,117.773655 56.7119465,117.93952 56.0610055,118.071664 C55.4005733,118.205376 54.7266951,118.307327 54.0575626,118.374771 C53.3777524,118.443391 52.6856827,118.47829 51.9999405,118.47829 C51.3138028,118.47829 50.6217331,118.443391 49.9423184,118.375163 C49.2723949,118.307327 48.5989122,118.205376 47.9404573,118.072056 C47.2887254,117.939912 46.6369935,117.773655 46.0034531,117.57838 C45.3754493,117.384282 44.7510047,117.157638 44.1471244,116.90433 C43.5499671,116.654159 42.9567645,116.37105 42.3833353,116.062062 C41.8166291,115.756994 41.2570413,115.419773 40.7195998,115.059809 C40.1857174,114.702198 39.6633037,114.315178 39.1673863,113.908944 C38.6726553,113.503887 38.1917657,113.070597 37.7373725,112.620054 C37.2857476,112.172256 36.848755,111.695441 36.4386543,111.202942 C36.0261808,110.707305 35.6358535,110.189318 35.2775591,109.66388 C34.91531,109.132169 34.5756027,108.577323 34.2675328,108.014242 C33.9562991,107.446456 33.6703755,106.857888 33.4176712,106.265006 C33.1614077,105.664674 32.9328269,105.04552 32.7382565,104.425191 C32.5409177,103.79545 32.3736346,103.150024 32.2407572,102.50656 C32.1059025,101.853684 32.0030807,101.185516 31.9346647,100.520092 C31.8658532,99.8456503 31.831052,99.1594446 31.831052,98.4802971 L31.831052,98.4802971 L31.831052,51.4258047 C31.831052,50.7470493 31.8654577,50.0616279 31.9342692,49.3887543 C32.0030807,48.7209782 32.1059025,48.0520257 32.2407572,47.3995422 C32.3736346,46.7564695 32.5409177,46.1118283 32.7374655,45.4832639 L32.7374655,45.4832639 L32.8545242,45.1087917 Z M49.3161768,0.06682512 C51.0880416,-0.02227504 52.8833196,-0.02227504 54.6528035,0.06682512 C55.5282198,0.110786432 56.4155411,0.177513424 57.2893701,0.265436049 C58.1564529,0.352966162 59.0314723,0.463261955 59.8890311,0.593575845 C60.7426215,0.7227122 61.603355,0.875399259 62.4478182,1.04653437 C63.2867257,1.21688445 64.1327763,1.41039273 64.9625567,1.62195655 C65.785194,1.83195031 66.6149744,2.06549479 67.4288814,2.31630977 C68.2400106,2.56673225 69.0523302,2.83913538 69.845205,3.12645396 C70.6333178,3.412595 71.4277799,3.72307177 72.205575,4.0488565 C72.9778144,4.37267866 73.7532285,4.72005153 74.5091977,5.0807698 C75.2592144,5.43874049 76.0135962,5.8210469 76.7509142,6.21787625 L76.7509142,6.21787625 L77.0997315,6.40510434 L72.9278133,13.9911783 L72.5793928,13.8035577 C71.9650935,13.4730628 71.3380954,13.1551284 70.7162561,12.8583895 C70.0888612,12.5589031 69.4444024,12.2700144 68.8003405,11.9999664 C68.155088,11.7295258 67.4951527,11.4716456 66.8379952,11.2337835 C66.1788536,10.9943513 65.5034417,10.7678721 64.8308077,10.5602334 C64.1542054,10.3518097 63.4649043,10.1579089 62.7827463,9.98402618 C62.0958262,9.80857344 61.3930328,9.64764364 60.6926204,9.5055544 C59.9941922,9.36385767 59.2787,9.23707638 58.5659858,9.12874315 C57.8508905,9.02040991 57.1238902,8.92895468 56.4048266,8.85673253 C55.6774294,8.78333284 54.9389209,8.72720366 54.2099365,8.69070007 C52.7321258,8.61690787 51.2340766,8.61690787 49.7590438,8.69070007 C49.0316466,8.72720366 48.2939318,8.78333284 47.5653442,8.85634002 C46.847471,8.92856217 46.1208676,9.02040991 45.4045818,9.12874315 C44.6910738,9.23707638 43.9751849,9.36385767 43.2771535,9.5055544 C42.5775348,9.64764364 41.8743445,9.80857344 41.1882181,9.98363367 C40.5052664,10.1579089 39.8159654,10.3518097 39.1377757,10.5606259 C38.4655385,10.7678721 37.7909203,10.9943513 37.1321755,11.2337835 C36.477399,11.4712531 35.8170669,11.7291333 35.1690366,12.0003589 C34.5241809,12.2707995 33.8805158,12.5592956 33.2555019,12.8576045 C32.6324722,13.1547358 32.0050773,13.4730628 31.3907779,13.8035577 C30.7828278,14.13052 30.1736873,14.4775003 29.5796265,14.8350785 C28.9899308,15.1895166 28.3990446,15.5647578 27.8228413,15.9498118 C27.2510032,16.3321182 26.6795619,16.7344427 26.1251845,17.1446175 C25.5727913,17.5536147 25.0231759,17.9814524 24.491418,18.4159629 C23.9564855,18.8524359 23.4275054,19.305787 22.9195576,19.7630631 C22.4084351,20.2219093 21.9024715,20.6992036 21.4151591,21.1816005 C20.9250688,21.6663524 20.4425184,22.1668049 19.9806033,22.6696124 C19.5139263,23.1775226 19.0555828,23.7003482 18.6194619,24.2235663 C18.1750076,24.7562047 17.7424583,25.3006184 17.3333222,25.8414996 C16.922202,26.3843433 16.5158437,26.9491676 16.124962,27.5202722 C15.737255,28.0878441 15.3582783,28.6719016 14.9991433,29.2563515 C14.6368336,29.8455116 14.2860322,30.4484096 13.9554693,31.0489525 C13.6264937,31.6479254 13.3042643,32.2684864 12.9994956,32.8933651 C12.6935364,33.5202063 12.4018633,34.1572528 12.1328097,34.7860566 C11.8601846,35.4223181 11.5990676,36.0758501 11.3566019,36.7289896 C11.1153267,37.3785965 10.8867502,38.0454739 10.6772217,38.7119588 C10.4696774,39.370201 10.2728476,40.0523863 10.0930817,40.7400669 C9.9153,41.4230372 9.75299481,42.1181755 9.61013448,42.805856 C9.46687733,43.4966766 9.33869987,44.2047678 9.22917363,44.9108964 C9.11925054,45.6221276 9.02678817,46.3408166 8.95416751,47.0469451 C8.88075317,47.761709 8.82400588,48.4925658 8.78670346,49.219105 C8.74940104,49.9444666 8.730353,50.6843512 8.730353,51.4187406 L8.730353,51.4187406 L8.730353,98.5205393 C8.730353,99.2541437 8.74940104,99.9948133 8.78670346,100.722138 C8.82440271,101.449069 8.88075317,102.178749 8.95416751,102.88998 C8.99821611,103.321743 9.04901089,103.748403 9.10575818,104.173101 L9.10575818,104.173101 L9.1581403,104.562472 L0.502392132,105.692121 L0.450406848,105.302749 C0.382548195,104.792877 0.321435724,104.280649 0.268259938,103.766066 C0.180162739,102.909605 0.112700921,102.033127 0.0674618186,101.161358 C0.022619551,100.285272 0,99.397018 0,98.5205393 L0,98.5205393 L0,51.4187406 C0,50.5418695 0.022619551,49.654008 0.0674618186,48.7798844 C0.112700921,47.9061533 0.180559573,47.0284971 0.268656772,46.1704665 C0.35675397,45.3140059 0.468264388,44.4500876 0.599616518,43.6022623 C0.730968647,42.756007 0.884940327,41.9038641 1.05835688,41.0701692 C1.23137661,40.2345118 1.42741272,39.3976768 1.6405127,38.5828225 C1.85440634,37.7609029 2.09052271,36.9393759 2.34290928,36.1413996 C2.59529585,35.3394981 2.8706988,34.5360266 3.16118146,33.7533583 C3.45483878,32.9624472 3.76873466,32.1762462 4.09453556,31.4163435 C4.4219238,30.6517307 4.77272525,29.8859403 5.13701907,29.1397755 C5.50170973,28.3924332 5.8886231,27.6462685 6.28664783,26.9224769 C6.68070422,26.206143 7.10174533,25.4819588 7.53945349,24.7703351 C7.96922495,24.0708792 8.42439381,23.3686758 8.89345187,22.6829578 C9.36370043,21.9952773 9.85180653,21.317017 10.3434841,20.6674101 C10.8363522,20.0154482 11.3558082,19.3623087 11.8867724,18.7260472 C12.4133715,18.0952808 12.9629869,17.4676546 13.520539,16.861224 C14.0705512,16.2626436 14.6495323,15.6621007 15.2412122,15.0760807 C15.8241616,14.499481 16.431318,13.9268064 17.0464111,13.3733649 C17.6611073,12.8211009 18.2952484,12.2770796 18.932961,11.7566091 C19.5722609,11.234961 20.2321962,10.7215557 20.8949094,10.2305235 C21.5627814,9.7367438 22.2481141,9.2543469 22.9334468,8.79589321 C23.6223511,8.33508446 24.3318906,7.88487352 25.0422239,7.45742825 C25.7569224,7.02723541 26.4898752,6.61038797 27.2200502,6.21748374 C27.9569713,5.8210469 28.7113532,5.43834798 29.4625604,5.07998478 C30.2161486,4.72044405 30.9899753,4.37346369 31.7634052,4.04924901 C32.5435813,3.72267926 33.3376466,3.41220249 34.1249657,3.12645396 C34.9178405,2.83913538 35.730557,2.56673225 36.5400988,2.31670229 C37.3551963,2.06549479 38.1853735,1.83195031 39.0084077,1.62195655 C39.8377912,1.41039273 40.683445,1.21688445 41.5223525,1.04653437 C42.3660221,0.875399259 43.2267556,0.7227122 44.0815365,0.593183334 C44.9406826,0.462869443 45.8153052,0.352966162 46.6811975,0.265436049 C47.5546296,0.177513424 48.4411573,0.110786432 49.3161768,0.06682512 Z M51.8627372,47.0109639 C54.2835027,47.0109639 56.2532435,48.9465676 56.2532435,51.3262539 L56.2532435,51.3262539 L56.2532435,98.4021446 C56.2532435,100.781439 54.2835027,102.717435 51.8627372,102.717435 C49.4419716,102.717435 47.4722308,100.781439 47.4722308,98.4021446 L47.4722308,98.4021446 L47.4722308,51.3262539 C47.4722308,48.9465676 49.4419716,47.0109639 51.8627372,47.0109639 Z M49.8280291,31.3536179 C51.2006032,31.2156057 52.5922574,31.2156057 53.9640365,31.3536179 C54.6374047,31.4212478 55.314748,31.5234791 55.9765887,31.6571661 C56.6312743,31.7900668 57.286755,31.9563892 57.923553,32.1525946 C58.5547861,32.346834 59.1824416,32.574102 59.7890295,32.8285005 C60.3892574,33.0789672 60.9855103,33.3632487 61.561888,33.6726949 C62.1319058,33.9789955 62.694371,34.3171451 63.2341786,34.6781001 C63.7712036,35.0363027 64.2959062,35.4247815 64.7943736,35.8321338 C65.2916484,36.2379133 65.7754083,36.6727894 66.2317405,37.1241798 C66.6860851,37.5736041 67.1253248,38.0513387 67.5375342,38.5451944 C67.9521287,39.0425888 68.3444631,39.5616091 68.7042023,40.0888865 C69.0683141,40.6216687 69.4101657,41.1784359 69.7198197,41.7430671 C70.0326537,42.3120234 70.3200476,42.9022124 70.5736538,43.4967265 C70.8316326,44.0991046 71.0613887,44.7199629 71.2569596,45.3420009 C71.4549156,45.9734756 71.6234564,46.6206781 71.757017,47.2655215 C71.8925652,47.9201948 71.9955182,48.590596 72.064286,49.2574584 C72.1334513,49.9341508 72.168829,50.6222458 72.168829,51.3032634 L72.168829,51.3032634 L72.168829,83.1522351 L63.423787,83.1522351 L63.423787,51.3032634 C63.423787,50.9151777 63.4035144,50.5200146 63.3641617,50.1291766 C63.325604,49.7532801 63.2667737,49.3734516 63.1896583,49.0010939 C63.113338,48.6330613 63.0179375,48.2654219 62.9054445,47.9083989 C62.7961315,47.559633 62.6661483,47.2089011 62.5198676,46.86564 C62.3743819,46.5270972 62.2114061,46.1924864 62.0353128,45.8720307 C61.858822,45.5503954 61.6644435,45.2334785 61.4577425,44.9307166 C61.252234,44.6299208 61.0284405,44.3338433 60.7919268,44.0503481 C60.5581957,43.7703917 60.3077695,43.4979061 60.0482008,43.2411483 C59.787042,42.9828178 59.5111757,42.7347104 59.2281543,42.5039036 C58.9447354,42.2719173 58.645814,42.0509405 58.33934,41.8460847 C58.0304811,41.6396562 57.710492,41.4473828 57.388118,41.274376 C57.0613714,41.0986169 56.7234948,40.9377992 56.3832331,40.7954619 C56.0389965,40.6515517 55.6828348,40.522583 55.3258781,40.4124878 C54.9657413,40.3016062 54.594872,40.2072389 54.2232078,40.1321382 C53.8491585,40.0562512 53.4643766,39.9984512 53.0795948,39.9595246 C52.305261,39.8816716 51.4872021,39.8820648 50.7128684,39.9595246 C50.328484,39.9984512 49.9429072,40.0562512 49.5676654,40.1321382 C49.1967961,40.2076321 48.8263243,40.3016062 48.4677776,40.4120946 C48.1100259,40.522583 47.7542617,40.6511585 47.411615,40.7942823 C47.0697634,40.937406 46.7310918,41.0986169 46.4043452,41.274376 C46.0815736,41.447776 45.7619821,41.6396562 45.4547131,41.8449051 C45.1470466,42.0505473 44.8489202,42.2711309 44.5670914,42.5015444 L44.5670914,42.5015444 L44.2606174,42.7524042 L38.6912181,36.0826004 L38.9980896,35.8321338 C39.4969545,35.4247815 40.0220545,35.0359095 40.5594771,34.6769205 C41.0980922,34.3167519 41.6605574,33.9789955 42.2305751,33.6726949 C42.8069529,33.3632487 43.4040008,33.078574 44.0058187,32.827321 C44.6108166,32.5737088 45.2380746,32.346834 45.8697051,32.1522014 C46.5053107,31.9567824 47.1599963,31.79046 47.813887,31.6575593 C48.4777151,31.5234791 49.1550584,31.4212478 49.8280291,31.3536179 Z M48.3143471,15.9460915 C50.7558801,15.6994895 53.2323034,15.6990962 55.6754223,15.9460915 C56.2871932,16.0082337 56.9041184,16.086108 57.5079597,16.1785346 L57.5079597,16.1785346 L57.8996834,16.2387102 L56.5710739,24.7903334 L56.1793502,24.7301578 C55.7190352,24.6601496 55.25198,24.6007606 54.7908721,24.5539573 C52.9353388,24.3671376 51.0532412,24.3675309 49.1985008,24.5543506 C48.2877828,24.6467772 47.3758754,24.7848271 46.4881534,24.9657473 C45.607568,25.1450942 44.7273792,25.3700645 43.8709792,25.6347585 C43.0233017,25.8970927 42.1795892,26.2042636 41.3620443,26.5476186 C40.5520327,26.8878271 39.7483647,27.2724791 38.9728469,27.6909553 C38.2024834,28.1066783 37.4428249,28.5648782 36.7152814,29.0529693 C35.9924957,29.5379139 35.2831903,30.0641556 34.6071894,30.6179285 C33.9311884,31.1717015 33.2765975,31.7620518 32.6616547,32.3724606 C32.0431436,32.9864092 31.4476284,33.6361485 30.8917614,34.3039798 C30.3351014,34.9725977 29.8042127,35.6758264 29.3145581,36.3947874 C28.8213351,37.1180746 28.3594342,37.8708597 27.9427322,38.6326909 C27.5200829,39.4023881 27.132324,40.2000099 26.7889711,41.0043179 C26.4412568,41.8188519 26.1316048,42.6561975 25.8687375,43.4927565 C25.6011125,44.3434745 25.3747216,45.2166108 25.1943225,46.0885673 C25.0115446,46.9735028 24.8719831,47.8781035 24.7796029,48.7775912 C24.6856368,49.6947777 24.638059,50.6280896 24.638059,51.5519623 L24.638059,51.5519623 L24.638059,75.5435465 L15.9154665,75.5435465 L15.9154665,51.5519623 C15.9154665,50.3342911 15.9781105,49.1060006 16.1018127,47.9013084 C16.2235326,46.7151016 16.4078964,45.520242 16.6497502,44.3501607 C16.888432,43.1958115 17.1885685,42.041069 17.5410405,40.9181842 C17.8907372,39.8067053 18.2999061,38.699946 18.7578422,37.6281908 C19.211417,36.5654816 19.7236711,35.512605 20.2795381,34.4986656 C20.8302509,33.4933789 21.43885,32.5006779 22.0886831,31.548094 C22.7321725,30.6037696 23.4311694,29.6771438 24.1650566,28.7945681 C24.8969614,27.9163188 25.6800124,27.0616678 26.4931959,26.2542133 C27.3051899,25.4487254 28.1667442,24.6719487 29.0536733,23.945515 C29.9409988,23.2190813 30.8747127,22.5256852 31.8294401,21.8849919 C32.7877359,21.2423321 33.7888516,20.6386094 34.8046371,20.0903427 C35.8263699,19.5385363 36.8877508,19.03078 37.9594403,18.5804461 C39.0406453,18.125786 40.1563442,17.7202889 41.2752149,17.3741808 C42.4091519,17.0237463 43.5728251,16.7260147 44.7341193,16.4900319 C45.908894,16.2505093 47.1134047,16.0676227 48.3143471,15.9460915 Z M84.8385668,11.4131704 L85.1436827,11.6633245 C85.7780233,12.1848722 86.4103877,12.7296261 87.0222003,13.283033 C87.6344082,13.8372267 88.2391067,14.4110865 88.8200915,14.9892729 C89.4105618,15.5772924 89.9871991,16.1794715 90.5341944,16.7785041 C91.0898846,17.3865831 91.6372751,18.0155083 92.1617424,18.6475801 C92.6893714,19.2839784 93.2063294,19.9384697 93.6991784,20.5941409 C94.1900513,21.2458789 94.675391,21.9251496 95.1429455,22.6134667 C95.6085238,23.2978506 96.0618501,24.0011141 96.4914627,24.7043775 C96.9270037,25.4178674 97.3467356,26.1435503 97.7388015,26.8609734 C98.1340293,27.5842964 98.5193764,28.3316121 98.8837764,29.0820744 C99.2469907,29.8313568 99.5963721,30.5995187 99.9228302,31.365714 C100.246917,32.1267961 100.559542,32.9134442 100.850825,33.7036323 C101.140922,34.4894938 101.41521,35.2958081 101.667366,36.1005492 C101.91715,36.8978171 102.152705,37.7206511 102.366524,38.544665 C102.57797,39.3615991 102.773213,40.200166 102.945928,41.037553 C103.118247,41.8733666 103.27199,42.7264865 103.40202,43.5725266 C103.533236,44.4244666 103.64469,45.2917461 103.732036,46.1503726 C103.820171,47.0070324 103.887755,47.8853251 103.932811,48.7612578 C103.977077,49.6391571 104,50.5292495 104,51.4075422 L104,51.4075422 L104,71.4674632 L95.3049889,71.4674632 L95.3049889,51.4075422 C95.3049889,50.6720261 95.2860179,49.9302169 95.2484713,49.2013874 C95.2113199,48.4729512 95.1551975,47.7417618 95.0816852,47.0286653 C95.0097537,46.3202886 94.9172704,45.5985389 94.8077923,44.8834758 C94.6991047,44.1782457 94.5710509,43.4694757 94.4283737,42.7772253 C94.2864869,42.0877282 94.1248387,41.3911513 93.9469862,40.7063741 C93.767948,40.016877 93.5727055,39.3336731 93.3667918,38.6764286 C93.1569259,38.0073843 92.9288795,37.3379467 92.688581,36.6858154 C92.447492,36.0332908 92.1882226,35.3795862 91.9170964,34.7420078 C91.6487367,34.1115094 91.3582443,33.4727511 91.0531284,32.8430392 C90.748803,32.216474 90.4282733,31.5946286 90.1006295,30.995596 C89.7710095,30.3926302 89.4216282,29.7884845 89.0615757,29.1996783 C88.7038945,28.6136255 88.326452,28.0287526 87.9403145,27.4607926 C87.552596,26.889686 87.1478828,26.3236927 86.7376363,25.7785455 C86.3289708,25.2349717 85.8977773,24.6890379 85.4563079,24.1568704 C85.0215573,23.6325694 84.5650692,23.1082684 84.0998861,22.5985204 C83.6406314,22.0958522 83.1596392,21.5939707 82.6711377,21.1074288 C82.1854028,20.6236402 81.6810921,20.1457515 81.1728292,19.6859556 C80.6645663,19.2257665 80.1381229,18.7718705 79.6081224,18.3364607 L79.6081224,18.3364607 L79.3034018,18.0863066 L84.8385668,11.4131704 Z M67.0800983,18.7501202 L67.4369321,18.9177623 C68.0708646,19.2144809 68.7036129,19.5344175 69.319388,19.8681275 C70.3294959,20.4159157 71.3253937,21.0195845 72.2794503,21.6622124 C73.2315333,22.3048404 74.1615115,22.9986267 75.0437277,23.7250756 C75.9267334,24.4519181 76.7848712,25.2291319 77.593668,26.0358601 C78.4032543,26.8429819 79.1824466,27.6981139 79.9107191,28.5764638 C80.6417546,29.4591426 81.3372646,30.3866833 81.9790917,31.3335068 C82.6252608,32.2854462 83.2311677,33.2787057 83.7806285,34.2857387 C84.3332471,35.2994616 84.8428405,36.3525372 85.2948036,37.4154508 C85.7503192,38.4878091 86.1580728,39.5955847 86.5058279,40.7076891 C86.8567407,41.8300252 87.1551548,42.9846304 87.3931755,44.1396292 C87.5329091,44.8200356 87.6540904,45.5122478 87.7531671,46.1965895 L87.7531671,46.1965895 L87.8100079,46.5861802 L79.2156037,47.8261805 L79.1595524,47.4369833 C79.0837647,46.9191032 78.9921879,46.3949266 78.8864009,45.879014 C78.7067999,45.0077475 78.4810157,44.1341198 78.2149693,43.2837102 C77.9536596,42.4462869 77.6453773,41.6084701 77.2992012,40.7934778 C76.9573671,39.9895042 76.5713235,39.1914335 76.1513334,38.4216967 C75.7352905,37.6586499 75.2758275,36.9054411 74.7855759,36.1821404 C74.2969031,35.4619879 73.7679681,34.7579699 73.2141653,34.0889757 C72.6611519,33.4211622 72.0686658,32.7714508 71.452496,32.1571567 C70.839484,31.5460109 70.1877887,30.9553284 69.5147782,30.4008503 C68.8421623,29.8475528 68.1355999,29.3202279 67.4148273,28.8342234 C66.6916863,28.3466447 65.9361777,27.888974 65.169222,27.473017 C64.7006803,27.2187992 64.221481,26.9771743 63.7450448,26.7540451 L63.7450448,26.7540451 L63.3878163,26.5867965 L67.0800983,18.7501202 Z" id="Combined-Shape"></path>
        </g>
    </g>
</svg>