<svg width="64" height="64" viewBox="0 0 64 64" fill="none" xmlns="http://www.w3.org/2000/svg">
<mask id="mask0_1404_10108" style="mask-type:alpha" maskUnits="userSpaceOnUse" x="12" y="6" width="40" height="52">
<path d="M31.6911 6.00025C31.6544 5.99816 31.5833 6.00967 31.5833 6.00967C11.3323 7.5187 11.6143 26.796 12.159 34.6383C12.2029 35.2704 15.1954 57.9895 17.3809 58C20.3974 58.0141 18.8894 53.9192 18.8894 53.9192C18.8894 53.9192 23.5463 55.2639 31.5833 55.3163V55.3184L31.6911 55.3173L31.7994 55.3184V55.3163C39.8353 55.2639 44.4927 53.9192 44.4927 53.9192C44.4927 53.9192 42.9847 58.0141 46.0012 58C48.1862 57.9895 51.1787 35.2704 51.2231 34.6383C51.7673 26.796 52.0499 7.5187 31.7994 6.00967C31.7994 6.00967 31.7402 6.00025 31.7021 6.00025H31.6911" fill="white"/>
</mask>
<g mask="url(#mask0_1404_10108)">
<path fill-rule="evenodd" clip-rule="evenodd" d="M31.6911 6.00025C31.6544 5.99816 31.5833 6.00967 31.5833 6.00967C11.3323 7.5187 11.6143 26.796 12.159 34.6383C12.2029 35.2704 15.1954 57.9895 17.3809 58C20.3974 58.0141 18.8894 53.9192 18.8894 53.9192C18.8894 53.9192 23.5463 55.2639 31.5833 55.3163V55.3184L31.6911 55.3173L31.7994 55.3184V55.3163C39.8353 55.2639 44.4927 53.9192 44.4927 53.9192C44.4927 53.9192 42.9847 58.0141 46.0012 58C48.1862 57.9895 51.1787 35.2704 51.2231 34.6383C51.7673 26.796 52.0499 7.5187 31.7994 6.00967C31.7994 6.00967 31.7402 6.00025 31.7021 6.00025H31.6911" fill="url(#paint0_linear_1404_10108)"/>
<path fill-rule="evenodd" clip-rule="evenodd" d="M40.1737 26.1424C40.6516 26.1412 41.1095 25.9506 41.4473 25.6125C41.785 25.2744 41.975 24.8162 41.9757 24.3383C41.975 23.8604 41.785 23.4023 41.4472 23.0643C41.1095 22.7262 40.6515 22.5358 40.1737 22.5347C39.6957 22.5358 39.2377 22.7262 38.8999 23.0642C38.5621 23.4023 38.3719 23.8604 38.3711 24.3383C38.3718 24.8163 38.5619 25.2745 38.8997 25.6127C39.2376 25.9508 39.6957 26.1413 40.1737 26.1424" fill="#1A1A1A"/>
<path fill-rule="evenodd" clip-rule="evenodd" d="M40.8877 24.1164C41.1791 24.1164 41.4167 23.8788 41.4167 23.5869C41.4167 23.2959 41.1791 23.0579 40.8882 23.0579C40.7528 23.0652 40.6254 23.1241 40.5321 23.2225C40.4388 23.3209 40.3868 23.4513 40.3867 23.5869C40.3867 23.7225 40.4385 23.8529 40.5317 23.9514C40.6249 24.0499 40.7523 24.1089 40.8877 24.1164" fill="white"/>
<path fill-rule="evenodd" clip-rule="evenodd" d="M23.1165 26.1424C23.5944 26.1412 24.0524 25.9506 24.3901 25.6125C24.7278 25.2744 24.9178 24.8162 24.9185 24.3383C24.9178 23.8604 24.7278 23.4023 24.3901 23.0643C24.0523 22.7262 23.5944 22.5358 23.1165 22.5347C22.6386 22.5358 22.1807 22.7262 21.8429 23.0643C21.5052 23.4023 21.3151 23.8604 21.3145 24.3383C21.3151 24.8162 21.5052 25.2744 21.8429 25.6125C22.1806 25.9506 22.6386 26.1412 23.1165 26.1424Z" fill="#1A1A1A"/>
<path fill-rule="evenodd" clip-rule="evenodd" d="M23.9348 24.1164C24.0701 24.109 24.1975 24.05 24.2908 23.9516C24.384 23.8531 24.436 23.7227 24.436 23.5871C24.436 23.4515 24.384 23.3211 24.2908 23.2227C24.1975 23.1242 24.0701 23.0652 23.9348 23.0579C23.7973 23.0622 23.6669 23.1198 23.5711 23.2186C23.4754 23.3174 23.4219 23.4496 23.4219 23.5871C23.4219 23.7247 23.4754 23.8568 23.5711 23.9556C23.6669 24.0544 23.7973 24.1121 23.9348 24.1164Z" fill="white"/>
<path fill-rule="evenodd" clip-rule="evenodd" d="M34.7353 29.5529C34.64 29.4727 34.5169 29.4334 34.3928 29.4435C34.2686 29.4536 34.1535 29.5123 34.0724 29.6068C34.064 29.6162 33.2132 30.5712 31.666 30.5712C30.0146 30.5712 29.3559 29.735 29.2905 29.6461C29.2554 29.595 29.2107 29.5513 29.1587 29.5175C29.1068 29.4837 29.0487 29.4605 28.9878 29.4491C28.9269 29.4378 28.8644 29.4386 28.8038 29.4514C28.7432 29.4642 28.6857 29.4888 28.6346 29.5239C28.5835 29.5589 28.5398 29.6037 28.506 29.6556C28.4722 29.7075 28.449 29.7656 28.4377 29.8265C28.4263 29.8874 28.4271 29.95 28.4399 30.0106C28.4527 30.0712 28.4774 30.1287 28.5124 30.1798C28.5496 30.2342 29.438 31.5156 31.666 31.5156C33.6632 31.5156 34.7442 30.2729 34.7887 30.2211C34.8699 30.1253 34.9099 30.0012 34.8999 29.876C34.8899 29.7508 34.8307 29.6346 34.7353 29.5529" fill="#1A1A1A"/>
<path fill-rule="evenodd" clip-rule="evenodd" d="M41.1844 41.5268L31.7734 47.0826L22.3613 41.5268C22.3613 41.5216 22.3613 41.5158 22.3629 41.5111C22.3702 41.4761 22.8898 41.0418 23.6825 40.3977L23.7034 40.3794C26.3024 38.267 31.7734 33.9414 31.7734 33.9414C31.7734 33.9414 37.2434 38.267 39.8418 40.3794C40.647 41.0329 41.176 41.4745 41.1834 41.5117C41.1844 41.5158 41.1844 41.5221 41.1844 41.5268" fill="#A7A9AC"/>
<path fill-rule="evenodd" clip-rule="evenodd" d="M27.9704 47.8941H38.1254C38.3327 47.894 38.5378 47.8531 38.7292 47.7737C38.9206 47.6943 39.0945 47.578 39.241 47.4314C39.3874 47.2848 39.5036 47.1108 39.5828 46.9193C39.6619 46.7279 39.7026 46.5226 39.7025 46.3154V35.1013C39.7026 34.6829 39.5366 34.2815 39.2408 33.9855C38.9451 33.6894 38.5439 33.523 38.1254 33.5227H25.4013C25.1941 33.5228 24.9889 33.5637 24.7975 33.643C24.6061 33.7224 24.4322 33.8387 24.2857 33.9853C24.1393 34.1319 24.0231 34.3059 23.944 34.4974C23.8648 34.6889 23.8241 34.8941 23.8242 35.1013V43.7437L27.9704 47.8941Z" fill="white"/>
<path fill-rule="evenodd" clip-rule="evenodd" d="M41.1849 41.5807V50.6192C41.1842 50.9232 41.0632 51.2147 40.8483 51.4298C40.6334 51.6449 40.3421 51.7662 40.038 51.7671H23.5051C23.2014 51.7662 22.9103 51.6448 22.6959 51.4296C22.4815 51.2144 22.3612 50.9229 22.3613 50.6192V41.5807L31.7729 47.1359L41.1849 41.5807Z" fill="#D1D3D4"/>
<path fill-rule="evenodd" clip-rule="evenodd" d="M40.8652 51.4124L34.8071 45.3485L31.7713 47.1406L28.7339 45.348L22.6758 51.4124C22.7818 51.5258 22.91 51.6163 23.0524 51.6782C23.1947 51.7401 23.3483 51.7722 23.5035 51.7724H40.0359C40.1913 51.772 40.3449 51.7399 40.4875 51.678C40.63 51.6161 40.7583 51.5257 40.8647 51.4124" fill="#F4F4F4"/>
<path fill-rule="evenodd" clip-rule="evenodd" d="M12.4234 36.7783C12.6337 41.715 14.4494 47.4513 18.5008 49.3952C22.4665 51.2977 28.873 50.6436 28.9165 49.3429C28.94 48.638 28.2635 48.839 28.3058 48.2514C28.3634 47.4571 29.6773 47.8668 29.5862 46.938C29.5109 46.1861 28.2206 46.6607 28.1703 45.9162C28.106 44.968 29.356 45.1339 28.7511 44.2235C28.1468 43.313 26.6032 45.7754 22.0986 44.5086C18.0383 43.3674 16.6606 40.4242 16.0761 36.0667C15.4917 31.7086 12.2612 32.9617 12.4239 36.7783H12.4234ZM51.0375 36.7783C50.8277 41.715 49.0121 47.4513 44.9606 49.3952C40.9944 51.2977 34.5879 50.6436 34.545 49.3429C34.5214 48.638 35.198 48.839 35.1551 48.2514C35.0975 47.4571 33.7837 47.8668 33.8752 46.938C33.95 46.1861 35.2409 46.6607 35.2911 45.9162C35.355 44.968 34.1055 45.1339 34.7098 44.2235C35.3147 43.313 36.8577 45.7754 41.3623 44.5086C45.4226 43.3674 46.8003 40.4242 47.3848 36.0667C47.9692 31.7086 51.1997 32.9617 51.0375 36.7783Z" fill="#179BC9"/>
<path fill-rule="evenodd" clip-rule="evenodd" d="M12.4234 36.3598C12.6337 41.2966 14.4494 47.0329 18.5008 48.9767C22.4665 50.8792 28.873 50.2252 28.9165 48.9244C28.94 48.2196 28.2635 48.4205 28.3058 47.8329C28.3634 47.0386 29.6773 47.4483 29.5862 46.5196C29.5109 45.7677 28.2206 46.2423 28.1703 45.4982C28.106 44.5496 29.356 44.7154 28.7511 43.805C28.1468 42.8946 26.6032 45.3569 22.0986 44.0902C18.0383 42.9485 16.6606 40.0058 16.0761 35.6482C15.4917 31.2901 12.2612 32.5433 12.4239 36.3598H12.4234ZM51.0375 36.3598C50.8277 41.2966 49.0121 47.0329 44.9606 48.9767C40.9944 50.8792 34.5879 50.2252 34.545 48.9244C34.5214 48.2196 35.198 48.4205 35.1551 47.8329C35.0975 47.0386 33.7837 47.4483 33.8752 46.5196C33.95 45.7677 35.2409 46.2423 35.2911 45.4977C35.355 44.5496 34.1055 44.7154 34.7098 43.805C35.3147 42.8946 36.8577 45.3569 41.3623 44.0902C45.4226 42.9485 46.8003 40.0058 47.3848 35.6482C47.9692 31.2901 51.1997 32.5433 51.0375 36.3598Z" fill="#27AAE1"/>
</g>
<mask id="mask1_1404_10108" style="mask-type:alpha" maskUnits="userSpaceOnUse" x="30" y="39" width="3" height="2">
<path d="M31.6003 40.0721L31.1503 39.7446L30.8379 40.0193L31.5861 40.8538L31.5877 40.8528L31.5887 40.8538L32.9303 39.4887L32.6912 39.1737L31.6003 40.0721Z" fill="white"/>
</mask>
<g mask="url(#mask1_1404_10108)">
<path fill-rule="evenodd" clip-rule="evenodd" d="M31.5983 40.0721L31.1483 39.7446L30.8359 40.0193L31.5842 40.8538L31.5857 40.8528L31.5868 40.8538L32.9284 39.4887L32.6893 39.1737L31.5983 40.0721Z" fill="url(#paint1_linear_1404_10108)"/>
</g>
<mask id="mask2_1404_10108" style="mask-type:alpha" maskUnits="userSpaceOnUse" x="28" y="36" width="8" height="8">
<path d="M28.3242 39.8864C28.324 40.337 28.4126 40.7833 28.5848 41.1997C28.7571 41.6161 29.0097 41.9944 29.3281 42.3132C29.6466 42.632 30.0248 42.8849 30.441 43.0576C30.8573 43.2302 31.3034 43.3192 31.7541 43.3194C32.6641 43.3188 33.5366 42.9569 34.1798 42.3131C34.823 41.6693 35.1842 40.7964 35.1839 39.8864C35.1843 38.9763 34.8232 38.1033 34.18 37.4594C33.5368 36.8155 32.6642 36.4534 31.7541 36.4529C31.3034 36.4531 30.8572 36.5421 30.4409 36.7147C30.0246 36.8874 29.6465 37.1404 29.328 37.4592C29.0095 37.7781 28.7569 38.1565 28.5847 38.573C28.4124 38.9894 28.3239 39.4357 28.3242 39.8864V39.8864ZM29.8631 38.7944L31.7541 37.9886L33.6445 38.7944C33.6445 38.7944 33.519 41.7831 31.7541 41.7831C29.9892 41.7831 29.8631 38.7944 29.8631 38.7944Z" fill="white"/>
</mask>
<g mask="url(#mask2_1404_10108)">
<path fill-rule="evenodd" clip-rule="evenodd" d="M28.3242 39.8864C28.324 40.337 28.4126 40.7833 28.5848 41.1997C28.7571 41.6161 29.0097 41.9944 29.3281 42.3132C29.6466 42.632 30.0248 42.8849 30.441 43.0576C30.8573 43.2302 31.3034 43.3192 31.7541 43.3194C32.6641 43.3188 33.5366 42.9569 34.1798 42.3131C34.823 41.6693 35.1842 40.7964 35.1839 39.8864C35.1843 38.9763 34.8232 38.1033 34.18 37.4594C33.5368 36.8155 32.6642 36.4534 31.7541 36.4529C31.3034 36.4531 30.8572 36.5421 30.4409 36.7147C30.0246 36.8874 29.6465 37.1404 29.328 37.4592C29.0095 37.7781 28.7569 38.1565 28.5847 38.573C28.4124 38.9894 28.3239 39.4357 28.3242 39.8864V39.8864ZM29.8631 38.7944L31.7541 37.9886L33.6445 38.7944C33.6445 38.7944 33.519 41.7831 31.7541 41.7831C29.9892 41.7831 29.8631 38.7944 29.8631 38.7944Z" fill="url(#paint2_linear_1404_10108)"/>
</g>
<defs>
<linearGradient id="paint0_linear_1404_10108" x1="31.691" y1="4.55336" x2="31.691" y2="57.8128" gradientUnits="userSpaceOnUse">
<stop stop-color="#5EB8E6"/>
<stop offset="1" stop-color="#26A8DF"/>
</linearGradient>
<linearGradient id="paint1_linear_1404_10108" x1="30.836" y1="40.0138" x2="32.9285" y2="40.0138" gradientUnits="userSpaceOnUse">
<stop stop-color="#8CC63F"/>
<stop offset="1" stop-color="#38B549"/>
</linearGradient>
<linearGradient id="paint2_linear_1404_10108" x1="28.3242" y1="39.8861" x2="35.184" y2="39.8861" gradientUnits="userSpaceOnUse">
<stop stop-color="#8CC63F"/>
<stop offset="1" stop-color="#38B549"/>
</linearGradient>
</defs>
</svg>
