<svg width="747" height="532" viewBox="0 0 747 532" fill="none" xmlns="http://www.w3.org/2000/svg">
<path fill-rule="evenodd" clip-rule="evenodd" d="M68.7478 289.288C68.7478 148.245 182.999 34 324.05 34C429.202 34 519.46 97.4868 558.602 188.248C532.8 204.285 505.812 219.085 478.289 232.669C473.949 223.317 468.192 214.875 461.287 207.294C463.84 200.912 472.776 174.749 458.734 139.643C458.734 139.643 437.35 132.627 388.526 165.814C367.743 160.047 346.269 157.148 324.7 157.196C303.132 157.152 281.659 160.051 260.874 165.814C212.05 132.944 190.666 139.643 190.666 139.643C176.625 174.749 185.56 200.912 188.113 207.294C171.836 225.165 161.941 248.14 161.941 275.905C161.941 300.844 165.813 320.849 172.524 336.921C132.53 345.115 99.0762 349.553 76.0812 350.364C71.2888 330.806 68.7478 310.352 68.7478 289.288ZM82.4362 372.058C108.134 447.173 167.876 506.347 243.313 531.494C256.078 533.73 260.867 526.071 260.867 519.372C260.867 517.264 260.829 513.46 260.779 508.497C260.685 499.178 260.549 485.772 260.549 471.826C196.407 483.631 179.812 456.192 174.706 441.834C171.836 434.493 159.388 411.834 148.533 405.777C139.598 400.988 126.833 389.183 148.216 388.866C168.323 388.549 182.682 407.37 187.471 415.037C210.448 453.647 247.15 442.801 261.826 436.102C264.062 419.508 270.762 408.337 278.103 401.955C244.197 398.146 209.384 388.767 186.825 361.061C143.151 367.963 106.952 371.163 82.4362 372.058ZM487.405 272.298C487.442 273.49 487.46 274.693 487.46 275.905C487.46 373.874 427.781 395.573 370.98 401.955C380.232 409.931 388.217 425.248 388.217 449.183C388.217 471.912 388.077 491.669 387.982 504.882C387.935 511.52 387.899 516.506 387.899 519.388C387.899 526.087 392.688 534.071 405.453 531.51C506.298 497.688 579.376 401.947 579.376 289.304C579.373 268.28 576.832 247.851 572.044 228.308C544.31 244.682 515.921 259.287 487.405 272.298Z" fill="#F0F6FC"/>
<path fill-rule="evenodd" clip-rule="evenodd" d="M638.746 105.682C642.213 109.153 644.901 113.324 646.631 117.915C648.361 122.506 649.094 127.414 648.78 132.31C648.467 137.206 647.114 141.98 644.813 146.313C642.511 150.646 639.314 154.44 635.432 157.441C433.828 313.848 148.753 356.58 60.7301 356.58C29.3301 356.58 0.120117 347.83 0.120117 329.67C0.120117 311.502 24.7029 285.493 100.826 250.009C101.501 249.696 102.238 249.541 102.982 249.559C103.726 249.576 104.455 249.765 105.114 250.11V250.11C105.891 250.517 106.542 251.129 106.997 251.879C107.453 252.629 107.695 253.489 107.697 254.366C107.7 255.244 107.464 256.105 107.013 256.858C106.563 257.611 105.915 258.227 105.141 258.639C24.0606 301.697 17.3801 320.005 17.3801 326.63C17.3801 331.96 33.2501 333.74 45.5001 333.74C113.566 333.74 395.509 276.327 591.569 104.146C598.157 98.3631 606.699 95.3035 615.461 95.5886C624.223 95.8737 632.548 99.4821 638.746 105.681L638.746 105.682Z" fill="#F0F6FC"/>
<path d="M746.5 66.0818C702.256 78.7214 692.428 89.313 680.822 131.757C669.215 89.313 659.387 78.7214 615.143 66.0818C659.387 53.4421 669.215 42.8506 680.822 0.406982C692.428 42.8506 702.256 53.4421 746.5 66.0818Z" fill="#F0F6FC"/>
</svg>
