<svg width="378" height="378" viewBox="0 0 378 378" fill="none" xmlns="http://www.w3.org/2000/svg">
<rect width="378" height="378" rx="20" fill="#006DF9"/>
<g clip-path="url(#clip0_1776_1050)">
<path d="M250.607 132H128.393C97.2481 132 72 157.296 72 188.5C72 219.704 97.2481 245 128.393 245H250.607C281.752 245 307 219.704 307 188.5C307 157.296 281.752 132 250.607 132Z" fill="white"/>
<path d="M256.484 206.371C266.335 206.371 274.321 198.37 274.321 188.5C274.321 178.63 266.335 170.629 256.484 170.629C246.632 170.629 238.646 178.63 238.646 188.5C238.646 198.37 246.632 206.371 256.484 206.371Z" fill="#006DF9"/>
<path d="M142.068 202.437L123.412 173.412C122.992 172.759 122.04 172.759 121.62 173.412L102.964 202.437C102.505 203.146 103.015 204.082 103.86 204.082H141.172C142.017 204.082 142.527 203.146 142.068 202.437Z" fill="#006DF9"/>
<path d="M204.253 171.999H174.747C173.8 171.999 173.032 172.768 173.032 173.717V203.279C173.032 204.228 173.8 204.997 174.747 204.997H204.253C205.2 204.997 205.968 204.228 205.968 203.279V173.717C205.968 172.768 205.2 171.999 204.253 171.999Z" fill="#006DF9"/>
</g>
<defs>
<clipPath id="clip0_1776_1050">
<rect width="235" height="113" fill="white" transform="translate(72 132)"/>
</clipPath>
</defs>
</svg>
