<?xml version="1.0" encoding="UTF-8"?>
<svg width="174px" height="40px" viewBox="0 0 174 40" version="1.1" xmlns="http://www.w3.org/2000/svg" xmlns:xlink="http://www.w3.org/1999/xlink">
    <!-- Generator: Sketch 57.1 (83088) - https://sketch.com -->
    <title>Combined Shape</title>
    <desc>Created with Sketch.</desc>
    <defs>
        <linearGradient x1="0%" y1="50%" x2="100%" y2="50%" id="linearGradient-1">
            <stop stop-color="#E40D7E" offset="0%"></stop>
            <stop stop-color="#2B307F" offset="100%"></stop>
        </linearGradient>
    </defs>
    <g id="Visual-Design" stroke="none" stroke-width="1" fill="none" fill-rule="evenodd">
        <g id="Main-page-narrative" transform="translate(-59.000000, -137.000000)" fill="url(#linearGradient-1)">
            <path d="M97.9933496,137 L98.5272001,137.006969 C100.837022,137.067372 103.099101,137.520409 105.241151,138.36664 L105.733306,138.568904 L106.205056,138.776248 C108.234146,139.699474 110.065551,140.943634 111.676008,142.484205 L112.043719,142.844972 L112.40228,143.215185 C113.933428,144.837556 115.169978,146.693811 116.087557,148.722922 L116.293633,149.194219 L116.49466,149.689168 C117.335715,151.842438 117.785982,154.105114 117.846014,156.440693 L117.852941,156.980951 L117.846014,157.518006 C117.785982,159.84172 117.335715,162.117696 116.49466,164.272926 L116.293633,164.76811 L116.087557,165.242689 C115.169978,167.283989 113.933428,169.126966 112.40228,170.747378 L112.043719,171.117357 L111.67577,171.478125 C110.063322,173.018697 108.218421,174.26288 106.201721,175.186429 L105.733306,175.393853 L105.275468,175.590369 C103.129959,176.47691 100.860566,176.93652 98.5160286,176.993861 L98.0124952,177 L87.3215527,177 L86.8900642,176.993368 C85.3247717,176.945165 83.8014699,176.634587 82.3533458,176.073522 L81.9211971,175.8977 L81.5116957,175.714165 C80.1720037,175.088096 78.9484568,174.260721 77.8613616,173.252472 L77.5040781,172.909718 L77.190096,172.583339 C76.1640397,171.481312 75.3431297,170.23902 74.7165325,168.877768 L74.5343718,168.465845 L74.3649962,168.043756 C73.8237026,166.630428 73.5156729,165.154202 73.4512484,163.637125 L73.4392395,163.180799 L73.058479,162.962981 C72.1768864,162.440325 71.3444241,161.817192 70.5861149,161.102646 L70.2657382,160.790841 L69.9517561,160.464364 C68.9256998,159.362034 68.1047897,158.119688 67.4781925,156.758133 L67.2960319,156.346111 L67.126656,155.919341 C66.5853599,154.490535 66.2773032,153.000417 66.2125807,151.480942 L66.2004741,151.024251 L65.8205914,150.806952 C64.9423855,150.286931 64.1223468,149.675554 63.3784915,148.96416 L63.0644132,148.653129 L62.7504313,148.327013 C61.7243775,147.227025 60.9034946,145.997647 60.2771952,144.638136 L60.0951324,144.226378 L59.9343018,143.82808 C59.3723173,142.372705 59.0599725,140.842129 59.0078271,139.280876 L59,138.811624 L59,137 L97.9933496,137 Z M98.0124952,140.603985 L62.8044575,140.603985 L62.8732269,140.964724 C63.2746887,142.878885 64.2292959,144.633002 65.6448242,146.056838 C67.4938882,147.918102 69.9235965,148.973019 72.5400148,149.057698 L72.8823132,149.063227 L98.0312154,149.063227 L98.3447614,149.069373 C100.219668,149.143006 101.975164,149.876301 103.353815,151.159721 L103.580056,151.378699 L103.79781,151.606455 C105.07006,152.990002 105.797652,154.749721 105.874568,156.629604 L105.881366,156.962543 L105.875264,157.278077 C105.802152,159.164834 105.073999,160.93082 103.79781,162.318267 L103.580056,162.545959 L103.353815,162.764993 C101.975164,164.048687 100.219668,164.781302 98.3447614,164.854864 L98.0312154,164.861003 L80.1023584,164.861003 L79.6750831,164.868141 C78.9663397,164.865301 78.2736286,164.790169 77.5837705,164.663493 L77.1700925,164.581469 L77.2294337,164.943764 C77.5801394,166.86735 78.4761241,168.647956 79.8101137,170.070618 L80.0653434,170.333119 L80.3099298,170.5714 C82.1278805,172.285722 84.4751606,173.269949 86.9791616,173.352293 L87.3215527,173.357916 L98.0124952,173.357916 L98.4809514,173.351344 C100.351124,173.298769 102.176196,172.930744 103.910083,172.247271 L104.341629,172.06983 L104.783675,171.873875 C106.392278,171.132362 107.865255,170.138063 109.168324,168.90187 L109.519469,168.558738 L109.856815,168.209452 C111.074148,166.911898 112.074523,165.430141 112.813605,163.797897 L113.008661,163.349033 L113.185107,162.914832 C113.864764,161.170275 114.230877,159.333971 114.283181,157.45229 L114.289719,156.980951 L114.283181,156.509697 C114.230877,154.628331 113.864764,152.792052 113.185107,151.047497 L113.008661,150.613296 L112.813912,150.168445 C112.076985,148.549686 111.089077,147.067929 109.860496,145.75689 L109.519469,145.403592 L109.172229,145.064078 C107.882306,143.838945 106.409613,142.832388 104.787656,142.088756 L104.341629,141.892499 L103.910083,141.715052 C102.031706,140.97457 100.046312,140.603985 98.0124952,140.603985 Z M173.455999,164.65552 L173.497059,164.669766 L173.427,164.643 L173.542059,164.684766 L173.604059,164.704766 L173.641059,164.716766 L173.731059,164.741766 L173.744059,164.744766 L173.742059,164.744766 L173.746059,164.745766 L173.761059,164.749766 L173.756059,164.747766 L173.771059,164.751766 L173.802059,164.758766 L173.865059,164.772766 L174.033059,164.804766 L173.915059,164.783766 L173.952639,164.792141 L174.059109,164.809791 L174.291936,164.8349 L174.508725,164.842327 L174.690684,164.838248 C176.05424,164.775723 176.696053,163.994791 176.74717,162.524458 L176.750498,162.328768 L176.750498,161.365447 L176.731656,161.365447 L176.640994,161.505664 C176.162511,162.190632 175.307056,162.630695 174.101105,162.683027 L173.855249,162.688281 L173.626802,162.683459 C171.971741,162.612748 170.76422,161.764911 170.176417,160.170643 L170.100119,159.94862 L170.032545,159.722412 C169.986263,159.558853 169.945659,159.395173 169.910449,159.227881 C169.903983,159.197159 169.897692,159.166277 169.89158,159.135252 C169.882963,159.091502 169.874705,159.047466 169.8668,159.003083 L169.8448,158.872926 C169.836592,158.821678 169.828763,158.769386 169.821387,158.716469 C169.817551,158.688934 169.813935,158.661985 169.810434,158.634864 C169.791503,158.488271 169.775887,158.33608 169.763502,158.176917 C169.753379,158.046822 169.745421,157.912212 169.739531,157.771917 L169.738053,157.735471 C169.73296,157.605427 169.729614,157.470492 169.727949,157.329858 L169.726705,157.114532 L169.729514,156.794141 C169.733666,156.565362 169.742464,156.351105 169.756206,156.148172 L169.760419,156.088421 C169.77368,155.907774 169.790877,155.736756 169.812281,155.572271 C169.816412,155.540508 169.820769,155.508506 169.825289,155.476737 C169.83148,155.433207 169.838075,155.389499 169.84499,155.346198 L169.866581,155.218128 C169.873213,155.180771 169.880211,155.143092 169.88747,155.105666 C169.895423,155.06467 169.903637,155.024223 169.912165,154.984033 L169.946912,154.828974 L169.946912,154.828974 C169.974588,154.711737 170.005077,154.596203 170.038467,154.48133 L170.100119,154.28001 C170.679512,152.484178 172.005733,151.540349 173.855249,151.540349 L174.101105,151.545781 C175.307056,151.599833 176.162511,152.053261 176.640994,152.725449 L176.731656,152.86275 L176.76934,152.86275 L176.76934,152.050164 L176.776892,151.987362 C176.796677,151.908593 176.853925,151.851064 176.931759,151.831204 L176.993731,151.823628 L179.776784,151.823628 L179.838693,151.831204 C179.916369,151.851064 179.973204,151.908593 179.992831,151.987362 L180.000319,152.050164 L180.000319,161.951063 L179.99723,162.212933 C179.989782,162.525013 179.968871,162.823585 179.934573,163.108661 C179.911068,163.303924 179.88138,163.492353 179.845471,163.674488 C179.838789,163.708375 179.831945,163.741789 179.82489,163.774988 L179.792135,163.921138 C179.786769,163.943881 179.781281,163.966593 179.77569,163.9892 C179.763746,164.037494 179.751319,164.085341 179.738417,164.132706 C179.710118,164.236583 179.679616,164.337907 179.646848,164.436929 L179.61274,164.536848 L179.582434,164.620766 C179.569207,164.65647 179.555726,164.691708 179.541936,164.72663 C179.530227,164.756273 179.518523,164.785143 179.506604,164.813795 C179.493135,164.846178 179.479316,164.878453 179.465221,164.910446 C179.420891,165.011035 179.374072,165.108368 179.324553,165.202941 C179.305984,165.238403 179.287073,165.27341 179.267783,165.308031 C179.25708,165.327243 179.2462,165.34644 179.235203,165.365517 C179.185939,165.450975 179.134286,165.534065 179.080276,165.614738 L179.014773,165.709768 C178.926452,165.834242 178.832208,165.952729 178.732102,166.065177 C178.609703,166.202688 178.478297,166.331378 178.338138,166.451013 L178.242696,166.529995 L178.242696,166.529995 L178.226002,166.543317 C178.150129,166.603535 178.071855,166.661266 177.991185,166.71651 C177.96802,166.732375 177.944619,166.74806 177.921019,166.763539 L177.866243,166.798872 C177.829265,166.822329 177.791736,166.84534 177.753731,166.867857 L177.718686,166.888402 L177.718686,166.888402 L177.683192,166.908773 C177.650509,166.927327 177.617746,166.945388 177.584647,166.9631 C177.563765,166.974275 177.542784,166.985293 177.52167,166.996173 L177.413284,167.050243 C177.373878,167.069262 177.334701,167.087515 177.295097,167.105322 C177.276331,167.113761 177.257297,167.122174 177.238165,167.130485 C177.202136,167.146135 177.165852,167.161386 177.129223,167.176277 L177.037376,167.212583 C177.006377,167.224491 176.975409,167.236052 176.944205,167.247366 C176.907159,167.260803 176.869437,167.274009 176.831378,167.286863 C176.80429,167.296011 176.776974,167.305 176.749486,167.313809 C176.702575,167.328838 176.655606,167.343216 176.608148,167.357081 C176.592712,167.361591 176.576986,167.366115 176.561207,167.370582 C176.511388,167.384687 176.461059,167.398229 176.410198,167.411214 L176.330961,167.43089 C176.276928,167.443932 176.222435,167.456331 176.16736,167.468118 L176.129774,167.476048 C176.069474,167.488594 176.007897,167.500518 175.945617,167.511701 C175.930001,167.514502 175.915253,167.5171 175.900465,167.519657 C175.847327,167.52885 175.792739,167.537651 175.737628,167.5459 L175.643881,167.559329 L175.643881,167.559329 C175.62358,167.562109 175.602952,167.564849 175.582253,167.567513 L175.493418,167.578435 L175.403755,167.588438 C175.385186,167.590404 175.367004,167.592269 175.34877,167.594077 C175.212037,167.607648 175.071904,167.618121 174.928811,167.625454 C174.878028,167.628054 174.827197,167.630248 174.775998,167.632051 C174.742789,167.633222 174.709156,167.634235 174.675367,167.635081 L174.415372,167.638298 L174.165305,167.632836 L173.918059,167.615766 L173.823398,167.608287 C173.679225,167.593892 173.535239,167.574475 173.39206,167.550343 C173.359689,167.544888 173.326951,167.539118 173.294265,167.533105 C173.237571,167.522673 173.181283,167.511561 173.125189,167.499744 C173.076738,167.489538 173.028241,167.47876 172.979918,167.467464 C172.956597,167.462013 172.933317,167.456441 172.910081,167.450749 C172.848981,167.435782 172.788294,167.42002 172.727962,167.403462 C172.699135,167.395553 172.669877,167.387313 172.64071,167.378889 C172.599752,167.367056 172.559309,167.354961 172.519059,167.342515 C172.477541,167.329678 172.435882,167.316353 172.394453,167.302656 C172.347421,167.287101 172.301283,167.27128 172.25546,167.255004 C172.22267,167.243362 172.189334,167.231223 172.156178,167.218846 C172.118106,167.20463 172.080808,167.190313 172.043756,167.175697 C171.998099,167.157691 171.952421,167.139066 171.907154,167.119995 C171.871575,167.105006 171.836168,167.089706 171.801031,167.074135 C171.761034,167.056411 171.721278,167.038286 171.681895,167.019819 L171.591695,166.976605 C171.548431,166.955433 171.505369,166.933697 171.462832,166.911555 L171.360569,166.856985 C171.329484,166.839988 171.298016,166.822377 171.266881,166.804541 C171.233716,166.785539 171.201277,166.766492 171.169223,166.747203 C171.123089,166.71944 171.077849,166.691236 171.033453,166.662557 C171.013538,166.649695 170.9933,166.636409 170.973245,166.623024 C170.934016,166.596836 170.895803,166.570497 170.858314,166.5438 C170.833782,166.52633 170.809624,166.508756 170.785784,166.491035 C170.743443,166.459567 170.701741,166.427344 170.661113,166.394673 C170.646658,166.38305 170.632252,166.371298 170.617986,166.359489 C170.505512,166.266375 170.401825,166.169852 170.308079,166.070414 L170.175059,165.919133 L170.143922,165.862399 C170.110964,165.786245 170.112709,165.707139 170.154738,165.614044 L170.193901,165.541428 L171.83744,163.859081 L171.901295,163.811976 C171.942956,163.786853 171.982912,163.774292 172.021845,163.774292 L172.079563,163.783713 C172.098603,163.789994 172.117473,163.799415 172.136258,163.811976 L172.192441,163.859081 L172.366442,164.009545 L172.552933,164.156026 L172.610484,164.198158 L172.678349,164.24599 L172.713169,164.269757 L172.787059,164.317766 L172.838099,164.350741 L172.87,164.369 L172.92202,164.401402 L172.930375,164.406282 L172.983059,164.435766 L172.985059,164.436766 L173.02987,164.462148 L173.068059,164.481766 L173.121834,164.510118 L173.130385,164.514402 L173.228059,164.560766 L173.241059,164.566766 L173.317059,164.599766 L173.277,164.582 L173.315847,164.599975 L173.341059,164.609766 L173.343059,164.610766 L173.416471,164.640637 L173.424059,164.642766 L173.455999,164.65552 Z M174.013,167.623 L174.097059,167.628766 L174.047392,167.626557 L174.013,167.623 Z M173.988059,167.621766 L174.013,167.623 L173.994426,167.622981 L173.988059,167.621766 Z M173.918059,167.615766 L173.988059,167.621766 C173.958048,167.620297 173.935706,167.618516 173.913363,167.616612 L173.918059,167.615766 Z M173.893059,164.779766 L173.908897,164.783736 L173.915059,164.783766 L173.893059,164.779766 Z M173.847392,164.770764 L173.893059,164.779766 L173.865059,164.772766 L173.847392,164.770764 Z M173.774844,164.753708 L173.847392,164.770764 L173.802059,164.758766 L173.774844,164.753708 Z M173.761059,164.749766 L173.774844,164.753708 L173.771059,164.751766 L173.761059,164.749766 Z M173.744059,164.744766 L173.756059,164.747766 L173.746059,164.745766 L173.744059,164.744766 Z M173.630363,164.713971 L173.643059,164.717766 L173.641059,164.716766 L173.630363,164.713971 Z M173.573059,164.695766 L173.630363,164.713971 L173.604059,164.704766 L173.573059,164.695766 Z M173.536059,164.682766 L173.560923,164.692087 L173.542059,164.684766 L173.536059,164.682766 Z M173.497059,164.669766 L173.522793,164.679289 L173.536059,164.682766 L173.497059,164.669766 Z M173.231059,164.562766 L173.240671,164.566965 L173.261059,164.575766 L173.241059,164.566766 L173.231059,164.562766 Z M173.216291,164.555771 L173.231059,164.562766 L173.228059,164.560766 L173.216291,164.555771 Z M172.841,164.351 L172.922059,164.400766 L172.87,164.369 L172.841,164.351 Z M172.74665,164.292118 L172.816863,164.337446 L172.787059,164.317766 L172.74665,164.292118 Z M160.442297,147.231824 L160.504417,147.239401 C160.582371,147.259261 160.639452,147.31679 160.659166,147.395558 L160.666688,147.458361 L160.666688,159.437938 L160.670695,159.586668 C160.705522,160.204298 160.96859,160.475503 161.508402,160.511096 L161.637909,160.515177 L162.123947,160.515177 L162.185919,160.522816 C162.263754,160.542829 162.321002,160.600734 162.340787,160.679463 L162.348339,160.742147 L162.348339,163.06642 L162.340787,163.12904 C162.321002,163.207608 162.263754,163.265096 162.185919,163.284949 L162.123947,163.292523 L162.123947,163.311581 L160.909493,163.311581 L160.680927,163.308361 C158.438743,163.243856 157.496242,162.207361 157.437768,159.934055 L157.434852,159.702591 L157.434852,147.458361 L157.442372,147.395558 C157.462079,147.31679 157.51912,147.259261 157.596875,147.239401 L157.658816,147.231824 L160.442297,147.231824 Z M198.719015,148.441174 L198.780956,148.448752 C198.858711,148.468621 198.915752,148.526189 198.935459,148.605159 L198.942978,148.668144 L198.942978,151.710143 L198.947641,151.752868 C198.957106,151.792787 198.981402,151.82335 199.024321,151.836137 L199.073588,151.842686 L200.512005,151.842686 L200.573829,151.85026 C200.651544,151.870113 200.708958,151.927601 200.728815,152.006169 L200.736397,152.068789 L200.736397,154.015357 L200.728815,154.078009 C200.708958,154.156657 200.651544,154.214354 200.573829,154.234287 L200.512005,154.241893 L199.073588,154.241893 L199.031392,154.246609 C198.992009,154.256184 198.961968,154.280759 198.949409,154.324171 L198.942978,154.374004 L198.942978,159.381629 L198.946311,159.534479 C198.977626,160.21742 199.232605,160.479835 199.836039,160.511788 L199.970725,160.515177 L200.530847,160.515177 L200.592788,160.522816 C200.670543,160.542829 200.727584,160.600734 200.747291,160.679463 L200.75481,160.742147 L200.75481,163.06642 L200.747291,163.12904 C200.727584,163.207608 200.670543,163.265096 200.592788,163.284949 L200.530847,163.292523 L200.530847,163.273898 L199.316393,163.273898 L199.084819,163.270664 C196.737764,163.203753 195.806976,162.096175 195.751093,159.727819 L195.748399,159.49468 L195.748399,154.336753 L195.743777,154.293982 C195.734384,154.25398 195.710221,154.22324 195.66722,154.210371 L195.617789,154.203776 L194.926629,154.203776 L194.86454,154.196172 C194.786666,154.176247 194.729791,154.118591 194.710156,154.040143 L194.702666,153.977673 L194.702666,152.031105 L194.710156,151.968485 C194.729791,151.889917 194.786666,151.832429 194.86454,151.812576 L194.926629,151.805002 L195.617789,151.805002 L195.660149,151.800238 C195.699615,151.79057 195.729522,151.765776 195.742009,151.722115 L195.748399,151.672026 L195.748399,148.668144 L195.75595,148.605159 C195.775736,148.526189 195.832984,148.468621 195.910818,148.448752 L195.97279,148.441174 L198.719015,148.441174 Z M155.249177,147.269508 L155.311266,147.277145 C155.38914,147.29715 155.446015,147.355015 155.465651,147.433543 L155.473141,147.496045 L155.473141,149.706833 L155.465651,149.769818 C155.446015,149.848787 155.38914,149.906356 155.311266,149.926224 L155.249177,149.933802 L154.520762,149.933802 L154.3676,149.935912 C153.534071,149.960214 153.278301,150.20104 153.252455,150.996879 L153.25021,151.143152 L153.25021,151.710143 L153.254835,151.752823 C153.264238,151.792659 153.288442,151.823045 153.331607,151.835749 L153.381247,151.842253 L155.19308,151.842253 L155.2552,151.849859 C155.333154,151.869792 155.390235,151.927489 155.409949,152.006137 L155.417471,152.068789 L155.417471,154.015357 L155.409949,154.078009 C155.390235,154.156657 155.333154,154.214354 155.2552,154.234287 L155.19308,154.241893 L153.362405,154.241893 L153.320045,154.246609 C153.28058,154.256184 153.250672,154.280759 153.238185,154.324171 L153.231796,154.374004 L153.231796,162.933443 L153.224274,162.99646 C153.20456,163.07551 153.147479,163.133287 153.069525,163.153236 L153.007405,163.160846 L150.261608,163.179038 L150.199518,163.171462 C150.121644,163.151601 150.064769,163.094073 150.045134,163.015304 L150.037644,162.952502 L150.037644,154.393062 L150.032978,154.350426 C150.023503,154.310674 149.999166,154.280464 149.956082,154.267844 L149.906607,154.261385 L149.215447,154.261385 L149.153443,154.253715 C149.075529,154.233621 149.018075,154.175507 148.99821,154.096699 L148.990627,154.033982 L148.990627,152.087848 L148.99821,152.025045 C149.018075,151.946277 149.075529,151.888748 149.153443,151.868887 L149.215447,151.861311 L149.906607,151.861311 L149.948847,151.856637 C149.988313,151.847135 150.018528,151.822695 150.03117,151.7792 L150.037644,151.729201 L150.037644,151.180836 L150.041147,150.934418 C150.113572,148.433584 151.310336,147.338684 153.740066,147.272695 L153.979054,147.269508 L155.249177,147.269508 Z M218.856858,147.212766 L218.911111,147.218494 C218.998236,147.2375 219.065229,147.303356 219.057314,147.409433 L219.043137,147.477853 L214.036726,162.933443 L213.998637,163.008156 C213.986216,163.028365 213.972657,163.047046 213.957951,163.0639 C213.951788,163.070974 213.945252,163.077893 213.938504,163.08445 C213.928171,163.094458 213.917762,163.103306 213.906889,163.111293 C213.899644,163.11664 213.891654,163.121924 213.883427,163.12674 C213.872645,163.133036 213.861729,163.138419 213.850425,163.142979 L213.82503,163.151633 L213.822422,163.152348 L213.819802,163.153035 L213.82,163.152 L213.817,163.152 L213.816641,163.153823 L213.809059,163.154766 L213.814,163.153 L213.756665,163.160846 L211.067394,163.179038 L210.990382,163.171462 C210.897306,163.151601 210.84074,163.094073 210.797719,163.015304 L210.767634,162.952502 L205.761222,147.496045 L205.747169,147.435818 L205.747059,147.428766 L205.746059,147.385766 L205.750442,147.358889 C205.75292,147.348922 205.756442,147.339118 205.76085,147.329933 L205.770263,147.313252 L205.770263,147.313252 C205.775785,147.304815 205.782277,147.296904 205.789608,147.289653 L205.803297,147.277632 C205.811564,147.271185 205.820551,147.265445 205.830281,147.260368 L205.846892,147.252639 C205.861564,147.246585 205.877517,147.241853 205.894716,147.238434 L205.898179,147.237766 L205.931914,147.233276 L205.966772,147.231824 L208.974644,147.231824 L209.041091,147.23544 L209.092059,147.245766 L209.121683,147.25577 C209.133371,147.260754 209.144301,147.266577 209.154583,147.273314 L209.16838,147.283207 C209.179128,147.291665 209.188742,147.300841 209.197775,147.311167 L209.212034,147.329073 L209.219995,147.340616 L209.227594,147.35281 C209.232528,147.361088 209.237608,147.370532 209.242511,147.380569 L209.259384,147.419262 L209.273547,147.458361 L212.430443,157.907626 L212.505383,157.907626 L215.568497,147.439736 L215.592065,147.370283 C215.629908,147.28614 215.693888,147.235815 215.789589,147.219051 L215.8674,147.212766 L218.856858,147.212766 Z M185.717161,147.25045 L185.779133,147.25809 C185.856968,147.278111 185.914215,147.336057 185.934001,147.414986 L185.941552,147.477853 L185.941552,152.86275 L185.959966,152.86275 L186.053649,152.740581 C186.54541,152.136611 187.387942,151.642933 188.606838,151.583582 L188.855643,151.577599 L189.078331,151.582361 C189.227919,151.588831 189.373112,151.601856 189.513861,151.621197 C189.526364,151.622913 189.539527,151.624781 189.55265,151.626704 C189.678687,151.645189 189.800562,151.668647 189.918827,151.696995 L189.990336,151.714844 L190.053921,151.731929 L190.1449,151.758434 C190.199978,151.775235 190.253973,151.793079 190.307116,151.812017 L190.357294,151.830318 C190.397062,151.84516 190.43619,151.860561 190.474833,151.876571 L190.558606,151.912569 C190.592437,151.927634 190.62601,151.943242 190.659192,151.959327 L190.703433,151.981172 C190.745601,152.002378 190.787119,152.024365 190.827987,152.047122 C190.845832,152.057061 190.863304,152.067002 190.880655,152.077084 C190.91433,152.096646 190.947919,152.116974 190.981043,152.137841 L191.045728,152.179664 L191.045728,152.179664 L191.12725,152.235559 C191.150803,152.252245 191.173835,152.269024 191.196614,152.286085 L191.275055,152.346738 L191.343377,152.402815 L191.343377,152.402815 C191.367187,152.422908 191.390806,152.443436 191.414115,152.464295 C191.43638,152.48422 191.458437,152.504517 191.480208,152.525114 L191.550459,152.593617 C191.565479,152.608708 191.580565,152.624168 191.595501,152.639781 L191.683566,152.735549 L191.683566,152.735549 L191.699065,152.753209 L191.714301,152.770817 C191.738127,152.798535 191.761937,152.827188 191.785303,152.856274 L191.841204,152.927794 C191.858621,152.950687 191.87621,152.974436 191.893521,152.998446 C191.914175,153.027099 191.934246,153.055848 191.953929,153.084957 L191.97905,153.122623 L191.97905,153.122623 L192.003809,153.160794 C192.019788,153.185777 192.035383,153.210831 192.050706,153.236131 C192.067739,153.264248 192.084565,153.292895 192.101049,153.321844 L192.141631,153.395003 L192.141631,153.395003 C192.161683,153.43212 192.181149,153.469628 192.200071,153.507599 C192.206052,153.519601 192.212003,153.531701 192.2179,153.543847 L192.265453,153.645432 L192.265453,153.645432 C192.332894,153.794958 192.392279,153.950933 192.443586,154.113045 L192.469252,154.196928 L192.471059,154.203766 L192.473059,154.209766 L192.473059,154.211766 L192.478059,154.228766 L192.479523,154.232187 L192.480059,154.233766 L192.479059,154.233766 L192.482059,154.241766 L192.483059,154.245766 L192.485059,154.252766 L192.487059,154.260766 L192.495799,154.290291 C192.50436,154.321624 192.512634,154.353168 192.52062,154.38492 C192.531207,154.427 192.541372,154.469818 192.551019,154.512999 C192.568491,154.591236 192.584186,154.670195 192.598195,154.750288 C192.627886,154.919906 192.65008,155.095384 192.664558,155.275549 L192.679774,155.530747 L192.684857,155.791697 L192.684857,162.933443 L192.677337,162.99646 C192.65763,163.07551 192.600589,163.133287 192.522834,163.153236 L192.460893,163.160846 L189.65857,163.141354 L189.59663,163.133748 C189.518875,163.113815 189.461833,163.056118 189.442127,162.97747 L189.434607,162.914818 L189.434607,156.395939 L189.430669,156.22079 C189.425288,156.103223 189.414393,155.989968 189.397985,155.881377 L189.369236,155.72203 C189.347871,155.62083 189.321268,155.524225 189.289428,155.43254 L189.279059,155.405766 L189.279059,155.404766 L189.277059,155.398766 L189.273059,155.388766 L189.268059,155.374766 L189.261059,155.357766 L189.252059,155.335766 L189.252059,155.333766 L189.234059,155.290766 L189.233688,155.289339 L189.232007,155.285477 L189.223059,155.266766 L189.220059,155.259766 L189.209059,155.235766 L189.175494,155.167389 L189.158059,155.135766 L189.146059,155.114766 L189.135059,155.095766 L189.132059,155.090766 L189.130059,155.087766 L189.103661,155.042939 L189.099059,155.036766 L189.084059,155.013766 L189.081059,155.008766 L189.080059,155.007766 L189.06447,154.98413 L189.052059,154.967766 L189.02196,154.92616 L189.000059,154.898766 L188.988059,154.883766 L188.978911,154.872754 L188.965059,154.856766 L188.944059,154.832766 L188.934224,154.822201 L188.917059,154.804766 L188.906059,154.792766 L188.886059,154.772766 L188.865059,154.752766 L188.862059,154.749766 L188.846059,154.734766 L188.840381,154.729647 L188.836108,154.725819 L188.810059,154.703766 L188.786267,154.683375 L188.738059,154.645766 L188.734433,154.643221 L188.728059,154.638766 L188.717059,154.630766 L188.696059,154.615766 L188.680059,154.604766 L188.677059,154.602766 L188.628059,154.571766 L188.624059,154.569766 L188.624059,154.568766 L188.584059,154.546766 L188.556557,154.531216 L188.545059,154.525766 L188.520059,154.512766 L188.508318,154.506686 L188.492677,154.499202 C188.455089,154.481483 188.416375,154.465149 188.376537,154.450232 L188.378059,154.450766 L188.370059,154.447766 L188.367059,154.446766 L188.339059,154.436766 L188.316059,154.428766 L188.307088,154.426036 L188.302,154.424 L188.308476,154.426485 L188.294059,154.421766 L188.278059,154.416766 L188.239518,154.405783 L188.210059,154.397766 L188.206,154.396 L188.11813,154.376788 C188.038106,154.360597 187.954432,154.349214 187.867108,154.342827 L187.697287,154.336753 L187.542896,154.342237 L187.391683,154.358985 L187.357182,154.364515 L187.357182,154.364515 C187.269358,154.379467 187.185671,154.400157 187.10568,154.426437 L187.097059,154.428766 L187.091059,154.430766 L187.075099,154.436819 L187.066059,154.439766 L187.074059,154.436766 L187.056059,154.442766 L187.063059,154.440766 L187.04506,154.447683 L187.040729,154.449305 L187.037059,154.449766 L187.035059,154.450766 L186.980059,154.472766 L186.977462,154.474662 L186.972778,154.476666 L186.968059,154.477766 L186.955059,154.483766 L186.960059,154.481766 L186.923059,154.498766 L186.916796,154.502048 L186.894059,154.512766 L186.869059,154.525766 L186.84577,154.538251 L186.830059,154.546766 L186.838059,154.542766 L186.802059,154.562766 L186.797059,154.565766 L186.795059,154.566766 L186.787059,154.571766 L186.737059,154.602766 L186.730059,154.607766 L186.712059,154.619766 L186.697059,154.630766 L186.685398,154.63884 L186.663,154.654 L186.642862,154.670572 L186.627059,154.681766 L186.626059,154.682766 L186.620059,154.687766 L186.606059,154.699766 L186.601486,154.703776 L186.523059,154.772766 L186.521059,154.774766 L186.502059,154.792766 L186.475059,154.821766 L186.475059,154.820766 L186.468059,154.828766 L186.464059,154.832766 L186.431059,154.869766 L186.429059,154.871766 L186.408059,154.895766 L186.404059,154.900766 L186.384059,154.924766 L186.383059,154.925766 L186.364059,154.950766 L186.350759,154.968445 L186.339059,154.983766 L186.322059,155.007766 L186.321059,155.008766 L186.317059,155.013766 L186.303059,155.033766 L186.297059,155.042766 L186.268059,155.087766 L186.266059,155.090766 L186.257059,155.106766 L186.252059,155.114766 L186.243059,155.129766 L186.240059,155.135766 L186.231274,155.151213 L186.229059,155.154766 L186.223059,155.164766 L186.222059,155.166766 L186.200431,155.207792 L186.171059,155.266766 L186.159059,155.290766 L186.153115,155.304924 L186.139914,155.334702 L186.134059,155.346766 L186.12275,155.375508 L186.115,155.392 L186.116059,155.391766 L186.110059,155.405766 L186.1,155.432 L186.083836,155.478552 L186.080059,155.487766 L186.084,155.478 L186.075059,155.504766 L186.069651,155.520613 L186.066059,155.529766 L186.061059,155.545766 L186.05915,155.553671 L186.056059,155.561766 L186.05005,155.583827 L186.036059,155.630766 L186.034059,155.636766 L186.032037,155.648419 C186.005743,155.748109 185.985043,155.852546 185.970116,155.961399 C185.966043,155.991089 185.962381,156.021283 185.959157,156.051803 L185.946452,156.211741 L185.941552,156.395939 L185.941552,162.952502 L185.934001,163.015304 C185.914215,163.094073 185.856968,163.151601 185.779133,163.171462 L185.717161,163.179038 L182.93368,163.179038 L182.871708,163.171462 C182.793874,163.151601 182.736626,163.094073 182.71684,163.015304 L182.709289,162.952502 L182.709289,147.477853 L182.71684,147.414986 C182.736626,147.336057 182.793874,147.278111 182.871708,147.25809 L182.93368,147.25045 L185.717161,147.25045 Z M167.186029,151.823628 L167.248001,151.831204 C167.325835,151.851064 167.383083,151.908593 167.402869,151.987362 L167.41042,152.050164 L167.41042,162.933443 L167.402869,162.99646 C167.383083,163.07551 167.325835,163.133287 167.248001,163.153236 L167.186029,163.160846 L164.402548,163.160846 L164.340607,163.153236 C164.262852,163.133287 164.205811,163.07551 164.186104,162.99646 L164.178585,162.933443 L164.178585,152.050164 L164.186104,151.987362 C164.205811,151.908593 164.262852,151.851064 164.340607,151.831204 L164.402548,151.823628 L167.186029,151.823628 Z M213.809059,163.154766 L213.805532,163.156247 L213.756665,163.160846 L213.809059,163.154766 Z M227.300227,147.212766 L227.546607,147.216772 C227.700117,147.221796 227.850989,147.231524 227.999107,147.245822 C228.152779,147.260654 228.303575,147.280421 228.451273,147.304964 C228.464867,147.307223 228.47878,147.309581 228.492665,147.311982 L228.567416,147.325366 L228.567416,147.325366 L228.641314,147.339509 C228.666142,147.344414 228.691001,147.349484 228.715765,147.354693 C228.753458,147.36262 228.790938,147.370871 228.828198,147.37944 C228.869552,147.388953 228.910448,147.398811 228.951073,147.409056 C228.971012,147.414083 228.991118,147.419265 229.011157,147.424541 C229.065523,147.438858 229.119104,147.453788 229.172187,147.469399 C229.18213,147.472322 229.192525,147.47541 229.202901,147.478524 C229.263247,147.496641 229.32247,147.515484 229.38104,147.535184 C229.395573,147.540073 229.409974,147.544982 229.424336,147.549944 C229.618875,147.617149 229.806213,147.693938 229.985824,147.779802 C229.999195,147.786193 230.012948,147.792841 230.026655,147.799543 C230.071475,147.821461 230.115431,147.843753 230.1589,147.866599 C230.188584,147.882199 230.218072,147.898075 230.24733,147.914207 L230.337185,147.964974 L230.337185,147.964974 L230.425575,148.017374 C230.458459,148.037334 230.491367,148.057851 230.52395,148.078711 C230.539746,148.088827 230.555094,148.098778 230.570368,148.108807 L230.702064,148.198443 L230.702064,148.198443 C230.720323,148.211323 230.738389,148.224259 230.756342,148.237307 C230.782878,148.256592 230.80917,148.276123 230.835215,148.295897 C230.871999,148.323824 230.908327,148.352265 230.944156,148.381185 L230.992966,148.421136 C231.023467,148.446453 231.053503,148.472042 231.083163,148.497979 L231.141289,148.549688 L231.141289,148.549688 C231.173504,148.578843 231.205176,148.608339 231.236385,148.638249 L231.262318,148.6633 L231.287999,148.688507 C231.317475,148.717656 231.347197,148.74789 231.376463,148.778513 C231.395815,148.798763 231.414922,148.819133 231.433829,148.839671 C231.456472,148.864264 231.478992,148.889284 231.50122,148.914546 C231.525678,148.942349 231.549369,148.969954 231.572716,148.997838 C231.590891,149.01954 231.609263,149.041914 231.627415,149.064464 C231.652389,149.095491 231.676886,149.126772 231.700965,149.158378 C231.716851,149.179234 231.732357,149.199963 231.747685,149.220829 C231.768204,149.24876 231.7885,149.277076 231.808469,149.305636 L231.839088,149.349994 L231.869211,149.39478 L231.90573,149.450688 L231.90573,149.450688 C231.926642,149.483231 231.947145,149.516062 231.967239,149.549184 C231.991555,149.589263 232.015335,149.62988 232.038507,149.670918 C232.047294,149.686478 232.056035,149.702175 232.064687,149.717933 C232.084083,149.753259 232.10299,149.788807 232.121449,149.824654 C232.134198,149.849407 232.146825,149.874491 232.159234,149.899718 C232.170779,149.923186 232.182166,149.946846 232.193363,149.970628 L232.251229,150.098558 C232.258617,150.115577 232.265718,150.132202 232.272729,150.148883 C232.316268,150.252451 232.356453,150.358594 232.393036,150.46683 C232.428838,150.572786 232.461082,150.680337 232.489822,150.789789 C232.496025,150.813405 232.502162,150.837501 232.50813,150.861688 C232.51412,150.885977 232.519844,150.909942 232.525402,150.933995 C232.536814,150.983343 232.547675,151.033798 232.55781,151.084624 C232.587958,151.235938 232.611579,151.389676 232.628652,151.546451 C232.642524,151.673734 232.6521,151.803511 232.657227,151.935191 L232.658059,151.969766 L232.66164,152.163216 L232.656553,152.403962 C232.578747,154.234609 231.612817,155.713362 230.064543,156.48742 L229.859317,156.584358 L232.978957,162.877134 L232.996131,162.940448 C233.01331,163.042964 232.973277,163.127674 232.876189,163.153063 L232.811091,163.160846 L229.504316,163.141354 L229.418045,163.137739 C229.289551,163.125407 229.233033,163.080148 229.181227,162.980966 L229.150171,162.914818 L226.440774,157.076415 L224.32961,157.076415 L224.287415,157.081131 C224.248031,157.090705 224.21799,157.11528 224.205431,157.158692 L224.199001,157.208525 L224.199001,162.914818 L224.191479,162.97747 C224.171765,163.056118 224.114684,163.113815 224.03673,163.133748 L223.974609,163.141354 L221.023263,163.141354 L220.961291,163.133748 C220.883457,163.113815 220.826209,163.056118 220.806423,162.97747 L220.798872,162.914818 L220.798872,147.439736 L220.806423,147.376901 C220.826209,147.298052 220.883457,147.240315 220.961291,147.220374 L221.023263,147.212766 L227.300227,147.212766 Z M213.821059,163.151766 L213.82,163.152 L213.822,163.152 L213.821059,163.151766 Z M133.822797,147.212766 L133.884737,147.220374 C133.962492,147.240315 134.019534,147.298052 134.03924,147.376901 L134.04676,147.439736 L134.04676,162.914818 L134.03924,162.97747 C134.019534,163.056118 133.962492,163.113815 133.884737,163.133748 L133.822797,163.141354 L130.871878,163.141354 L130.809577,163.133748 C130.731426,163.113815 130.674305,163.056118 130.654583,162.97747 L130.647059,162.914818 L130.647059,147.439736 L130.654583,147.376901 C130.674305,147.298052 130.731426,147.240315 130.809577,147.220374 L130.871878,147.212766 L133.822797,147.212766 Z M69.9500473,152.443328 L70.0089978,152.805944 C70.3788434,154.851414 71.3553396,156.733522 72.8452982,158.232649 C74.6951777,160.093503 77.1417219,161.165702 79.7599163,161.251821 L80.1023584,161.257446 L98.0312154,161.257446 L98.242523,161.252239 C100.414642,161.144937 102.154114,159.392362 102.257542,157.206382 L102.262409,157.000214 L102.257234,156.787531 C102.150612,154.601287 100.409121,152.851088 98.2361581,152.747023 L98.0312154,152.742126 L72.4425569,152.742288 C71.6000655,152.727012 70.7614591,152.619451 69.9500473,152.443328 Z M174.900982,154.336753 L174.730269,154.342286 C174.011749,154.390188 173.566823,154.748488 173.297644,155.392092 L173.238601,155.545669 L173.198348,155.704593 C173.121628,156.029084 173.068515,156.3974 173.054905,156.880991 L173.051466,157.132724 L173.054905,157.3846 C173.070783,157.949086 173.14043,158.356421 173.238601,158.720645 C173.499992,159.460866 173.956479,159.872441 174.730269,159.924028 L174.900982,159.929561 L175.075213,159.924028 C175.807886,159.876126 176.252835,159.517826 176.508185,158.874222 L176.563791,158.720645 L176.610122,158.561577 C176.697415,158.236833 176.752039,157.868445 176.765865,157.3846 L176.76934,157.132724 L176.765865,156.880991 C176.752039,156.3974 176.697415,156.029084 176.610122,155.704593 L176.563791,155.545669 L176.511468,155.392092 C176.249607,154.69898 175.73831,154.336753 174.900982,154.336753 Z M186.079059,155.490766 L186.074059,155.504766 L186.075059,155.504766 L186.079059,155.490766 Z M141.122059,154.449766 L141.119059,154.450766 L141.12,154.45 L141.122059,154.449766 Z M141.218059,154.416766 L141.202059,154.421766 L141.206,154.42 L141.209059,154.419766 L141.218059,154.416766 Z M141.244059,154.408766 L141.218059,154.416766 L141.230174,154.413498 L141.244059,154.408766 Z M188.188,154.391 L188.206,154.396 L188.210059,154.397766 L188.231059,154.402766 L188.188,154.391 Z M227.307583,150.217443 L224.348452,150.217514 L224.306257,150.222189 C224.266873,150.23169 224.236832,150.25613 224.224273,150.299625 L224.217843,150.349625 L224.217843,154.033982 C224.217843,154.094276 224.241687,154.14265 224.299021,154.159588 L224.348452,154.166092 L227.131933,154.166092 L227.297485,154.161623 C228.435506,154.099414 229.187297,153.392308 229.256316,152.325845 L229.261511,152.163216 L229.256878,152.010298 C229.19236,150.958481 228.457992,150.250947 227.307583,150.217443 Z M167.186029,147.231824 L167.248001,147.239401 C167.325835,147.259261 167.383083,147.31679 167.402869,147.395558 L167.41042,147.458361 L167.41042,149.782634 L167.402869,149.845468 C167.383083,149.924317 167.325835,149.982054 167.248001,150.001995 L167.186029,150.009603 L164.402548,150.009603 L164.340607,150.001995 C164.262852,149.982054 164.205811,149.924317 164.186104,149.845468 L164.178585,149.782634 L164.178585,147.458361 L164.186104,147.395558 C164.205811,147.31679 164.262852,147.259261 164.340607,147.239401 L164.402548,147.231824 L167.186029,147.231824 Z M209.059,147.238 L209.072826,147.240644 L209.083059,147.242766 L209.059,147.238 Z M173.701,164.733 L173.643059,164.717766 L173.667252,164.724855 L173.701,164.733 Z M141.072,154.469 L141.070523,154.470555 L141.064059,154.472766 L141.059815,154.475079 L141.057059,154.475766 L141.052059,154.477766 L141.043059,154.481766 L141.039059,154.483766 L140.999072,154.502558 L140.977059,154.512766 L140.937398,154.533792 L140.885059,154.562766 L140.883059,154.563766 L140.881717,154.565116 L140.878116,154.567249 L140.875059,154.568766 L140.873059,154.569766 L140.872059,154.570766 L140.870059,154.571766 L140.826059,154.599766 L140.824059,154.600766 L140.821059,154.602766 L140.820059,154.603766 L140.815059,154.606766 L140.814059,154.607766 L140.796059,154.619766 L140.780059,154.630766 L140.768795,154.63884 L140.758705,154.646159 L140.748059,154.653766 L140.726269,154.670572 L140.711059,154.681766 L140.710059,154.682766 L140.704059,154.687766 L140.684905,154.703776 L140.667059,154.718766 L140.649059,154.734766 L140.632059,154.749766 L140.629059,154.752766 L140.624309,154.756995 L140.621059,154.759766 L140.607059,154.772766 L140.602059,154.776766 L140.605059,154.774766 L140.579059,154.799766 L140.560059,154.819766 L140.558059,154.821766 L140.55634,154.824016 L140.555059,154.824766 L140.551059,154.828766 L140.525059,154.856766 L140.524059,154.857766 L140.516059,154.866766 L140.515059,154.867766 L140.468491,154.924356 L140.429527,154.974795 L140.423059,154.982766 L140.405059,155.008766 L140.405059,155.007766 L140.401059,155.013766 L140.392262,155.027094 L140.388059,155.032766 L140.387059,155.033766 L140.385059,155.036766 L140.382404,155.041663 L140.381059,155.043766 L140.381059,155.042766 L140.357369,155.08018 L140.352059,155.087766 L140.351059,155.089766 L140.350059,155.090766 L140.347059,155.095766 L140.336059,155.114766 L140.327059,155.129766 L140.324139,155.135007 L140.323059,155.135766 L140.312725,155.154919 L140.306059,155.166766 L140.284399,155.207019 L140.283757,155.208246 L140.276059,155.222766 L140.264059,155.245766 L140.270059,155.235766 L140.264059,155.247766 L140.258059,155.258766 L140.258059,155.259766 L140.255059,155.265766 L140.254059,155.266766 L140.253059,155.268766 L140.251059,155.273766 L140.250059,155.274766 L140.250059,155.275766 L140.246059,155.284766 L140.244059,155.288766 L140.243059,155.289766 L140.237059,155.303766 L140.223059,155.334766 L140.218059,155.345766 L140.218059,155.346766 L140.215059,155.352766 L140.213059,155.357766 L140.212059,155.360766 L140.206059,155.374766 L140.201059,155.388766 L140.199,155.392 L140.194059,155.404766 L140.194059,155.405766 L140.192286,155.410927 L140.184059,155.431766 L140.168059,155.475766 L140.167059,155.477766 L140.164059,155.487766 L140.163059,155.490766 L140.158059,155.504766 L140.152059,155.523766 L140.150059,155.529766 L140.146059,155.544766 L140.145059,155.545766 L140.143059,155.552766 L140.140059,155.561766 L140.139059,155.566766 L140.137059,155.571766 L140.137059,155.572766 L140.126,155.611 L140.130059,155.594766 L140.120819,155.629252 L140.108382,155.676802 L140.102059,155.700766 L140.101059,155.703766 L140.097059,155.721766 L140.094969,155.733073 L140.083099,155.788398 L140.082059,155.790766 L140.080059,155.800766 L140.076059,155.823766 L140.058878,155.925967 C140.045074,156.018051 140.035459,156.113377 140.030146,156.211741 L140.029059,156.232766 L140.025249,156.395939 L140.025249,162.952502 L140.017666,163.015304 C139.997801,163.094073 139.940347,163.151601 139.862433,163.171462 L139.800429,163.179038 L137.016948,163.179038 L136.954944,163.171462 C136.877031,163.151601 136.819577,163.094073 136.799712,163.015304 L136.792129,162.952502 L136.792129,152.068789 L136.799712,152.006137 C136.819577,151.927489 136.877031,151.869792 136.954944,151.849859 L137.016948,151.842253 L139.800429,151.842253 L139.862433,151.849859 C139.940347,151.869792 139.997801,151.927489 140.017666,152.006137 L140.025249,152.068789 L140.025249,152.86275 L140.043234,152.86275 C140.547687,152.163216 141.500494,151.577599 142.938911,151.577599 L143.161636,151.582361 C143.386782,151.592098 143.601968,151.616679 143.80703,151.655292 C143.827299,151.659104 143.848251,151.663213 143.869096,151.667469 C143.914339,151.676714 143.958534,151.68652 144.002236,151.696995 C144.024819,151.702407 144.047337,151.708014 144.069722,151.7138 C144.114056,151.725259 144.157841,151.737407 144.201103,151.750244 C144.209201,151.752647 144.21721,151.755053 144.225201,151.757482 C144.281661,151.774647 144.337141,151.792963 144.391721,151.812433 C144.41738,151.821583 144.443276,151.831155 144.468967,151.840988 C144.496897,151.851684 144.524118,151.862497 144.551103,151.873607 L144.643064,151.913018 C144.676186,151.927784 144.708672,151.942883 144.740791,151.958428 L144.797016,151.986287 C144.832826,152.004451 144.867804,152.022982 144.902322,152.042061 C144.928605,152.056583 144.955076,152.071691 144.98127,152.087123 L145.045076,152.125699 C145.072812,152.142901 145.10015,152.160429 145.127166,152.178325 C145.155546,152.197127 145.183383,152.216202 145.210869,152.235674 C145.23426,152.252245 145.257291,152.269024 145.280069,152.286085 C145.302343,152.302773 145.32393,152.319379 145.345284,152.33624 C145.377989,152.362057 145.410426,152.38871 145.442306,152.415963 L145.496345,152.463207 L145.496345,152.463207 C145.516186,152.480944 145.535855,152.498971 145.555296,152.517237 C145.581542,152.541892 145.607436,152.567045 145.632914,152.592628 L145.678938,152.639781 C145.704839,152.666853 145.73046,152.694572 145.755624,152.722749 C145.775721,152.745248 145.795691,152.768234 145.815365,152.791513 C145.832251,152.811492 145.849011,152.831802 145.865549,152.852327 C145.891096,152.884038 145.915971,152.916072 145.940322,152.948608 C145.950171,152.961766 145.960013,152.975115 145.969768,152.988546 L146.037333,153.084957 L146.037333,153.084957 L146.087207,153.160794 L146.087207,153.160794 C146.103184,153.185777 146.118777,153.210831 146.134098,153.236131 C146.151128,153.264248 146.167952,153.292895 146.184434,153.321844 C146.198221,153.346062 146.211735,153.370428 146.22501,153.395003 C146.244885,153.431797 146.264182,153.468973 146.282946,153.506605 C146.289089,153.518926 146.295207,153.531362 146.301268,153.543847 C146.320426,153.583307 146.33915,153.62358 146.357283,153.664342 C146.368738,153.690099 146.379761,153.715586 146.390556,153.741258 C146.430467,153.836131 146.467471,153.934145 146.501301,154.034607 C146.510107,154.060764 146.518616,154.086824 146.526913,154.113045 L146.552573,154.196928 L146.554059,154.203766 L146.556059,154.209766 L146.556059,154.211766 L146.561059,154.228766 L146.562843,154.232187 L146.565059,154.241766 L146.566059,154.245766 L146.568059,154.252766 L146.569059,154.256766 L146.579114,154.290291 L146.603931,154.38492 L146.603931,154.38492 C146.629744,154.487541 146.652617,154.592714 146.672437,154.699961 L146.683226,154.760299 L146.693059,154.820766 L146.693059,154.821766 L146.693,154.822 L146.694059,154.823766 L146.694,154.824 L146.694,154.825 L146.694059,154.828766 L146.695059,154.832766 L146.699,154.857 L146.698,154.856 L146.7,154.866 L146.7,154.867 L146.700059,154.868766 L146.7,154.869 L146.701059,154.871766 L146.701,154.872 L146.702059,154.878766 L146.702,154.879 L146.703059,154.883766 L146.704,154.895 L146.704927,154.896031 L146.693312,154.820668 C146.704625,154.89082 146.714663,154.961818 146.723422,155.03363 C146.744329,155.205018 146.757949,155.381185 146.764184,155.561591 L146.766059,155.700766 L146.768125,155.791697 L146.768125,162.933443 L146.760605,162.99646 C146.740899,163.07551 146.683857,163.133287 146.606102,163.153236 L146.544162,163.160846 L143.741838,163.141354 L143.679898,163.133748 C143.602143,163.113815 143.545101,163.056118 143.525395,162.97747 L143.517875,162.914818 L143.517875,156.395939 L143.513937,156.22079 C143.508556,156.103223 143.497661,155.989968 143.481253,155.881377 L143.452504,155.72203 C143.43015,155.616145 143.402062,155.51529 143.368241,155.419838 C143.3543,155.380499 143.339418,155.342156 143.323567,155.304752 L143.320059,155.296766 L143.314059,155.283766 L143.310059,155.274766 L143.307059,155.268766 L143.306059,155.265766 L143.303059,155.259766 L143.303466,155.258971 L143.292059,155.235766 L143.286059,155.222766 L143.284059,155.218766 L143.284059,155.217766 L143.282376,155.21416 L143.279059,155.207766 L143.278059,155.206766 L143.257059,155.164766 L143.256059,155.161766 L143.254081,155.158502 L143.250059,155.150766 L143.241059,155.134766 L143.238059,155.129766 L143.225059,155.106766 L143.224059,155.104766 L143.221297,155.099476 L143.216059,155.090766 L143.215866,155.090201 L143.214059,155.087766 L143.209059,155.079766 L143.187059,155.043766 L143.187059,155.042766 L143.185059,155.040766 L143.183059,155.036766 L143.177079,155.027626 L143.164059,155.008766 L143.152059,154.991766 L143.147059,154.983766 L143.146059,154.982766 L143.145059,154.980766 L143.137,154.968 L143.140059,154.974766 L143.123059,154.950766 L143.109059,154.931766 L143.105059,154.925766 L143.103059,154.923766 L143.102059,154.921766 L143.089059,154.905766 L143.085059,154.900766 L143.083059,154.898766 L143.081059,154.895766 L143.071059,154.883766 L143.067059,154.878766 L143.061059,154.871766 L143.058708,154.868658 L143.049059,154.857766 L143.048059,154.856766 L143.027059,154.832766 L143.020419,154.825373 L143.019059,154.823766 L143.015059,154.819766 L142.989059,154.792766 L142.962283,154.765713 L142.942059,154.746766 L142.929059,154.734766 L142.928059,154.733766 L142.926712,154.732411 L142.923059,154.728766 L142.919059,154.725766 L142.894059,154.703766 L142.889059,154.699766 L142.871059,154.684766 L142.868059,154.682766 L142.867059,154.681766 L142.861059,154.676766 L142.852059,154.669766 L142.851059,154.668766 L142.824835,154.648522 L142.821059,154.645766 L142.813059,154.639766 L142.809562,154.637258 L142.800059,154.630766 L142.755485,154.599821 L142.71026,154.571242 L142.707059,154.568766 L142.668059,154.546766 L142.661059,154.542766 L142.656059,154.539766 L142.645059,154.533766 L142.621059,154.521766 L142.604059,154.512766 L142.588082,154.504989 L142.522811,154.475399 L142.458291,154.449666 L142.422059,154.436766 L142.400059,154.428766 L142.394059,154.426766 L142.386159,154.424687 L142.360059,154.416766 L142.322786,154.405783 L142.292059,154.397766 L142.285,154.395 L142.197886,154.376081 C142.118926,154.360265 142.036423,154.34912 141.950377,154.342827 L141.780555,154.336753 L141.626167,154.342237 L141.47494,154.358988 C141.461586,154.361002 141.448313,154.363149 141.435122,154.365431 L141.327059,154.386766 L141.31393,154.390696 L141.209059,154.419766 L141.206,154.42 L141.158059,154.436766 L141.174059,154.430766 L141.157059,154.436766 L141.145059,154.440766 L141.125059,154.448766 L141.121667,154.450203 L141.12,154.45 L141.099,154.458 L141.094,154.46 L141.072,154.469 Z" id="Combined-Shape"></path>
        </g>
    </g>
</svg>