<svg width="64" height="64" viewBox="0 0 64 64" fill="none" xmlns="http://www.w3.org/2000/svg">
<path d="M0 8C0 3.58172 3.58172 0 8 0H56C60.4183 0 64 3.58172 64 8V56C64 60.4183 60.4183 64 56 64H8C3.58172 64 0 60.4183 0 56V8Z" fill="white"/>
<path d="M32.9844 48.6289C32.9844 52.9153 30.0601 56 26.013 56C21.9647 56 18.9997 52.9153 18.9997 48.6289V44.3412C18.9997 40.0535 22.0844 36.9688 26.0118 36.9688H28.6165C31.3804 36.9688 32.9844 35.366 32.9844 32.6009V26.3119C32.9844 23.548 31.3804 21.9834 28.6165 21.9834H26.8138C22.0856 21.9834 18.9997 18.8988 18.9997 14.9714C18.9997 11.0847 22.0844 8 26.0118 8C29.8985 8 32.9844 11.0847 32.9844 15.3711V17.6143C32.9844 20.3782 34.5884 21.9822 37.3523 21.9822H44.4446C46.0066 21.9822 46.9284 22.9039 46.9284 24.466V34.4825C46.9284 36.0446 46.0066 36.9663 44.4446 36.9663H37.3523C34.5884 36.9663 32.9844 38.5284 32.9844 41.2947V48.6301V48.6289Z" fill="black"/>
</svg>
