<svg width="64" height="64" viewBox="0 0 64 64" fill="none" xmlns="http://www.w3.org/2000/svg">
<path d="M0 8C0 3.58172 3.58172 0 8 0H56C60.4183 0 64 3.58172 64 8V56C64 60.4183 60.4183 64 56 64H8C3.58172 64 0 60.4183 0 56V8Z" fill="#13111C"/>
<path d="M10.2044 28.8278C10.0995 29.5625 10.0313 30.3019 10 31.0433H43.4211C43.3043 30.8153 43.1476 30.6097 42.9894 30.4086C37.2759 23.0269 34.2024 23.6669 29.8058 23.4794C28.34 23.4191 27.3459 23.3949 21.5112 23.3949C18.3884 23.3949 14.9934 23.4028 11.6874 23.4117C11.2594 24.5668 10.8467 25.6865 10.6457 26.5974H27.7718V28.8278H10.2044ZM43.6845 33.276H10.0171C10.0524 33.8712 10.1079 34.4584 10.1881 35.0377H41.2712C42.6569 35.0377 43.4325 34.2515 43.6844 33.276H43.6845ZM11.9343 41.1225C11.9343 41.1225 17.0873 53.7753 31.9768 54C40.8761 54 48.5228 48.7146 51.9962 41.1225H11.9343Z" fill="white"/>
<path d="M31.9762 10C23.7476 10 16.5872 14.5186 12.8059 21.1982C15.7609 21.192 21.5159 21.1885 21.5159 21.1885H21.5172V21.1863C28.3195 21.1863 28.5724 21.2166 29.9012 21.2721L30.724 21.3025C33.59 21.398 37.1127 21.7057 39.8845 23.8028C41.3891 24.9402 43.5614 27.4507 44.8563 29.2392C46.0535 30.8935 46.3979 32.7951 45.5839 34.6171C44.8347 36.2916 43.2227 37.2904 41.2706 37.2904H10.7168C10.7168 37.2904 10.8987 38.0614 11.1714 38.9125H52.8782C53.6189 36.6863 53.9975 34.3556 53.9996 32.0094C54.0001 19.8551 44.1397 10 31.9762 10Z" fill="white"/>
</svg>
