<svg width="64" height="64" viewBox="0 0 64 64" fill="none" xmlns="http://www.w3.org/2000/svg">
<path opacity="0.9" d="M32.0893 63.9466C14.2618 63.9466 0 49.9584 0 32.4733C0 15.163 14.2618 1 32.0893 1H52.2339C58.8301 1 64 6.24557 64 12.5402V32.4733C64 49.9584 49.7382 63.9466 32.0893 63.9466Z" fill="#F25733"/>
<path d="M31.8382 18.8483C18.5225 18.8483 11.022 29.8747 10.7092 30.3441C9.93799 31.5003 9.93799 32.9955 10.7098 34.1526C11.022 34.6211 18.5225 45.6477 31.8382 45.6477C45.1538 45.6477 52.6546 34.6211 52.9672 34.1517C53.7384 32.9955 53.7384 31.5003 52.9666 30.3433C52.6543 29.8747 45.1538 18.8483 31.8382 18.8483ZM12.5523 32.9235C12.2785 32.5133 12.2785 31.9828 12.5523 31.5723C12.8038 31.1947 18.144 23.3506 27.6917 21.4689C23.3652 23.1391 20.2866 27.3394 20.2866 32.248C20.2866 37.1565 23.3652 41.3568 27.6917 43.0269C18.144 41.1453 12.8038 33.3011 12.5523 32.9235ZM26.515 32.248C26.515 32.8595 26.0192 33.3552 25.4075 33.3552C24.7958 33.3552 24.3001 32.8595 24.3001 32.248C24.3001 28.0915 27.6816 24.7099 31.8381 24.7099C32.4498 24.7099 32.9454 25.2056 32.9454 25.8174C32.9454 26.4291 32.4498 26.9247 31.8381 26.9247C28.9029 26.9247 26.515 29.3126 26.515 32.248ZM31.8382 34.9402C30.3536 34.9402 29.1459 33.7325 29.1459 32.248C29.1459 30.7634 30.3536 29.5556 31.8382 29.5556C33.323 29.5556 34.5307 30.7633 34.5307 32.248C34.5307 33.7325 33.323 34.9402 31.8382 34.9402ZM51.124 32.9235C50.8725 33.3011 45.5323 41.1453 35.9848 43.0269C40.3115 41.3568 43.3899 37.1565 43.3899 32.248C43.3899 27.3395 40.3115 23.1391 35.9848 21.469C45.5323 23.3507 50.8725 31.1948 51.124 31.5723C51.3979 31.9828 51.3979 32.5133 51.124 32.9235Z" fill="#F9F2F9"/>
</svg>
