<svg width="64" height="64" viewBox="0 0 64 64" fill="none" xmlns="http://www.w3.org/2000/svg">
<path d="M60.5391 33.3913C58.9603 29.8888 55.1878 27.8281 51.376 28.6494L44.2341 16.7844C46.8722 14.3244 47.6803 10.3025 46.1597 6.92188C44.7928 3.94062 41.8472 2 38.6335 2C37.4203 2 36.2653 2.26062 35.1478 2.80062C31.606 4.48063 29.7197 8.46312 30.5278 12.3031L16.3603 19.865C13.9922 17.2456 10.0078 16.385 6.81283 17.9244C4.79158 18.8863 3.27096 20.6056 2.50033 22.7469C1.74988 24.8613 1.84664 27.1841 2.77033 29.2288C4.42596 32.8906 8.54533 34.9512 12.4153 33.8506L19.5553 47.5344C17.1685 50.0356 16.4953 53.8363 17.9578 57.0781C19.306 60.0594 22.2703 62 25.4653 62C26.6785 62 27.8335 61.7394 28.951 61.1994C32.3578 59.5794 34.2628 55.8181 33.6272 52.0569L46.6791 42.4138C48.9891 45.275 53.1291 46.295 56.5172 44.6938C57.5224 44.2152 58.4216 43.5403 59.1619 42.7088C59.9022 41.8774 60.4686 40.9062 60.8278 39.8525C61.5733 37.7428 61.4698 35.426 60.5391 33.3913V33.3913ZM12.7997 26.5681C12.5485 27.2694 12.0685 27.8094 11.4141 28.1281C10.7636 28.4204 10.0239 28.4435 9.35641 28.1924C8.68895 27.9412 8.14797 27.4361 7.85158 26.7875C7.55781 26.1304 7.53025 25.3851 7.77471 24.7081C8.02596 24.0069 8.50596 23.4669 9.16033 23.1462C9.52596 22.9662 9.91221 22.8875 10.2966 22.8875C11.3353 22.8875 12.2991 23.5062 12.7416 24.4681C13.0116 25.1469 13.0491 25.8875 12.7997 26.5681V26.5681ZM44.8322 38.2119L31.7222 47.8963C31.2155 47.2952 30.6259 46.7693 29.971 46.3344L38.3241 19.0062C38.9841 19.025 39.6441 18.965 40.2891 18.8262L47.431 30.6687C46.4279 31.6279 45.6687 32.8129 45.2166 34.1251C44.7646 35.4372 44.6328 36.8384 44.8322 38.2119V38.2119ZM18.3816 23.8681L32.5697 16.3044C33.0497 16.8256 33.5691 17.285 34.1672 17.6656L25.8122 44.9938C24.9875 44.9583 24.1623 45.0532 23.3672 45.275L16.2253 31.5894C17.1816 30.5722 17.8772 29.3385 18.2527 27.9938C18.6282 26.6492 18.6724 25.2336 18.3816 23.8681V23.8681ZM41.1553 11.4425C40.9041 12.1231 40.4241 12.6837 39.7678 12.9837C38.4403 13.6044 36.8035 12.9837 36.2072 11.6637C35.9135 11.006 35.886 10.2601 36.1303 9.5825C36.3816 8.88313 36.8616 8.34125 37.516 8.0225C38.8453 7.38125 40.4803 8.0225 41.0785 9.36313C41.3672 10.0231 41.386 10.7637 41.1553 11.4425ZM22.9435 52.5575C23.1947 51.8563 23.6747 51.3163 24.331 50.9956C24.6966 50.8156 25.0622 50.7369 25.4653 50.7369C26.506 50.7369 27.4678 51.3575 27.9103 52.3175C28.1991 52.9775 28.2385 53.7162 27.9872 54.3969C27.8701 54.7329 27.6872 55.0422 27.4493 55.3068C27.2114 55.5714 26.9233 55.786 26.6016 55.9381C25.2535 56.5775 23.6372 55.9381 23.041 54.5975C22.8914 54.2806 22.8059 53.9372 22.7891 53.5872C22.7724 53.2372 22.8248 52.8873 22.9435 52.5575V52.5575ZM55.5535 37.8913C55.4368 38.2301 55.2543 38.5425 55.0166 38.8105C54.7788 39.0785 54.4903 39.2969 54.1678 39.4531C52.8403 40.0925 51.2035 39.4531 50.6072 38.1125C50.3126 37.4622 50.285 36.7223 50.5303 36.0519C50.647 35.7131 50.8294 35.4007 51.0672 35.1326C51.305 34.8646 51.5935 34.6462 51.916 34.49C52.2816 34.31 52.6472 34.2313 53.0522 34.2313C54.091 34.2313 55.0528 34.85 55.4953 35.8119C55.7653 36.4738 55.786 37.2144 55.5535 37.8913V37.8913Z" fill="#F94D4C"/>
</svg>
