<?xml version="1.0" encoding="UTF-8"?><svg id="a" xmlns="http://www.w3.org/2000/svg" viewBox="0 0 742 784"><defs><style>.b{fill:#4568a5;}.b,.c{fill-rule:evenodd;}.c{fill:#608bd8;}</style></defs><path class="b" d="M526.4,504.35c.09-.05,.18-.1,.26-.15,12.69-7.46,17.08-23.73,10.22-36.75l-31.78-60.28-239.3,126.16,85.61,49.42c12.13,7,27.07,7,39.19,0l135.81-78.4Z"/><path class="b" d="M239.09,439.33l191.98-214.71-40.48-23.37c-12.13-7-27.07-7-39.19,0l-135.81,78.4c-12.13,7-19.6,19.94-19.6,33.94v29.41c0,36.78,15.67,71.81,43.09,96.32h0Z"/><path class="c" d="M526.4,279.65l-4.58-2.65-109.55,100.72,91.88,79.62c14.48,12.55,19.81,30.86,14.26,51.62l8-4.62c12.13-7,19.6-19.94,19.6-33.94v-156.81c0-14-7.47-26.94-19.6-33.94Z"/><path class="c" d="M366.3,420.72l-126.59-97.66c-14.27-11.03-20.73-27.61-17.78-47.06l-6.34,3.66c-12.13,7-19.6,19.94-19.6,33.94v156.81c0,14,7.47,26.94,19.6,33.94l36.26,20.93,114.45-104.56Z"/></svg>