<svg width="28" height="24" fill="none" xmlns="http://www.w3.org/2000/svg">
<path d="M0 12c0 .526.138 1.052.406 1.505l4.856 8.409c.498.858 1.255 1.56 2.196 1.874a3.94 3.94 0 0 0 4.69-1.763l1.172-2.031L8.695 12l4.883-8.465 1.173-2.03A4.78 4.78 0 0 1 16.126 0H8.594C7.274 0 6.055.702 5.4 1.846l-4.994 8.65A2.968 2.968 0 0 0 0 12Z" id="logo-icon" fill="#6363F1"></path>
<path d="M27.692 12c0-.526-.138-1.053-.406-1.505l-4.92-8.52a3.962 3.962 0 0 0-4.69-1.763c-.94.314-1.698 1.015-2.196 1.874l-1.108 1.91L18.997 12l-4.883 8.464-1.173 2.031c-.35.6-.821 1.108-1.375 1.505h7.532c1.32 0 2.539-.702 3.194-1.846l4.994-8.65c.268-.452.406-.978.406-1.504Z" id="logo-icon" fill="#6363F1"></path>
</svg>