<?xml version="1.0" encoding="utf-8"?>
<!-- Generator: Adobe Illustrator 24.1.2, SVG Export Plug-In . SVG Version: 6.00 Build 0)  -->
<svg version="1.1" id="Ebene_1" xmlns="http://www.w3.org/2000/svg" xmlns:xlink="http://www.w3.org/1999/xlink" x="0px" y="0px"
	 viewBox="0 0 966.31 1000" style="enable-background:new 0 0 966.31 1000;" xml:space="preserve">
<style type="text/css">
	.st0{fill:#FFFFFF;}
</style>
<g>
	<path class="st0" d="M466.17,369.73c0,62.83-50.92,113.74-113.73,113.74c-62.83,0-113.74-50.92-113.74-113.74
		c0-62.81,50.92-113.73,113.74-113.73C415.26,256.01,466.17,306.92,466.17,369.73 M540.4,369.73c0-103.8-84.15-187.95-187.95-187.95
		c-103.82,0-187.97,84.15-187.97,187.95c0,103.82,84.15,187.97,187.97,187.97C456.25,557.7,540.4,473.55,540.4,369.73
		 M850.53,870.08H101.91l-0.05-142.7c0,0,97.42,73.07,242.02,73.07c241.05,0,436.47-195.41,436.47-436.47
		c0-89.71-23.63-166.67-73.45-242.78l143.64,0.25V870.08z M706.7,363.98c0,200.39-162.43,362.84-362.82,362.84
		c-88.02,0-177.73-33.69-241.95-92.49c-0.02-1.34-0.02-512.87-0.02-512.87l512.03,0.04C613.94,121.49,706.7,212.81,706.7,363.98
		 M925.16,45.94H27.53v897.63h897.63V45.94z"/>
</g>
</svg>
