<svg xmlns="http://www.w3.org/2000/svg" xmlns:xlink="http://www.w3.org/1999/xlink" viewBox="0 0 60.17 44.86"><defs><style>.cls-1{fill:none;stroke:#5724b1;stroke-linecap:round;stroke-linejoin:round;stroke-width:2.43px;}.cls-2{fill-rule:evenodd;fill:url(#radial-gradient);}</style><radialGradient id="radial-gradient" cx="-787.09" cy="521.48" r="1" gradientTransform="matrix(0, -47.81, -38.86, 0, 20294.39, -37586.62)" gradientUnits="userSpaceOnUse"><stop offset="0" stop-color="#33fdd8"/><stop offset="0.61" stop-color="#7a4aff"/><stop offset="1" stop-color="#45108a"/></radialGradient></defs><g id="Layer_2" data-name="Layer 2"><g id="Layer_1-2" data-name="Layer 1"><path class="cls-1" d="M25.85,3.47l-1.3-2.26"/><path class="cls-1" d="M34.33,3.47l1.3-2.26"/><path class="cls-2" d="M25.16,13A5.07,5.07,0,0,1,35,13a8.65,8.65,0,0,0-4.94,3.53A8.67,8.67,0,0,0,25.16,13Zm-2.89-.3a8,8,0,0,1,15.65,0H58.73a1.44,1.44,0,0,1,1.44,1.4h0v.21c0,.13,0,.3,0,.52a12.57,12.57,0,0,1-.29,1.73,13.71,13.71,0,0,1-2.47,5.16,16.16,16.16,0,0,1-6.16,4.79,20.56,20.56,0,0,1,1,10.29A1.43,1.43,0,0,1,51.17,38l-.34-1.38L51.17,38h-.06L51,38l-.48.08a16.74,16.74,0,0,1-1.7.2A21.72,21.72,0,0,1,43.12,38a20.34,20.34,0,0,1-5.2-1.73,15.94,15.94,0,0,1-7.12,8.43,1.46,1.46,0,0,1-1.43,0,15.89,15.89,0,0,1-7.11-8.42A20.69,20.69,0,0,1,17.06,38a21.64,21.64,0,0,1-5.66.33c-.72,0-1.3-.13-1.71-.2L9.22,38l-.14,0H9l.34-1.38L9,38a1.43,1.43,0,0,1-1.09-1.19A20.53,20.53,0,0,1,9,26.5a16.4,16.4,0,0,1-6.17-4.8A13.87,13.87,0,0,1,.32,16.54,12.57,12.57,0,0,1,0,14.81c0-.22,0-.39,0-.52v-.21H0l1.44,0L0,14.07a1.44,1.44,0,0,1,1.44-1.4ZM10.18,23.9A13.41,13.41,0,0,1,5.09,20a11,11,0,0,1-2-4.09c0-.12,0-.24-.07-.35H18.24a26.75,26.75,0,0,0-6.78,6.37A18.31,18.31,0,0,0,10.18,23.9Zm2.73,1c.28-.47.58-.92.89-1.36a27.57,27.57,0,0,1,10-8,5.74,5.74,0,0,1,4.86,5.65,1.45,1.45,0,0,0,2.89,0,5.73,5.73,0,0,1,4.85-5.65,27.49,27.49,0,0,1,10,8,15.12,15.12,0,0,1,.89,1.36,33.66,33.66,0,0,1-9.51,1.2,1.44,1.44,0,0,0-1.44,1.58h0v.07c0,.07,0,.17,0,.31s0,.69,0,1.2a21.28,21.28,0,0,1-.23,2.45,20.25,20.25,0,0,1-4.8-5.46,1.45,1.45,0,0,0-2.47,0,20.5,20.5,0,0,1-4.81,5.47,19.39,19.39,0,0,1-.23-2.46,11.22,11.22,0,0,1,0-1.2c0-.14,0-.24,0-.31v-.07h0a1.44,1.44,0,0,0-.36-1.11,1.48,1.48,0,0,0-1.08-.47A33.28,33.28,0,0,1,12.91,24.93Zm-1.26,2.61a17.27,17.27,0,0,0-1,7.82l.93.09a19.23,19.23,0,0,0,4.92-.29,17.37,17.37,0,0,0,4.91-1.71,21.87,21.87,0,0,1-.5-4.07c0-.14,0-.28,0-.41A34.07,34.07,0,0,1,11.65,27.54Zm13.14,7.23a13.25,13.25,0,0,0,5.3,7,13.3,13.3,0,0,0,5.3-7,22,22,0,0,1-5.3-5.17A21.82,21.82,0,0,1,24.79,34.77Zm14-1.32a17.49,17.49,0,0,0,4.93,1.71,19.18,19.18,0,0,0,4.91.29l.93-.09a17.34,17.34,0,0,0-1-7.83A34.06,34.06,0,0,1,39.25,29c0,.13,0,.27,0,.41A22,22,0,0,1,38.74,33.45ZM50,23.9A13.32,13.32,0,0,0,55.08,20a10.86,10.86,0,0,0,2-4.09c0-.12.06-.24.08-.35H42a26.92,26.92,0,0,1,6.78,6.37A21.89,21.89,0,0,1,50,23.9Z"/></g></g></svg>