<svg width="150" height="150" viewBox="0 0 150 150" fill="none" xmlns="http://www.w3.org/2000/svg">
<rect width="150" height="150" rx="36" fill="url(#paint0_linear_123_10)"/>
<path d="M74.8106 79.1637L67.9844 75.1812L75.1894 70.9765L82.0156 74.9589L74.8106 79.1637ZM130 93.0992V61.0173L102.494 44.9763L85.2361 55.0467L92.0622 59.0291L102.494 52.9412L123.168 64.9997V89.1167L102.5 101.175L92.1356 95.1306L81.8261 89.1167L75 85.1343L47.4267 69.0563L54.3506 65.0182L47.5244 61.0358L37.1906 67.0681V79.1266L44.0167 83.1091V75.033L64.7639 87.1348L71.59 91.1172L75 93.1054L88.7194 101.107L102.5 109.146L130 93.0992V93.0992ZM106.008 75.1257L75 57.041L60.3822 48.5142L47.5 41L20 57.041V89.1229L47.5061 105.164L64.7639 95.0935L57.9378 91.1111L47.5061 97.199L26.8322 85.1405V61.0234L47.5 48.9649L56.9722 54.491L68.1739 61.0234L75 65.0059L102.592 81.0963L95.6678 85.1343L102.494 89.1167L112.828 83.0844V71.0259L106.002 67.0434V75.1195L106.008 75.1257Z" fill="white"/>
<defs>
<linearGradient id="paint0_linear_123_10" x1="0" y1="0" x2="150" y2="150" gradientUnits="userSpaceOnUse">
<stop stop-color="#42CAF5"/>
<stop offset="1" stop-color="#AA00FF"/>
</linearGradient>
</defs>
</svg>
