<svg width="256" height="256" viewBox="0 0 256 256" fill="none" xmlns="http://www.w3.org/2000/svg">
<path d="M232 128H206C206 106.463 197.276 86.9633 183.149 72.8511C169.037 58.7244 149.537 50 128 50C106.463 50 86.9634 58.7244 72.8512 72.8511L54.4634 54.4633C73.2845 35.6422 99.2845 24 128 24C156.716 24 182.716 35.6422 201.537 54.4633C220.358 73.2844 232 99.2844 232 128Z" fill="#01CCF5"/>
<path d="M201.537 201.537C182.716 220.358 156.716 232 128 232C99.2845 232 73.2845 220.358 54.4633 201.537C35.6422 182.716 24 156.716 24 128H50C50 149.537 58.7245 169.037 72.8511 183.149C86.9633 197.276 106.463 206 128 206C149.537 206 169.037 197.276 183.149 183.149L201.537 201.537Z" fill="#FE64D8"/>
<path d="M91.2246 91.2245C101.379 81.0845 114.697 76 128 75.9856C141.303 76 154.621 81.07 164.776 91.2245C174.916 101.379 180 114.697 180.015 128C180 141.303 174.93 154.621 164.776 164.776C154.621 174.916 141.303 180 128 180.014C114.697 180 101.379 174.93 91.2246 164.776L128 128L91.2246 91.2245Z" fill="#718096"/>
</svg>
