<svg width="32" height="33" viewBox="0 0 32 33" fill="none" xmlns="http://www.w3.org/2000/svg">
<path d="M3.16683 13.6667C2.1535 13.6667 1.3335 14.4867 1.3335 15.5V17.5C1.3335 18.5133 2.1535 19.3333 3.16683 19.3333C4.18016 19.3333 5.00016 18.5133 5.00016 17.5V15.5C5.00016 14.4867 4.18016 13.6667 3.16683 13.6667Z" fill="#0066D9"/>
<path d="M28.8333 13.6667C27.82 13.6667 27 14.4867 27 15.5V17.5C27 18.5133 27.82 19.3333 28.8333 19.3333C29.8467 19.3333 30.6667 18.5133 30.6667 17.5V15.5C30.6667 14.4867 29.8467 13.6667 28.8333 13.6667Z" fill="#4285F4"/>
<path d="M9.50033 19.6667C8.48699 19.6667 7.66699 20.4867 7.66699 21.5V23.5C7.66699 24.5133 8.48699 25.3333 9.50033 25.3333C10.5137 25.3333 11.3337 24.5133 11.3337 23.5V21.5C11.3337 20.4867 10.5137 19.6667 9.50033 19.6667Z" fill="#EA4335"/>
<path d="M9.50033 7.66667C8.48699 7.66667 7.66699 8.48667 7.66699 9.50001V16.0417H7.66866C7.69199 17.035 8.50199 17.8333 9.50033 17.8333C10.4987 17.8333 11.3087 17.035 11.332 16.0417H11.3337V9.50001C11.3337 8.48667 10.5137 7.66667 9.50033 7.66667Z" fill="#EA4335"/>
<path d="M22.5003 7.66667C21.487 7.66667 20.667 8.48667 20.667 9.50001V11.5C20.667 12.5133 21.487 13.3333 22.5003 13.3333C23.5137 13.3333 24.3337 12.5133 24.3337 11.5V9.50001C24.3337 8.48667 23.5137 7.66667 22.5003 7.66667Z" fill="#34A853"/>
<path d="M16.0003 1.83333C14.987 1.83333 14.167 2.65333 14.167 3.66666V5.66666C14.167 6.67999 14.987 7.49999 16.0003 7.49999C17.0137 7.49999 17.8337 6.67999 17.8337 5.66666V3.66666C17.8337 2.65333 17.0137 1.83333 16.0003 1.83333Z" fill="#FAB908"/>
<path d="M16.0003 25.5C14.987 25.5 14.167 26.32 14.167 27.3333V29.3333C14.167 30.3467 14.987 31.1667 16.0003 31.1667C17.0137 31.1667 17.8337 30.3467 17.8337 29.3333V27.3333C17.8337 26.32 17.0137 25.5 16.0003 25.5Z" fill="#FAB908"/>
<path d="M22.5003 15.1667C21.487 15.1667 20.667 15.9867 20.667 17V23.5C20.667 24.5133 21.487 25.3333 22.5003 25.3333C23.5137 25.3333 24.3337 24.5133 24.3337 23.5V17C24.3337 15.9867 23.5137 15.1667 22.5003 15.1667Z" fill="#34A853"/>
<path d="M17.8337 11.1667C17.8337 10.1533 17.0137 9.33333 16.0003 9.33333C14.987 9.33333 14.167 10.1533 14.167 11.1667V15.6117V17.39V21.8333C14.167 22.8467 14.987 23.6667 16.0003 23.6667C17.0137 23.6667 17.8337 22.8467 17.8337 21.8333V17.3883V15.6117V11.1667Z" fill="#FAB908"/>
</svg>
