<svg width="32" height="32" viewBox="0 0 32 32" fill="none" xmlns="http://www.w3.org/2000/svg">
<path fill-rule="evenodd" clip-rule="evenodd" d="M16 32C7.1332 32 0 24.8668 0 16C0 7.1332 7.1332 0 16 0C24.8668 0 32 7.1332 32 16C32 24.8668 24.8668 32 16 32ZM16 25.6668L17.2 24.4668L16 19.8668L14.8 24.4668L16 25.6668ZM14.4668 25.6L13.8668 27.8668L15.2668 26.4668L14.4668 25.6ZM17.5332 25.6L16.7332 26.4L18.1332 27.8L17.5332 25.6ZM18.6668 29.7332L16 27.0668L13.3332 29.7332C14.2 29.8668 15.0668 30 16 30C16.9332 30 17.8 29.9332 18.6668 29.7332ZM16 2C8.2668 2 2 8.2668 2 16C2 22.1332 5.9332 27.3332 11.4 29.2L14.4 18.0668C13.7332 17.6 13.3332 16.8 13.3332 15.9332C13.3332 14.4668 14.5332 13.2668 16 13.2668C17.4668 13.2668 18.6668 14.4668 18.6668 15.9332C18.6668 16.8 18.2668 17.5332 17.6 18.0668L20.6 29.2C26.0668 27.3332 30 22.1332 30 16C30 8.2668 23.7332 2 16 2ZM25.1332 22.9332C24.8 23.3332 24.2 23.4668 23.7332 23.1332C23.2668 22.8 23.2 22.2 23.5332 21.8C23.5332 21.8 25.3332 19.4 25.3332 16C25.3332 12.6 23.5332 10.2 23.5332 10.2C23.2 9.8 23.2668 9.2 23.7332 8.8668C24.2 8.5332 24.8 8.6668 25.1332 9.0668C25.2668 9.2 27.3332 11.9332 27.3332 16C27.3332 20.0668 25.2668 22.8 25.1332 22.9332ZM20.2668 20.3332C19.8668 19.9332 19.9332 19.2 20.3332 18.8C20.3332 18.8 21.3332 17.7332 21.3332 16C21.3332 14.2668 20.3332 13.2668 20.3332 13.2C19.9332 12.8 19.9332 12.1332 20.2668 11.6668C20.6668 11.2 21.2668 11.2 21.6668 11.6C21.7332 11.6668 23.3332 13.3332 23.3332 16C23.3332 18.6668 21.7332 20.3332 21.6668 20.4C21.2668 20.8 20.6668 20.7332 20.2668 20.3332ZM11.7332 20.3332C11.3332 20.7332 10.7332 20.8 10.3332 20.4C10.2668 20.2668 8.6668 18.6668 8.6668 16C8.6668 13.3332 10.2668 11.7332 10.3332 11.6C10.7332 11.2 11.4 11.2 11.7332 11.6668C12.1332 12.0668 12.0668 12.8 11.6668 13.2C11.6668 13.2668 10.6668 14.2668 10.6668 16C10.6668 17.7332 11.6668 18.8 11.6668 18.8C12.0668 19.2 12.1332 19.8668 11.7332 20.3332ZM8.2668 23.1332C7.8 23.4668 7.2 23.3332 6.8668 22.9332C6.7332 22.8 4.6668 20.0668 4.6668 16C4.6668 11.9332 6.7332 9.2 6.8668 9.0668C7.2 8.6668 7.8 8.5332 8.2668 8.8668C8.7332 9.2 8.8 9.8 8.4668 10.2C8.4668 10.2 6.6668 12.6 6.6668 16C6.6668 19.4 8.4668 21.8 8.4668 21.8C8.8 22.2 8.6668 22.8 8.2668 23.1332Z" fill="#FC7E0F"/>
</svg>
