<svg width="32" height="32" viewBox="0 0 32 32" fill="none" xmlns="http://www.w3.org/2000/svg">
<path fill-rule="evenodd" clip-rule="evenodd" d="M25.4644 14.1843C26.1738 14.6066 27.093 14.3722 27.5149 13.661C27.9365 12.9511 27.7033 12.0326 26.9919 11.6104C21.0546 8.08588 11.6594 7.75458 6.00767 9.47012C5.2165 9.71047 4.77057 10.546 5.01016 11.337C5.24975 12.1276 6.08582 12.5739 6.87642 12.3341C11.7998 10.8398 20.307 11.1215 25.4644 14.1843ZM25.2955 18.7209C25.6561 18.1351 25.4715 17.367 24.8851 17.0059C19.9466 13.9709 12.7227 13.1169 6.91139 14.8802C6.253 15.0808 5.88082 15.7763 6.07971 16.436C6.27994 17.0944 6.97673 17.4664 7.63646 17.2671C12.7234 15.723 19.28 16.4885 23.5798 19.1317C24.1662 19.492 24.9338 19.308 25.2955 18.7209ZM23.3377 23.0777C23.6253 22.6076 23.4772 21.9934 23.007 21.7062C18.7898 19.1292 13.5616 18.5295 7.4668 19.9229C6.92896 20.0453 6.59385 20.5801 6.7169 21.1168C6.83937 21.6533 7.37414 21.9898 7.91082 21.8667C13.4802 20.5944 18.2093 21.1132 21.9667 23.4095C22.4363 23.6969 23.0504 23.549 23.3377 23.0777ZM16.0001 0C24.8368 0 32 7.16325 32 15.9998C32 24.8369 24.8368 32 16.0001 32C7.16359 32 0 24.8369 0 15.9998C0 7.16325 7.16359 0 16.0001 0Z" fill="#1ED760"/>
</svg>
