<svg width="32" height="33" viewBox="0 0 32 33" fill="none" xmlns="http://www.w3.org/2000/svg">
<path fill-rule="evenodd" clip-rule="evenodd" d="M25.3247 14.6843C26.0302 15.1066 26.9443 14.8722 27.3639 14.161C27.7832 13.4511 27.5512 12.5326 26.8438 12.1104C20.9392 8.58588 11.5957 8.25458 5.97509 9.97012C5.18826 10.2105 4.7448 11.046 4.98307 11.837C5.22134 12.6276 6.0528 13.0739 6.83905 12.8341C11.7354 11.3398 20.1956 11.6215 25.3247 14.6843ZM25.1567 19.2209C25.5153 18.6351 25.3318 17.867 24.7486 17.5059C19.8373 14.4709 12.6531 13.6169 6.87383 15.3802C6.21906 15.5808 5.84893 16.2763 6.04673 16.936C6.24586 17.5944 6.93881 17.9664 7.5949 17.7671C12.6539 16.223 19.1744 16.9885 23.4505 19.6317C24.0336 19.992 24.7971 19.808 25.1567 19.2209ZM23.2097 23.5777C23.4957 23.1076 23.3484 22.4934 22.8808 22.2062C18.6868 19.6292 13.4874 19.0295 7.42618 20.4229C6.8913 20.5453 6.55804 21.0801 6.6804 21.6168C6.8022 22.1533 7.33403 22.4898 7.86776 22.3667C13.4065 21.0944 18.1096 21.6132 21.8462 23.9095C22.3133 24.1969 22.924 24.049 23.2097 23.5777ZM15.9125 0.5C24.7005 0.5 31.8243 7.66325 31.8243 16.4998C31.8243 25.3369 24.7005 32.5 15.9125 32.5C7.12464 32.5 0.000488281 25.3369 0.000488281 16.4998C0.000488281 7.66325 7.12464 0.5 15.9125 0.5Z" fill="#1ED760"/>
</svg>
