<svg width="32" height="33" viewBox="0 0 32 33" fill="none" xmlns="http://www.w3.org/2000/svg">
<path fill-rule="evenodd" clip-rule="evenodd" d="M31.3672 28.2357C31.0561 29.0258 30.3384 30.1383 29.3205 30.9219C28.7329 31.3745 28.0313 31.8072 27.0676 32.0927C26.0403 32.3971 24.7749 32.5 23.2 32.5H8.8001C7.22534 32.5 5.95999 32.3971 4.93258 32.0927C3.96888 31.8072 3.2674 31.3745 2.67962 30.9219C1.66187 30.1382 0.943989 29.0258 0.632929 28.2357C0.0063582 26.6438 0 24.8376 0 23.7V9.29997C0 8.16243 0.0063582 6.35622 0.632929 4.76429C0.943989 3.97418 1.66174 2.86169 2.67962 2.07806C3.26727 1.62546 3.96888 1.19283 4.93258 0.907328C5.95986 0.602881 7.22521 0.5 8.8001 0.5H23.2002C24.7749 0.5 26.0403 0.602881 27.0677 0.907328C28.0314 1.19283 28.7329 1.62559 29.3206 2.07806C30.3384 2.86182 31.0563 3.97418 31.3673 4.76429C31.9939 6.35622 32.0003 8.16243 32.0003 9.29997V23.7C32.0001 24.8375 31.9938 26.6437 31.3672 28.2357Z" fill="url(#paint0_linear)"/>
<path d="M18.3211 18.893C17.8409 18.3863 16.9975 18.0615 16.0019 18.0615C15.0061 18.0615 14.1627 18.3863 13.6825 18.893C13.432 19.1574 13.2995 19.4284 13.2578 19.8145C13.1769 20.5621 13.2223 21.2058 13.3099 22.235C13.3934 23.2158 13.5518 24.5236 13.7586 25.8556C13.9057 26.8035 14.0253 27.3151 14.1341 27.6815C14.3106 28.2753 14.9703 28.7945 16.0019 28.7945C17.0334 28.7945 17.693 28.2751 17.8695 27.6815C17.9784 27.3151 18.0979 26.8035 18.245 25.8556C18.4518 24.5236 18.6103 23.2158 18.6937 22.235C18.7813 21.2057 18.8267 20.562 18.7458 19.8145C18.7041 19.4285 18.5716 19.1574 18.3211 18.893ZM13.3855 14.3818C13.3855 15.8282 14.558 17.0007 16.0043 17.0007C17.4507 17.0007 18.6233 15.8282 18.6233 14.3818C18.6233 12.9354 17.4507 11.7629 16.0043 11.7629C14.558 11.7629 13.3855 12.9354 13.3855 14.3818ZM15.9719 4.04666C9.84694 4.06408 4.82814 9.03303 4.75235 15.1576C4.6908 20.1189 7.85786 24.3628 12.2802 25.9184C12.3876 25.9562 12.4965 25.867 12.4796 25.7545C12.4216 25.3693 12.367 24.9822 12.3167 24.6015C12.2989 24.467 12.2132 24.351 12.089 24.2967C8.59354 22.7696 6.15275 19.2641 6.19192 15.2034C6.2433 9.87439 10.5948 5.52998 15.9238 5.48687C21.3717 5.44287 25.8177 9.86181 25.8177 15.2996C25.8177 19.3196 23.3876 22.7822 19.9194 24.2971C19.7951 24.3514 19.7099 24.4678 19.6923 24.6022C19.642 24.9827 19.5873 25.3697 19.5295 25.7545C19.5124 25.867 19.6214 25.9562 19.7287 25.9185C24.1089 24.3778 27.2575 20.1999 27.2575 15.2998C27.2573 9.08377 22.1917 4.02886 15.9719 4.04666ZM15.7685 9.20916C19.2407 9.07474 22.1081 11.8603 22.1081 15.3031C22.1081 17.054 21.3663 18.6347 20.1807 19.7479C20.0801 19.8423 20.0261 19.9763 20.0338 20.1141C20.0575 20.5328 20.0488 20.9398 20.021 21.3994C20.0135 21.5218 20.1508 21.6001 20.2522 21.531C22.2404 20.1723 23.5481 17.8877 23.5481 15.3031C23.5481 11.0474 20.0033 7.60401 15.7114 7.77035C11.7228 7.92499 8.52284 11.2135 8.47171 15.2049C8.43814 17.8299 9.75385 20.1555 11.7676 21.5313C11.8687 21.6003 12.0057 21.522 11.9982 21.3996C11.9702 20.9398 11.9617 20.5328 11.9852 20.1141C11.9929 19.9765 11.939 19.8424 11.8387 19.7482C10.6161 18.6004 9.86525 16.9554 9.91307 15.1394C9.99725 11.9436 12.5739 9.3329 15.7685 9.20916Z" fill="white"/>
<defs>
<linearGradient id="paint0_linear" x1="16.0001" y1="0.5" x2="16.0001" y2="32.5" gradientUnits="userSpaceOnUse">
<stop stop-color="#F452FF"/>
<stop offset="1" stop-color="#832BC1"/>
</linearGradient>
</defs>
</svg>
