<svg width="64" height="64" viewBox="0 0 64 64" fill="none" xmlns="http://www.w3.org/2000/svg">
<path fill-rule="evenodd" clip-rule="evenodd" d="M9.75839 19.2573V44.7427L26.5838 54.4632L31.7775 57.4854L36.5671 60.2271L31.7775 63L18.3732 55.2422L5 47.4844V16.4844L17.4713 9.25627L18.3732 8.72661L22.2607 6.51458L27.0191 9.25627L31.7775 12.0292L39.0862 16.2351L49.0384 21.999L48.6341 21.7496H53.8278V19.2573L43.8445 13.4934L31.7775 6.51458L27.0191 3.74169L31.7775 1L45.1819 8.72661L48.6341 10.7207L58.5862 16.4844V26.5478H47.359L44.2801 24.7719L34.3278 19.008L33.2394 18.3849L31.7775 17.5437L27.0191 14.7708L22.2607 12.0292L9.75858 19.2573H9.75839ZM53.8278 42.2192H48.6341L49.0384 41.9698L41.3255 46.4251L36.5671 43.6834L26.5838 37.9197V32.4051L41.3255 40.9105L44.2801 39.2281L47.359 37.421H58.5862V47.4844L46.1149 54.7125L45.1819 55.2422L41.3255 57.4854L36.5671 54.7437V54.7125L31.7775 51.9708L26.5838 48.9488L14.5168 41.9698V21.999L22.2607 17.5437L27.0191 20.3166L19.3064 24.7719V39.2281L26.5838 43.4342L31.7775 46.4251L33.9856 47.7025L36.5671 49.198L41.3255 51.9708L46.1149 49.198L53.8278 44.7427V42.2192V42.2192Z" fill="#0500FF"/>
</svg>
