<svg xmlns="http://www.w3.org/2000/svg" width="28" height="28"><path d="M14 28c6.135 0 9.545 0 11.773-2.227C28 23.545 28 20.135 28 14s0-9.545-2.227-11.773C23.545 0 20.135 0 14 0S4.455 0 2.227 2.227C0 4.455 0 7.865 0 14s0 9.545 2.227 11.773C4.455 28 7.865 28 14 28z" fill="hsl(0, 0%, 0%)"/><path d="m6.109 12.25 9.342.017-.521 2.171-8.821-.018zm0-4.375 8.503.017c.962 0 1.667.878 1.447 1.791l-.088.38-9.862-.018v-2.17zm8.292 8.741.52-2.178 5.584.008-.821 2.179zm1.041-4.366.529-2.162 7.956-.025-.935 2.153-7.55.034zm-9.333 4.375 8.292.017-.521 2.171-7.771-.018zM17.197 21h-1.615c-1.163 0-2.01-1.09-1.71-2.187h4.216L17.197 21z" fill="#FFF"/></svg>