<svg width="64" height="64" viewBox="0 0 64 64" fill="none" xmlns="http://www.w3.org/2000/svg">
<path fill-rule="evenodd" clip-rule="evenodd" d="M34.2534 5.12488C34.232 4.82525 34.1518 4.53277 34.0174 4.26414C33.746 3.72162 33.2703 3.3091 32.6948 3.11733C32.1193 2.92555 31.4912 2.97021 30.9486 3.2415L4.264 16.5834C3.88417 16.7734 3.56474 17.0654 3.34149 17.4268C3.11825 17.7881 3 18.2044 3 18.6291C3 19.0538 3.11825 19.4701 3.34149 19.8314C3.56474 20.1928 3.88417 20.4848 4.264 20.6748L30.9486 34.0175C31.2753 34.1811 31.6364 34.2638 32.0016 34.2588C32.3546 34.2629 32.714 34.1858 33.0522 34.0167L59.736 20.6748C60.116 20.4847 60.4355 20.1925 60.6588 19.8311C60.882 19.4696 61.0002 19.053 61 18.6282C60.9998 18.2033 60.8813 17.7869 60.6578 17.4256C60.4342 17.0643 60.1145 16.7724 59.7344 16.5826L46.3637 9.91163C46.0465 9.75327 45.6969 9.67082 45.3423 9.67082C44.9878 9.67082 44.6381 9.75327 44.3209 9.91163L30.9642 16.5834C30.6902 16.7144 30.4451 16.8987 30.243 17.1254C30.041 17.3521 29.8862 17.6168 29.7875 17.9041C29.6889 18.1913 29.6484 18.4953 29.6685 18.7983C29.6886 19.1014 29.7688 19.3973 29.9045 19.669C30.0402 19.9407 30.2286 20.1827 30.4588 20.3808C30.689 20.5789 30.9563 20.7292 31.2452 20.8229C31.534 20.9166 31.8387 20.9518 32.1413 20.9265C32.444 20.9012 32.7385 20.8159 33.0079 20.6756L45.3436 14.5143L53.5944 18.6312L32 29.4288L10.4015 18.6295L32.9947 7.33288C33.2634 7.1986 33.5031 7.01269 33.6999 6.78577C33.8967 6.55885 34.0469 6.29537 34.1419 6.01039C34.2368 5.72541 34.2747 5.42451 34.2534 5.12488ZM3.82457 43.5765C3.59767 43.7733 3.41177 44.013 3.27747 44.2817V44.2808C3.14302 44.5495 3.06281 44.8421 3.04144 45.1418C3.02007 45.4414 3.05795 45.7424 3.15291 46.0275C3.24788 46.3125 3.39807 46.5761 3.59491 46.8031C3.79175 47.03 4.03138 47.216 4.30011 47.3504L30.9848 60.6923C31.3023 60.8511 31.6524 60.9337 32.0074 60.9337C32.3624 60.9337 32.7125 60.8511 33.03 60.6923L59.7147 47.3504C60.2573 47.0791 60.67 46.6033 60.8618 46.0277C61.0537 45.4521 61.009 44.8239 60.7377 44.2812C60.4664 43.7386 59.9906 43.3259 59.415 43.1341C58.8394 42.9422 58.2112 42.9869 57.6686 43.2582L32.0074 56.0896L6.34621 43.2582C6.07751 43.1239 5.785 43.0438 5.48536 43.0226C5.18572 43.0013 4.88483 43.0393 4.59987 43.1344C4.31491 43.2294 4.05146 43.3796 3.82457 43.5765ZM4.59881 29.7911C4.02332 29.9828 3.54758 30.3954 3.27622 30.9379C3.00493 31.4804 2.96026 32.1085 3.15204 32.684C3.34382 33.2595 3.75634 33.7353 4.29886 34.0066L30.9835 47.3485C31.3011 47.5071 31.6512 47.5897 32.0061 47.5897C32.3611 47.5897 32.7112 47.5071 33.0288 47.3485L59.7134 34.0066C60.2487 33.7311 60.6538 33.2556 60.8408 32.6834C61.0278 32.1111 60.9817 31.4882 60.7124 30.9497C60.4431 30.4112 59.9724 30.0007 59.4023 29.807C58.8323 29.6133 58.2089 29.6522 57.6673 29.9152L32.0061 42.7458L6.34495 29.9152C5.8024 29.644 5.1743 29.5993 4.59881 29.7911Z" fill="white"/>
</svg>
