<svg height="150pt" viewBox="0 0 150 150" width="150pt" xmlns="http://www.w3.org/2000/svg"><path d="m8.125 66v-48.825c0-1.2.975-2.175 2.175-2.175h82.65c1.2 0 2.175.975 2.175 2.175v115.65c0 1.2-.975 2.175-2.175 2.175h-82.65c-1.2 0-2.175-.975-2.175-2.175z" style="fill-rule:evenodd;fill:#fff;stroke-width:4;stroke:#414345;stroke-linecap:square;stroke-miterlimit:3"/><path d="m20.021 114.899q-3.841 0-3.841-2.186 0-1.713 2.127-1.713l2.895.295q3.545 0 4.786-3.959 1.004-3.367 1.004-12.052v-41.712q0-8.685-.827-11.374-.827-2.688-1.979-3.663-1.152-.974-2.984-.974l-2.895.236q-2.127 0-2.127-1.714 0-2.186 3.25-2.186 3.249 0 6.174.473 2.924.473 6.115.473 3.19 0 6.115-.473 2.924-.473 7.503-.473 4.579 0 9.837 1.478 5.259 1.477 8.863 4.194 7.503 5.613 7.503 14.889 0 10.28-8.449 17.725-2.717 2.363-6.026 4.017l19.202 27.887q3.249 4.786 7.149 5.79 1.122.295 2.835.473 3.014.295 3.014 1.979 0 1.684-3.25 1.684h-11.344q-4.076 0-7.385-5.318l-14.889-23.81q-2.008-3.131-3.84-4.46-1.831-1.33-5.642-1.33-3.811 0-6.647.177v16.012q0 8.921.798 11.491.797 2.57 1.949 3.545 1.152.975 3.043.975l2.836-.295q2.127 0 2.127 1.713 0 2.186-3.781 2.186-1.95 0-4.136-.355-7.09-1.122-12.141-.384-5.052.739-6.942.739zm16.247-73.203v32.377q3.84.414 7.385.414h3.722q5.731 0 9.69-3.9 4.608-4.549 4.608-12.407 0-9.453-5.731-14.948-5.376-5.199-13.825-5.199-3.013 0-4.431.827-1.418.827-1.418 2.836z" fill="#414345"/><path d="m103.561 66h35.628c1.482 0 2.686 1.204 2.686 2.686v63.628c0 1.482-1.204 2.686-2.686 2.686h-35.628c-1.482 0-2.686-1.204-2.686-2.686v-63.628c0-1.482 1.204-2.686 2.686-2.686z" fill="#fff"/><path d="m103.561 66h35.628c1.482 0 2.686 1.204 2.686 2.686v63.628c0 1.482-1.204 2.686-2.686 2.686h-35.628c-1.482 0-2.686-1.204-2.686-2.686v-63.628c0-1.482 1.204-2.686 2.686-2.686z" fill="none" stroke="#414345" stroke-linecap="square" stroke-miterlimit="2" stroke-width="4"/><path d="m102.875 135h37c1.104 0 2-.896 2-2v-1h-41v1c0 1.104.896 2 2 2z" fill="#414345"/><path d="m102.875 135h37c1.104 0 2-.896 2-2v-1h-41v1c0 1.104.896 2 2 2z" fill="none" stroke="#414345" stroke-linecap="square" stroke-miterlimit="2" stroke-width="4"/><path d="m102.875 66h37c1.104 0 2 .896 2 2v1h-41v-1c0-1.104.896-2 2-2z" fill="#414345"/><path d="m102.875 66h37c1.104 0 2 .896 2 2v1h-41v-1c0-1.104.896-2 2-2z" fill="none" stroke="#414345" stroke-linecap="square" stroke-miterlimit="2" stroke-width="4"/><path d="m125.923 91.808q1.746 0 3.134.287l-.55 3.685q-1.627-.359-2.871-.359-3.182 0-5.443 2.584-2.261 2.584-2.261 6.436v14.068h-3.972v-26.223h3.278l.454 4.857h.192q1.459-2.56 3.517-3.947 2.057-1.388 4.522-1.388z" fill="#414345"/></svg>