<?xml version="1.0" encoding="utf-8"?>
<!-- Generator: Adobe Illustrator 24.0.0, SVG Export Plug-In . SVG Version: 6.00 Build 0)  -->
<svg version="1.1" id="Layer_1" xmlns="http://www.w3.org/2000/svg" xmlns:xlink="http://www.w3.org/1999/xlink" x="0px" y="0px"
	 width="600px" height="599px" viewBox="0 0 600 599" style="enable-background:new 0 0 600 599;" xml:space="preserve">
<style type="text/css">
	.st0{fill:#53427F;}
</style>
<path class="st0" d="M67,385.9c22.9,0,41.2-4.2,54.9-12.7c13.7-8.5,22.3-21,25.8-37.5c0.8-3.4,1.2-7.3,1.2-11.8
	c0-11-4.2-19.9-12.5-26.7c-8.3-6.7-21.5-11.8-39.6-15.1c-11.4-2.4-19.2-4.8-23.6-7.1c-4.4-2.3-6.6-5.4-6.6-9.2c0-1.1,0.1-2,0.2-2.6
	c1.1-4.6,3.8-8.2,8-10.6c4.2-2.4,9.8-3.6,16.7-3.6c5.6,0,10.1,1.2,13.6,3.5c3.4,2.3,5.3,5.2,5.6,8.5c1.3,2.9,3.7,4.3,7.2,4.3H152
	c1.4,0,2.6-0.5,3.6-1.6c1-1,1.6-2.3,1.9-3.7c0.3-1.9,0.5-3.3,0.5-4.1c0-6.7-2.7-13.4-8-20c-5.4-6.6-12.8-12.1-22.4-16.4
	c-9.6-4.3-20.5-6.5-32.7-6.5c-20.3,0-36.9,4.3-49.8,12.8c-12.9,8.6-20.9,20.4-24.1,35.4c-1,4-1.4,7.9-1.4,11.8
	c0,21.6,15.9,35.7,47.8,42.3c13,2.9,21.9,5.4,26.9,7.7c5,2.2,7.4,5.4,7.4,9.4c0,1.1-0.1,2-0.2,2.6c-1.1,4.6-4.4,8.3-9.7,10.9
	c-5.4,2.6-12.4,4-21,4c-6.9,0-12.3-1.2-16.2-3.7c-3.9-2.5-6.5-5.6-7.8-9.5c-1.1-1.6-2.2-2.7-3.2-3.4c-1-0.6-2.6-1-4.7-1H6.5
	c-1.4,0-2.8,0.5-4,1.4c-1.2,1-1.9,2.2-2,3.6C0.2,340,0,341.9,0,343.2c0,7.8,2.6,15,7.7,21.5c5.1,6.5,12.7,11.6,22.8,15.5
	C40.6,384,52.7,385.9,67,385.9L67,385.9z"/>
<path class="st0" d="M154.6,383.5h115.2c1.6,0,3.1-0.6,4.6-1.7c1.4-1.1,2.3-2.6,2.6-4.3l5-23.8c0.3-1.8,0-3.2-0.8-4.4
	c-0.9-1.2-2.2-1.8-4-1.8h-77.8l6.5-31.2h70.8c1.8,0,3.4-0.6,4.8-1.8s2.3-2.7,2.6-4.4l4.6-21.8c0.3-1.8,0-3.2-0.8-4.4
	c-0.9-1.2-2.2-1.8-4-1.8h-70.8l6.7-30.5h75.9c1.8,0,3.4-0.6,4.8-1.7c1.4-1.1,2.3-2.6,2.6-4.3l5-23.8c0.3-1.8,0-3.2-0.8-4.4
	c-0.9-1.2-2.2-1.8-4-1.8H190.2c-1.8,0-3.4,0.6-4.8,1.8c-1.4,1.2-2.3,2.7-2.6,4.4l-33.1,155.8c-0.3,1.8,0,3.2,1,4.3
	C151.5,383,152.9,383.5,154.6,383.5L154.6,383.5z"/>
<path class="st0" d="M296.5,383.5h115.2c1.6,0,3.1-0.6,4.6-1.7c1.4-1.1,2.3-2.6,2.6-4.3l5-23.8c0.3-1.8,0-3.2-0.8-4.4
	c-0.9-1.2-2.2-1.8-4-1.8h-77.8l6.5-31.2h70.8c1.8,0,3.4-0.6,4.8-1.8s2.3-2.7,2.6-4.4l4.6-21.8c0.3-1.8,0-3.2-0.8-4.4
	c-0.9-1.2-2.2-1.8-4-1.8h-70.8l6.7-30.5h75.9c1.8,0,3.4-0.6,4.8-1.7c1.4-1.1,2.3-2.6,2.6-4.3l5-23.8c0.3-1.8,0-3.2-0.8-4.4
	c-0.9-1.2-2.2-1.8-4-1.8H332.1c-1.8,0-3.4,0.6-4.8,1.8c-1.4,1.2-2.3,2.7-2.6,4.4l-33.1,155.8c-0.3,1.8,0,3.2,1,4.3
	C293.4,383,294.8,383.5,296.5,383.5L296.5,383.5z"/>
<path class="st0" d="M438.4,383.5h68.2c24.5,0,43.3-5.2,56.3-15.7c13-10.5,22.4-27.2,28.2-50.1c2.9-11.5,5.4-23.8,7.7-36.7
	c0.8-4.8,1.2-8.9,1.2-12.2c0-11.2-3-20.8-8.9-28.8c-5.9-8-13.9-14.1-24-18.2c-10.1-4.2-21.5-6.2-34.1-6.2h-59.1
	c-1.8,0-3.4,0.6-4.8,1.8c-1.4,1.2-2.3,2.7-2.6,4.4l-33.1,155.8c-0.3,1.8,0,3.2,1,4.3C435.3,383,436.7,383.5,438.4,383.5L438.4,383.5
	z M484.8,347.5l20.6-96h22.8c8.6,0,15.1,1.8,19.3,5.3c4.2,3.5,6.4,8.9,6.4,16.1c0,2.6-0.2,5.4-0.7,8.6c-1.8,9.6-4.3,21.5-7.7,35.8
	c-2.6,10.6-6.8,18.2-12.7,23c-5.9,4.8-13.8,7.2-23.8,7.2H484.8z"/>
</svg>
