<svg width="32" height="32" viewBox="0 0 32 32" fill="none" xmlns="http://www.w3.org/2000/svg">
<rect width="32" height="32" rx="4" fill="#0E68FF"/>
<path fill-rule="evenodd" clip-rule="evenodd" d="M15.1284 12.25C14.9044 12.25 14.7155 12.3246 14.5617 12.4738C14.4077 12.6231 14.3309 12.8038 14.3309 13.016C14.3309 13.2283 14.4077 13.4074 14.5617 13.5532C14.7155 13.6991 14.9044 13.772 15.1284 13.772C15.3522 13.772 15.5411 13.6991 15.6951 13.5532C15.8489 13.4074 15.9259 13.2283 15.9259 13.016C15.9259 12.8038 15.8489 12.6231 15.6951 12.4738C15.5411 12.3246 15.3522 12.25 15.1284 12.25ZM28.8219 15.7487C28.7031 15.484 28.5513 15.2755 28.3663 15.1232C28.1812 14.971 27.9804 14.865 27.764 14.8055C27.5476 14.7459 27.3452 14.7161 27.1566 14.7161C27.0168 14.7161 26.872 14.7312 26.7219 14.7613C26.5717 14.7913 26.4268 14.8381 26.2873 14.9013C26.1475 14.9648 26.0184 15.0448 25.8997 15.1417C25.7809 15.2384 25.6798 15.3501 25.596 15.4769C25.4982 15.3302 25.3882 15.2084 25.2661 15.1115C25.2408 15.0915 25.2151 15.0728 25.1894 15.0543V15.0563C25.0288 14.9398 24.8571 14.8558 24.6742 14.8055C24.4577 14.7459 24.2552 14.7161 24.0667 14.7161C23.927 14.7161 23.7821 14.7312 23.632 14.7613C23.4818 14.7913 23.3369 14.8381 23.1974 14.9013C23.0576 14.9648 22.9284 15.0448 22.8098 15.1417C22.691 15.2384 22.5899 15.3501 22.5061 15.4769C22.4082 15.3302 22.2983 15.2084 22.1762 15.1115C22.1509 15.0915 22.1252 15.0728 22.0995 15.0543C22.0008 14.9836 21.8991 14.924 21.7939 14.8763C21.6612 14.8163 21.525 14.7746 21.3854 14.7512C21.2457 14.7279 21.1131 14.7161 20.9874 14.7161C20.7429 14.7161 20.5143 14.7563 20.3014 14.8363C20.0883 14.9164 19.9016 15.0298 19.741 15.1766L19.5315 14.7161H18.2956V19.6408H19.741V17.0365C19.741 16.6602 19.8212 16.3831 19.9819 16.2048C20.1425 16.0266 20.3239 15.9373 20.5266 15.9373C20.8058 15.9373 21.0188 16.0166 21.1654 16.175C21.3121 16.3336 21.3854 16.614 21.3854 17.0166V19.6408H22.0995H22.8308V17.0069C22.8308 16.7956 22.8534 16.6207 22.8988 16.4821C22.9442 16.3433 23.0052 16.2345 23.0821 16.1551C23.1589 16.076 23.2461 16.0199 23.344 15.9868C23.4417 15.9539 23.5394 15.9373 23.6373 15.9373C23.742 15.9373 23.8449 15.9555 23.9462 15.9918C24.0473 16.0281 24.1364 16.0892 24.2133 16.175C24.2901 16.261 24.3511 16.3731 24.3966 16.5117C24.4419 16.6504 24.4647 16.8187 24.4647 17.0166V19.6408H25.1894H25.9101H25.9207V17.0069C25.9207 16.7956 25.9433 16.6207 25.9888 16.4821C26.034 16.3433 26.0952 16.2345 26.172 16.1551C26.2489 16.076 26.3361 16.0199 26.4339 15.9868C26.5316 15.9539 26.6293 15.9373 26.7272 15.9373C26.8319 15.9373 26.9348 15.9555 27.0361 15.9918C27.1373 16.0281 27.2263 16.0892 27.3032 16.175C27.3799 16.261 27.4411 16.3731 27.4865 16.5117C27.5319 16.6504 27.5546 16.8187 27.5546 17.0166V19.6408H29V16.7614C29 16.3511 28.9406 16.0135 28.8219 15.7487ZM16.4897 16.8948L16.277 16.1947L15.8276 14.7161H14.3403L15.1244 17.1904L15.9009 19.6408H17.3315L16.9187 18.2942L16.9169 18.3004L16.4897 16.8948ZM11.1796 14.7161L10.1323 18.2805L9.05349 14.7161H7.56621L9.12683 19.6407H10.9493L11.7033 17.2678L11.7871 16.5629L11.8604 17.2678L12.6146 19.6407H13.0169L13.4297 18.2941L12.3841 14.7161H11.1796ZM5.97981 16.821C6.15783 16.8873 6.31315 16.9667 6.44588 17.0593C6.82982 17.3174 7.02194 17.6848 7.02194 18.1614C7.02194 18.3798 6.96776 18.5851 6.85959 18.777C6.75128 18.969 6.60302 19.1378 6.41444 19.2833C6.22591 19.429 6.00599 19.5432 5.75463 19.6259C5.50327 19.7086 5.23433 19.75 4.94814 19.75C4.73161 19.75 4.52034 19.7235 4.31446 19.6706C4.1084 19.6177 3.9181 19.5449 3.74366 19.4521C3.56899 19.3595 3.41715 19.2486 3.288 19.1195C3.15872 18.9904 3.06283 18.8464 3 18.6876C3.16053 18.6149 3.3386 18.5337 3.53416 18.4444C3.72957 18.355 3.90076 18.274 4.04739 18.2011C4.11021 18.3004 4.20792 18.3914 4.34065 18.4741C4.47323 18.557 4.65488 18.5982 4.88527 18.5982C5.12258 18.5982 5.29721 18.5453 5.40896 18.4394C5.52057 18.3336 5.57656 18.2343 5.57656 18.1415C5.57656 18.0754 5.5381 18.0142 5.46132 17.9579C5.3844 17.9017 5.29721 17.857 5.1995 17.8238C5.05975 17.7709 4.94451 17.7428 4.85388 17.7394C4.76305 17.7362 4.65832 17.718 4.53969 17.6848C4.16258 17.5989 3.87457 17.4847 3.67558 17.3423C3.47658 17.2 3.33153 17.056 3.2409 16.9104C3.15007 16.7648 3.09947 16.6258 3.08901 16.4934C3.07855 16.361 3.07334 16.2551 3.07334 16.1756C3.07334 15.9639 3.12212 15.762 3.21992 15.57C3.31763 15.3781 3.45203 15.211 3.62321 15.0686C3.79421 14.9263 3.99321 14.8121 4.22025 14.726C4.44705 14.6401 4.68971 14.597 4.94814 14.597C5.16448 14.597 5.37054 14.6268 5.56605 14.6863C5.76146 14.7459 5.93948 14.8287 6.10026 14.9345C6.26079 15.0405 6.39872 15.1663 6.51396 15.3118C6.62916 15.4575 6.71458 15.6196 6.77053 15.7984L5.6499 16.1558C5.608 16.0366 5.52238 15.9408 5.39324 15.8678C5.26395 15.7951 5.12616 15.7586 4.97953 15.7586C4.8329 15.7586 4.71408 15.805 4.6234 15.8976C4.53262 15.9904 4.48728 16.083 4.48728 16.1756C4.48728 16.2883 4.5308 16.3759 4.61824 16.4387C4.70538 16.5017 4.80151 16.5464 4.90624 16.5728C4.98297 16.5861 5.05813 16.5976 5.13142 16.6075C5.20471 16.6175 5.27623 16.6291 5.34613 16.6423C5.59047 16.6953 5.80174 16.7549 5.97981 16.821Z" fill="white"/>
</svg>
