<svg width="132" height="132" viewBox="0 0 132 132" fill="none" xmlns="http://www.w3.org/2000/svg">
<rect width="132" height="132" fill="#D90368"/>
<path d="M101.914 106.81V23.2739C102.779 23.0913 103.759 23 104.854 23C106.008 23 107.074 23.0913 108.055 23.2739V106.81C107.074 106.993 106.008 107.084 104.854 107.084C103.759 107.084 102.779 106.993 101.914 106.81Z" fill="white"/>
<path d="M47.6121 49.2021C47.7851 50.1151 47.8716 50.9976 47.8716 51.8497C47.8716 52.6409 47.7851 53.493 47.6121 54.406L36.6277 54.3147V84.9903C36.6277 87.5466 37.7521 88.8247 40.0009 88.8247H46.5742C46.9778 89.8594 47.1797 90.8941 47.1797 91.9288C47.1797 92.9635 47.122 93.6025 47.0067 93.846C44.3543 94.2112 41.6154 94.3938 38.79 94.3938C33.1969 94.3938 30.4004 91.8679 30.4004 86.8162V54.3147L24.2595 54.406C24.0865 53.493 24 52.6409 24 51.8497C24 50.9976 24.0865 50.1151 24.2595 49.2021L30.4004 49.2934V39.7073C30.4004 38.064 30.631 36.9075 31.0923 36.238C31.5536 35.5077 32.4473 35.1425 33.7735 35.1425H36.1088L36.6277 35.6903V49.3847L47.6121 49.2021Z" fill="white"/>
<path d="M52.5347 90.8332C52.5923 89.4942 52.9383 88.0335 53.5726 86.451C54.2645 84.8077 55.0429 83.5295 55.9078 82.6166C60.463 85.2337 64.4705 86.5423 67.9301 86.5423C69.8329 86.5423 71.3609 86.1467 72.5141 85.3554C73.725 84.5642 74.3305 83.4991 74.3305 82.1601C74.3305 80.0298 72.7736 78.3256 69.6599 77.0475L64.8164 75.1303C57.5512 72.3305 53.9185 67.857 53.9185 61.7097C53.9185 59.5186 54.2933 57.5709 55.0429 55.8667C55.8502 54.1017 56.9457 52.6105 58.3296 51.3932C59.7711 50.1151 61.4721 49.1413 63.4326 48.4717C65.393 47.8022 67.5841 47.4675 70.0059 47.4675C71.1015 47.4675 72.3123 47.5588 73.6385 47.7414C75.0224 47.924 76.4062 48.1979 77.7901 48.563C79.174 48.8674 80.5002 49.2325 81.7687 49.6586C83.0373 50.0846 84.1328 50.5411 85.0554 51.028C85.0554 52.5496 84.7671 54.1321 84.1905 55.7754C83.6139 57.4188 82.8354 58.6361 81.8552 59.4273C77.3 57.2971 73.3502 56.2319 70.0059 56.2319C68.5067 56.2319 67.3247 56.6275 66.4598 57.4188C65.5948 58.1492 65.1624 59.123 65.1624 60.3403C65.1624 62.2271 66.6039 63.7182 69.487 64.8138L74.7629 66.8223C78.5685 68.2222 81.3939 70.1394 83.2391 72.574C85.0842 75.0085 86.0068 77.8387 86.0068 81.0645C86.0068 85.3859 84.4788 88.8551 81.4227 91.4723C78.3667 94.0286 73.9845 95.3067 68.2761 95.3067C62.683 95.3067 57.4358 93.8156 52.5347 90.8332Z" fill="white"/>
</svg>
