<?xml version="1.0" encoding="UTF-8" standalone="no"?>
<!DOCTYPE svg PUBLIC "-//W3C//DTD SVG 1.1//EN" "http://www.w3.org/Graphics/SVG/1.1/DTD/svg11.dtd">
<svg width="100%" height="100%" viewBox="0 0 408 553" version="1.1" xmlns="http://www.w3.org/2000/svg" xmlns:xlink="http://www.w3.org/1999/xlink" xml:space="preserve" xmlns:serif="http://www.serif.com/" style="fill-rule:evenodd;clip-rule:evenodd;stroke-linejoin:round;stroke-miterlimit:2;">
    <style>
        #cloud {
            fill:rgb(255,125,36);
            fill-rule:nonzero;
        }

        #jar {
            fill:rgb(67,69,75);
            fill-rule:nonzero;
        }

        @media (prefers-color-scheme: dark) {
            #jar {
                fill: #FFFFFF;
                fill-rule:nonzero;
            } 
        }
    </style>
    <g transform="matrix(1,0,0,1,-670.692,-95.19)">
        <g>
            <path id="cloud" d="M874.32,95.19C911.66,95.19 943.64,118.08 957.02,150.59C959.18,150.17 961.42,149.94 963.71,149.94C982.84,149.94 998.35,165.45 998.35,184.58C998.35,185.3 998.33,186.02 998.28,186.74C1014.81,191.03 1030,201.73 1034.22,218.88C1034.89,221.6 1035.22,224.4 1035.22,227.2L1035.22,232.95C1036.16,236.95 1036.65,241.13 1036.65,245.41C1036.65,275.65 1012.13,300.16 981.9,300.16C971.94,300.16 962.61,297.5 954.57,292.87C948.92,304.58 940.32,314.59 929.72,321.93C909.67,354.22 898.09,392.32 898.09,433.14C898.09,449.81 900.03,466.05 903.68,481.61C907.32,480.47 911.19,479.86 915.21,479.86C936.51,479.86 953.78,497.13 953.78,518.43C953.78,540.92 972.01,559.15 994.5,559.15C1016.99,559.15 1035.22,540.92 1035.22,518.43L1035.22,524.75C1035.22,568.97 999.14,605.05 954.94,605.05L793.71,605.05C749.49,605.05 713.42,568.97 713.42,524.75L713.42,518.43C713.42,540.92 731.65,559.15 754.13,559.15C776.62,559.15 794.86,540.92 794.86,518.43C794.86,505.48 805.35,494.98 818.31,494.98C825.76,494.98 832.39,498.45 836.69,503.86C839.6,499.62 844.5,496.83 850.04,496.83C850.87,496.83 851.69,496.9 852.48,497.02C858.87,476.86 862.32,455.4 862.32,433.14C862.32,383.83 845.42,338.48 817.11,302.55C811.34,304.62 805.12,305.74 798.64,305.74C778.99,305.74 761.76,295.39 752.1,279.85C750.87,279.98 749.62,280.04 748.36,280.04C732.44,280.04 719.03,269.31 714.98,254.69C713.98,252.27 713.42,249.58 713.42,246.68L713.42,227.2C713.42,224.4 713.76,221.6 714.42,218.88C718.53,202.17 733.07,191.58 749.1,187.08C755.45,179.05 765.27,173.9 776.3,173.9C779.45,173.9 782.52,174.32 785.43,175.12C790.15,130.2 828.15,95.19 874.32,95.19Z"/>
            <path id="jar" d="M794.16,625.16L954.53,625.16C1017.8,620.43 1048.9,585.93 1055.4,523.6C1057.49,503.54 1052.16,485.7 1041.29,468.94C1039.3,465.87 1037.16,462.89 1034.91,459.98C1021.36,442.51 1004.35,428.42 988.42,413.26C975.17,400.66 958.85,384.15 958.85,364.56C958.85,345.4 974.39,329.86 993.55,329.86L994.2,329.86C1000.35,329.98 1005.27,335.08 1005.17,341.24C1005.05,347.39 999.95,352.32 993.8,352.21C993.71,352.21 993.63,352.2 993.55,352.2C986.72,352.2 981.19,357.73 981.19,364.56C981.19,375.67 996.41,390.03 1003.82,397.07C1020.71,413.15 1038.16,427.71 1052.58,446.29C1070.81,469.82 1080.77,495.69 1077.62,525.91C1069.99,599.18 1030.18,642.08 955.74,647.47C955.46,647.49 955.22,647.5 954.94,647.5L793.71,647.5C793.39,647.5 793.11,647.49 792.8,647.46C719.32,641.5 676.51,598.16 670.99,525.6C669.39,504.57 674.29,485.01 684.35,466.6C688.26,459.45 692.83,452.69 697.81,446.25C712.07,427.79 729.07,412.89 745.52,396.59C752.36,389.81 767.45,374.97 767.45,364.56C767.45,357.73 761.92,352.2 755.09,352.2C755.01,352.2 754.93,352.21 754.85,352.21C748.69,352.32 743.58,347.39 743.48,341.24C743.36,335.08 748.29,329.98 754.45,329.86L755.09,329.86C774.25,329.86 789.79,345.4 789.79,364.56C789.79,383.38 773.76,400.05 761.25,412.46C745.61,427.96 729.02,442.4 715.49,459.91C700.85,478.84 691.41,499.48 693.27,523.91C697.94,585.37 732,619.96 794.16,625.16Z"/>
        </g>
    </g>
</svg>
