<?xml version="1.0" encoding="utf-8"?>
<svg version="1.1" id="Layer_1" xmlns="http://www.w3.org/2000/svg" xmlns:xlink="http://www.w3.org/1999/xlink" x="0px" y="0px"
	 viewBox="0 0 500 500" style="enable-background:new 0 0 500 500;" xml:space="preserve">
<style type="text/css">
	.st0{fill:#280459;}
	@media (prefers-color-scheme: dark) {
    .st0 { fill: #ffffff; }
  }	
</style>
<path class="st0" d="M224.3,242.6v0.1c-91.8-53.2-159.2-74.8-159.2-74.8l208.9-89.7c9.9-4.2,21-4.4,30.9-0.3
	C283.5,123.1,246.3,201,224.3,242.6L224.3,242.6z M453.3,175.6c-25.3,29.6-83.6,97.3-119.4,139l-0.1,0.1
	c84.7,63.4,131,116.7,131,116.7l0.3-227.6C465,193.3,460.8,183.2,453.3,175.6L453.3,175.6z M224.3,242.7
	C191.7,304,109.5,410.7,15,472.6c170.4,0,271.8-103.2,318.6-157.8c-16.5-12.3-34.5-25.1-53.9-37.9
	C260.4,264.3,241.9,252.8,224.3,242.7L224.3,242.7z M442.6,34c-18.1-12.1-42.6-7.2-54.8,10.9c-12.1,18.1-7.2,42.6,10.9,54.8
	c18.1,12.2,42.6,7.2,54.8-10.9C465.8,70.7,460.8,46.2,442.6,34z"/>
</svg>
