<?xml version="1.0" encoding="UTF-8" standalone="no"?>
<svg
   xmlns:dc="http://purl.org/dc/elements/1.1/"
   xmlns:cc="http://creativecommons.org/ns#"
   xmlns:rdf="http://www.w3.org/1999/02/22-rdf-syntax-ns#"
   xmlns:svg="http://www.w3.org/2000/svg"
   xmlns="http://www.w3.org/2000/svg"
   xmlns:sodipodi="http://sodipodi.sourceforge.net/DTD/sodipodi-0.dtd"
   xmlns:inkscape="http://www.inkscape.org/namespaces/inkscape"
   version="1.1"
   id="Layer_1"
   x="0px"
   y="0px"
   width="545.84399"
   height="545.84497"
   viewBox="0 0 545.84401 545.84497"
   enable-background="new 0 0 2000 1999.984"
   xml:space="preserve"
   sodipodi:docname="brand.svg"
   inkscape:version="1.0.2 (e86c870879, 2021-01-15, custom)"><metadata
   id="metadata17"><rdf:RDF><cc:Work
       rdf:about=""><dc:format>image/svg+xml</dc:format><dc:type
         rdf:resource="http://purl.org/dc/dcmitype/StillImage" /><dc:title></dc:title></cc:Work></rdf:RDF></metadata><defs
   id="defs15" /><sodipodi:namedview
   pagecolor="#ffffff"
   bordercolor="#666666"
   borderopacity="1"
   objecttolerance="10"
   gridtolerance="10"
   guidetolerance="10"
   inkscape:pageopacity="0"
   inkscape:pageshadow="2"
   inkscape:window-width="1916"
   inkscape:window-height="1036"
   id="namedview13"
   showgrid="false"
   fit-margin-top="0"
   fit-margin-left="0"
   fit-margin-right="0"
   fit-margin-bottom="0"
   inkscape:zoom="0.4505036"
   inkscape:cx="819.116"
   inkscape:cy="272.923"
   inkscape:window-x="0"
   inkscape:window-y="0"
   inkscape:window-maximized="1"
   inkscape:current-layer="Layer_1"
   inkscape:document-rotation="0" />
<g
   id="g8"
   transform="translate(-180.884,-727.069)">
	<path
   fill-rule="evenodd"
   clip-rule="evenodd"
   fill="#ffffff"
   d="m 356.996,807.521 c -24.779,24.776 -40.104,59.008 -40.104,96.812 0,37.809 15.325,72.034 40.104,96.808 55.364,55.372 104.225,24.98 135.285,56.04 9.84,9.842 15.933,23.447 15.933,38.474 0,15.023 -6.093,28.632 -15.933,38.473 -9.843,9.845 -23.45,15.936 -38.475,15.936 -10.021,0 -19.375,-2.686 -27.377,-7.354 -25.975,-15.161 -30.519,-48.084 -70.353,-71.339 -20.285,-11.842 -43.846,-18.637 -68.954,-18.637 -35.289,0 -67.459,13.355 -91.735,35.282 9.772,28.697 24.19,55.246 42.359,78.749 2.707,-5.83 6.413,-11.102 10.901,-15.589 9.841,-9.842 23.45,-15.936 38.475,-15.936 10.021,0 19.375,2.686 27.376,7.354 8.556,4.994 15.55,11.989 20.191,20.202 12.059,21.337 29.423,39.029 50.162,51.137 20.285,11.842 43.846,18.637 68.955,18.637 37.804,0 72.036,-15.326 96.812,-40.105 24.775,-24.775 40.104,-59.001 40.104,-96.81 0,-37.802 -15.328,-72.034 -40.104,-96.81 -55.367,-55.367 -104.229,-24.983 -135.285,-56.038 -9.843,-9.845 -15.935,-23.448 -15.935,-38.473 0,-15.025 6.092,-28.632 15.935,-38.475 9.839,-9.839 23.448,-15.933 38.473,-15.933 10.021,0 19.376,2.682 27.378,7.354 25.973,15.162 30.517,48.083 70.351,71.339 20.284,11.842 43.846,18.635 68.956,18.635 35.284,0 67.459,-13.352 91.733,-35.28 -9.772,-28.7 -24.19,-55.247 -42.359,-78.751 -2.705,5.831 -6.413,11.102 -10.901,15.589 -9.843,9.843 -23.448,15.935 -38.473,15.935 -10.021,0 -19.375,-2.684 -27.378,-7.354 -8.556,-4.995 -15.548,-11.99 -20.19,-20.202 -12.059,-21.336 -29.422,-39.029 -50.16,-51.138 -20.285,-11.841 -43.847,-18.634 -68.956,-18.634 -37.81,-10e-4 -72.037,15.327 -96.811,40.102 z"
   id="path2" />
	<path
   fill-rule="evenodd"
   clip-rule="evenodd"
   fill="#018ffa"
   d="m 453.806,727.069 c -150.731,0 -272.922,122.192 -272.922,272.924 0,30.797 5.1,60.402 14.503,88.021 24.276,-21.927 56.446,-35.282 91.735,-35.282 25.108,0 48.669,6.795 68.954,18.637 39.833,23.255 44.377,56.178 70.353,71.339 8.002,4.669 17.356,7.354 27.377,7.354 15.025,0 28.632,-6.091 38.475,-15.936 9.84,-9.841 15.933,-23.449 15.933,-38.473 0,-15.026 -6.093,-28.632 -15.933,-38.474 -31.06,-31.06 -79.921,-0.668 -135.285,-56.04 -24.779,-24.773 -40.104,-58.999 -40.104,-96.808 0,-37.804 15.325,-72.036 40.104,-96.812 24.774,-24.776 59.001,-40.104 96.81,-40.104 25.109,0 48.671,6.793 68.956,18.634 20.738,12.108 38.101,29.802 50.16,51.138 4.643,8.212 11.634,15.208 20.19,20.202 8.004,4.67 17.358,7.354 27.378,7.354 15.025,0 28.63,-6.092 38.473,-15.935 4.488,-4.488 8.196,-9.759 10.901,-15.589 C 619.951,768.65 541.735,727.069 453.806,727.069 Z"
   id="path4" />
	<path
   fill-rule="evenodd"
   clip-rule="evenodd"
   fill="#018ffa"
   d="m 550.617,998.844 c 24.775,24.776 40.104,59.008 40.104,96.81 0,37.809 -15.328,72.034 -40.104,96.81 -24.776,24.779 -59.008,40.105 -96.812,40.105 -25.108,0 -48.67,-6.795 -68.955,-18.637 -20.738,-12.107 -38.103,-29.8 -50.162,-51.137 -4.641,-8.213 -11.635,-15.208 -20.191,-20.202 -8.002,-4.669 -17.356,-7.354 -27.376,-7.354 -15.025,0 -28.634,6.094 -38.475,15.936 -4.488,4.487 -8.194,9.759 -10.901,15.589 49.916,64.571 128.132,106.15 216.06,106.15 150.732,0 272.923,-122.19 272.923,-272.921 0,-30.797 -5.102,-60.403 -14.505,-88.02 -24.274,21.928 -56.449,35.28 -91.733,35.28 -25.109,0 -48.671,-6.793 -68.956,-18.635 -39.834,-23.257 -44.378,-56.178 -70.351,-71.339 -8.002,-4.672 -17.358,-7.354 -27.378,-7.354 -15.025,0 -28.634,6.094 -38.473,15.933 -9.843,9.843 -15.935,23.45 -15.935,38.475 0,15.025 6.092,28.628 15.935,38.473 31.056,31.055 79.918,0.672 135.285,56.038 z"
   id="path6" />
</g>

</svg>
