<svg xmlns="http://www.w3.org/2000/svg" width="186" height="41" fill="none" viewBox="0 0 186 41"><g clip-path="url(#a)"><path stroke="#5269FF" stroke-width="1.2" d="M7.983 32.308 18.901 10.47l24.414-.002-10.917 21.837-24.415.002Z"/><path stroke="#F561F5" stroke-width="1.2" d="M1.503 36.313 12.42 14.476l24.414-.001-10.918 21.837-24.414.001Z"/><path stroke="#01BC90" stroke-width="1.2" d="M1.03 28.304 11.946 6.467l24.414-.002-10.918 21.837-24.414.002Z"/><path fill="#fff" d="m16.632 22.733 4.004-1.84-2.163-1.838.676-1.351 4.191 3.561-7.757 3.565 1.05-2.097Z"/></g><path fill="#fff" d="M61.255 32.118c-2.055 0-3.713-.542-4.973-1.625-1.26-1.083-1.89-2.575-1.89-4.475 0-.553.045-1.061.133-1.526.31-1.502.498-2.387.564-2.652.596-2.43 1.713-4.31 3.348-5.636 1.636-1.326 3.68-1.989 6.134-1.989 1.613 0 2.95.287 4.011.862 1.083.553 1.868 1.249 2.354 2.089.486.84.73 1.657.73 2.453 0 .199-.012.343-.034.431a.84.84 0 0 1-.298.564.767.767 0 0 1-.564.232h-3.017c-.464 0-.707-.221-.73-.663 0-1.68-.916-2.52-2.75-2.52-1.128 0-2.112.365-2.951 1.094-.818.707-1.415 1.79-1.79 3.25l-.498 2.32c-.088.464-.133.95-.133 1.458 0 1.923.929 2.885 2.785 2.885 1.835 0 3.183-.807 4.045-2.42.133-.244.265-.41.398-.498a.943.943 0 0 1 .563-.165h2.984a.66.66 0 0 1 .53.232c.067.088.1.199.1.331a.974.974 0 0 1-.033.232c-.243.818-.718 1.669-1.426 2.553-.685.862-1.668 1.614-2.95 2.255-1.282.618-2.83.928-4.642.928Zm20.4 0c-2.233 0-3.968-.542-5.205-1.625-1.238-1.083-1.857-2.552-1.857-4.41 0-.308.044-.795.133-1.458.199-1.171.409-2.144.63-2.917.596-2.343 1.702-4.178 3.315-5.504 1.613-1.326 3.713-1.989 6.299-1.989 2.232 0 3.967.542 5.205 1.625 1.26 1.083 1.89 2.563 1.89 4.442 0 .287-.044.763-.133 1.426-.331 1.591-.541 2.564-.63 2.917-.619 2.365-1.724 4.21-3.315 5.537-1.591 1.304-3.702 1.956-6.332 1.956Zm.331-3.282c1.194 0 2.21-.365 3.05-1.095.84-.75 1.437-1.845 1.79-3.282.155-.619.343-1.48.564-2.585.089-.664.133-1.128.133-1.393 0-1.99-.962-2.984-2.885-2.984-1.193 0-2.21.376-3.05 1.128-.817.75-1.403 1.834-1.757 3.248a16.03 16.03 0 0 0-.563 2.586 7.972 7.972 0 0 0-.133 1.492c0 1.923.95 2.885 2.851 2.885Zm13.654 2.95a.663.663 0 0 1-.531-.232c-.11-.155-.144-.342-.1-.563l3.316-15.649a.991.991 0 0 1 .331-.563 1.01 1.01 0 0 1 .63-.232h2.719c.221 0 .387.077.497.232a.62.62 0 0 1 .133.398.52.52 0 0 1-.034.165l-.298 1.36c1.614-1.658 3.536-2.487 5.769-2.487 1.834 0 3.227.464 4.177 1.393.973.906 1.459 2.188 1.459 3.845 0 .641-.089 1.382-.265 2.221l-1.99 9.317a.97.97 0 0 1-.961.796h-2.918a.663.663 0 0 1-.53-.233c-.111-.155-.144-.342-.099-.563l1.922-9.117c.155-.774.232-1.349.232-1.724 0-.818-.221-1.415-.663-1.79-.42-.399-1.116-.598-2.088-.598-1.26 0-2.332.365-3.216 1.095-.862.729-1.437 1.735-1.724 3.017l-1.923 9.117a1.007 1.007 0 0 1-.331.596.97.97 0 0 1-.597.2h-2.918Zm28.114.332c-1.547 0-2.818-.221-3.813-.663-.994-.442-1.713-.962-2.155-1.558-.442-.62-.663-1.194-.663-1.724 0-.31.1-.553.299-.73.199-.199.42-.298.663-.298h2.619a.71.71 0 0 1 .232.033c.066.022.133.088.199.199l.597.597c.309.353.696.63 1.16.828.464.2 1.006.299 1.624.299.995 0 1.824-.21 2.487-.63.663-.442.994-1.039.994-1.79 0-.509-.298-.918-.895-1.227-.574-.31-1.668-.641-3.282-.995-1.525-.331-2.663-.817-3.415-1.458-.751-.641-1.127-1.47-1.127-2.487 0-.398.044-.773.133-1.127.177-.884.619-1.713 1.326-2.486.707-.796 1.636-1.437 2.785-1.923 1.149-.509 2.453-.763 3.912-.763 1.481 0 2.707.232 3.68.696.972.465 1.669 1.017 2.089 1.658.353.53.53 1.017.53 1.459 0 .088-.011.177-.033.265a.803.803 0 0 1-.332.564.843.843 0 0 1-.563.232h-2.42c-.222 0-.387-.078-.498-.232a30.857 30.857 0 0 1-.63-.663 3.376 3.376 0 0 0-1.027-.697c-.376-.177-.862-.265-1.459-.265-.818 0-1.492.177-2.023.53-.53.354-.861.818-.994 1.393a1.984 1.984 0 0 0-.033.43c0 .465.276.852.829 1.161.552.31 1.602.62 3.149.928 3.338.664 5.006 2.045 5.006 4.145 0 .22-.044.574-.132 1.06-.332 1.548-1.282 2.807-2.852 3.78-1.547.973-3.536 1.459-5.967 1.459Zm19.8 0c-2.233 0-3.968-.542-5.205-1.625-1.238-1.083-1.857-2.552-1.857-4.41 0-.308.044-.795.133-1.458.199-1.171.409-2.144.63-2.917.596-2.343 1.702-4.178 3.315-5.504 1.613-1.326 3.713-1.989 6.299-1.989 2.232 0 3.967.542 5.205 1.625 1.26 1.083 1.89 2.563 1.89 4.442 0 .287-.044.763-.133 1.426-.331 1.591-.541 2.564-.63 2.917-.619 2.365-1.724 4.21-3.315 5.537-1.591 1.304-3.702 1.956-6.332 1.956Zm.331-3.282c1.194 0 2.211-.365 3.05-1.095.84-.75 1.437-1.845 1.791-3.282.154-.619.342-1.48.563-2.585.089-.664.133-1.128.133-1.393 0-1.99-.962-2.984-2.884-2.984-1.194 0-2.211.376-3.051 1.128-.817.75-1.403 1.834-1.757 3.248a15.98 15.98 0 0 0-.563 2.586 7.92 7.92 0 0 0-.133 1.492c0 1.923.951 2.885 2.851 2.885Zm13.653 2.95a.663.663 0 0 1-.53-.232c-.111-.155-.144-.342-.1-.563l4.675-21.948a.99.99 0 0 1 .332-.563.88.88 0 0 1 .596-.232h2.752c.243 0 .431.077.564.232.088.11.132.243.132.397 0 .045-.011.1-.033.166l-4.674 21.948a.97.97 0 0 1-.962.796h-2.752Zm17.096.332c-2.122 0-3.758-.53-4.907-1.592-1.127-1.06-1.691-2.585-1.691-4.575 0-.751.056-1.414.166-1.989.044-.354.166-.906.365-1.658.641-2.52 1.834-4.497 3.58-5.934 1.768-1.437 3.868-2.155 6.299-2.155 2.166 0 3.802.564 4.907 1.69 1.127 1.106 1.691 2.631 1.691 4.576 0 .73-.089 1.558-.265 2.486l-.166.697a.935.935 0 0 1-.365.563.926.926 0 0 1-.63.232h-11.007l-.066.266a5.951 5.951 0 0 0-.099 1.094c0 .95.232 1.724.696 2.32.486.597 1.193.896 2.122.896 1.282 0 2.431-.509 3.448-1.526.265-.243.464-.397.596-.464.133-.066.321-.1.564-.1h2.884a.57.57 0 0 1 .464.2.448.448 0 0 1 .133.331c0 .044-.011.1-.033.166-.155.53-.63 1.15-1.426 1.857-.773.707-1.801 1.326-3.083 1.856-1.26.509-2.652.763-4.177.763Zm5.901-10.444.033-.099c.089-.42.133-.84.133-1.26 0-.95-.254-1.702-.763-2.254-.486-.553-1.193-.829-2.122-.829-1.149 0-2.132.398-2.95 1.194-.818.795-1.359 1.845-1.625 3.15l-.033.098h7.327Z"/><defs><clipPath id="a"><path fill="#fff" d="M.082 5.755h44.317v31.06H.082z"/></clipPath></defs></svg>