<svg xmlns="http://www.w3.org/2000/svg" width="186" height="41" fill="none" viewBox="0 0 186 41"><g clip-path="url(#a)"><path stroke="#0A0A0A" d="m7.839 32.397 11.007-22.016 24.614-.001-11.007 22.016-24.614.001Z"/><path stroke="#0A0A0A" d="m1.359 36.403 11.007-22.016 24.614-.002-11.007 22.016-24.614.002Z"/><path stroke="#0A0A0A" d="M.886 28.393 11.893 6.377l24.614-.001L25.5 28.392l-24.614.001Z"/><path fill="#0A0A0A" fill-rule="evenodd" d="m25.778 28.833 7.45-14.9-16.66.001-7.449 14.9h16.66Zm-5.142-7.94-4.004 1.84-1.05 2.097 7.758-3.565-4.191-3.561-.676 1.35 2.163 1.84Z" clip-rule="evenodd"/></g><path fill="#0A0A0A" d="M61.256 32.118c-2.056 0-3.713-.542-4.973-1.625-1.26-1.083-1.89-2.575-1.89-4.475 0-.553.044-1.061.133-1.526.31-1.502.497-2.387.563-2.652.597-2.43 1.713-4.31 3.349-5.636 1.635-1.326 3.68-1.989 6.133-1.989 1.614 0 2.95.287 4.012.862 1.083.553 1.867 1.249 2.353 2.089.487.84.73 1.657.73 2.453 0 .199-.011.343-.033.431a.84.84 0 0 1-.299.564.767.767 0 0 1-.563.232h-3.017c-.464 0-.708-.221-.73-.663 0-1.68-.917-2.52-2.751-2.52-1.127 0-2.111.365-2.95 1.094-.819.707-1.416 1.79-1.791 3.25l-.497 2.32c-.089.464-.133.95-.133 1.458 0 1.923.928 2.885 2.785 2.885 1.834 0 3.182-.807 4.044-2.42.133-.244.266-.41.398-.498a.944.944 0 0 1 .564-.165h2.984c.22 0 .397.077.53.232.066.088.1.199.1.331a.974.974 0 0 1-.034.232c-.243.818-.718 1.669-1.425 2.553-.685.862-1.669 1.614-2.95 2.255-1.283.618-2.83.928-4.642.928Zm20.399 0c-2.232 0-3.967-.542-5.205-1.625-1.237-1.083-1.856-2.552-1.856-4.41 0-.308.044-.795.132-1.458.2-1.171.41-2.144.63-2.917.597-2.343 1.702-4.178 3.315-5.504 1.614-1.326 3.714-1.989 6.3-1.989 2.232 0 3.967.542 5.204 1.625 1.26 1.083 1.89 2.563 1.89 4.442 0 .287-.044.763-.132 1.426a116.858 116.858 0 0 1-.63 2.917c-.62 2.365-1.724 4.21-3.316 5.537-1.59 1.304-3.702 1.956-6.332 1.956Zm.332-3.282c1.193 0 2.21-.365 3.05-1.095.84-.75 1.436-1.845 1.79-3.282.155-.619.343-1.48.564-2.585.088-.664.132-1.128.132-1.393 0-1.99-.961-2.984-2.884-2.984-1.194 0-2.21.376-3.05 1.128-.818.75-1.404 1.834-1.757 3.248a16.03 16.03 0 0 0-.564 2.586 7.972 7.972 0 0 0-.132 1.492c0 1.923.95 2.885 2.85 2.885Zm13.653 2.95a.663.663 0 0 1-.53-.232c-.111-.155-.144-.342-.1-.563l3.315-15.649a.99.99 0 0 1 .332-.563 1.01 1.01 0 0 1 .63-.232h2.718c.221 0 .387.077.498.232.088.11.132.243.132.398a.543.543 0 0 1-.033.165l-.298 1.36c1.613-1.658 3.536-2.487 5.768-2.487 1.835 0 3.227.464 4.178 1.393.972.906 1.458 2.188 1.458 3.845 0 .641-.088 1.382-.265 2.221l-1.989 9.317a.97.97 0 0 1-.962.796h-2.917a.665.665 0 0 1-.531-.233c-.11-.155-.143-.342-.099-.563l1.923-9.117c.155-.774.232-1.349.232-1.724 0-.818-.221-1.415-.663-1.79-.42-.399-1.116-.598-2.089-.598-1.26 0-2.331.365-3.216 1.095-.862.729-1.436 1.735-1.724 3.017l-1.922 9.117a1.007 1.007 0 0 1-.332.596.97.97 0 0 1-.597.2H95.64Zm28.114.332c-1.547 0-2.818-.221-3.812-.663-.995-.442-1.713-.962-2.155-1.558-.442-.62-.663-1.194-.663-1.724 0-.31.099-.553.298-.73.199-.199.42-.298.663-.298h2.619a.73.73 0 0 1 .232.033c.067.022.133.088.199.199l.597.597c.309.353.696.63 1.16.828.465.2 1.006.299 1.625.299.994 0 1.823-.21 2.486-.63.663-.442.995-1.039.995-1.79 0-.509-.298-.918-.895-1.227-.575-.31-1.669-.641-3.282-.995-1.525-.331-2.664-.817-3.415-1.458-.752-.641-1.127-1.47-1.127-2.487 0-.398.044-.773.132-1.127.177-.884.619-1.713 1.326-2.486.708-.796 1.636-1.437 2.785-1.923 1.15-.509 2.454-.763 3.912-.763 1.481 0 2.708.232 3.68.696.973.465 1.669 1.017 2.089 1.658.354.53.53 1.017.53 1.459 0 .088-.011.177-.033.265a.799.799 0 0 1-.331.564.845.845 0 0 1-.564.232h-2.42c-.221 0-.387-.078-.497-.232a26.462 26.462 0 0 1-.63-.663 3.38 3.38 0 0 0-1.028-.697c-.376-.177-.862-.265-1.459-.265-.817 0-1.492.177-2.022.53-.53.354-.862.818-.995 1.393a1.984 1.984 0 0 0-.033.43c0 .465.277.852.829 1.161.553.31 1.602.62 3.15.928 3.337.664 5.006 2.045 5.006 4.145 0 .22-.044.574-.133 1.06-.331 1.548-1.282 2.807-2.851 3.78-1.547.973-3.536 1.459-5.968 1.459Zm19.8 0c-2.232 0-3.967-.542-5.205-1.625-1.237-1.083-1.856-2.552-1.856-4.41 0-.308.044-.795.132-1.458.199-1.171.409-2.144.63-2.917.597-2.343 1.702-4.178 3.315-5.504 1.614-1.326 3.714-1.989 6.3-1.989 2.232 0 3.967.542 5.205 1.625 1.259 1.083 1.889 2.563 1.889 4.442 0 .287-.044.763-.132 1.426a117.573 117.573 0 0 1-.63 2.917c-.619 2.365-1.724 4.21-3.316 5.537-1.591 1.304-3.702 1.956-6.332 1.956Zm.332-3.282c1.193 0 2.21-.365 3.05-1.095.84-.75 1.437-1.845 1.79-3.282.155-.619.343-1.48.564-2.585.088-.664.132-1.128.132-1.393 0-1.99-.961-2.984-2.884-2.984-1.193 0-2.21.376-3.05 1.128-.818.75-1.404 1.834-1.757 3.248a16.083 16.083 0 0 0-.564 2.586 8.007 8.007 0 0 0-.132 1.492c0 1.923.95 2.885 2.851 2.885Zm13.653 2.95a.665.665 0 0 1-.531-.232c-.11-.155-.143-.342-.099-.563l4.675-21.948a.988.988 0 0 1 .331-.563.884.884 0 0 1 .597-.232h2.752c.243 0 .431.077.563.232.089.11.133.243.133.397 0 .045-.011.1-.033.166l-4.675 21.948a.966.966 0 0 1-.961.796h-2.752Zm17.095.332c-2.122 0-3.757-.53-4.906-1.592-1.128-1.06-1.691-2.585-1.691-4.575 0-.751.055-1.414.166-1.989.044-.354.165-.906.364-1.658.641-2.52 1.835-4.497 3.581-5.934 1.768-1.437 3.868-2.155 6.299-2.155 2.166 0 3.801.564 4.906 1.69 1.128 1.106 1.691 2.631 1.691 4.576 0 .73-.088 1.558-.265 2.486l-.166.697a.938.938 0 0 1-.364.563.926.926 0 0 1-.63.232h-11.007l-.066.266c-.067.353-.1.718-.1 1.094 0 .95.232 1.724.696 2.32.487.597 1.194.896 2.122.896 1.282 0 2.431-.509 3.448-1.526.265-.243.464-.397.597-.464.132-.066.32-.1.563-.1h2.885a.57.57 0 0 1 .464.2.45.45 0 0 1 .132.331c0 .044-.011.1-.033.166-.154.53-.63 1.15-1.425 1.857-.774.707-1.802 1.326-3.084 1.856-1.259.509-2.652.763-4.177.763Zm5.901-10.444.034-.099c.088-.42.132-.84.132-1.26 0-.95-.254-1.702-.762-2.254-.487-.553-1.194-.829-2.122-.829-1.149 0-2.133.398-2.951 1.194-.818.795-1.359 1.845-1.624 3.15l-.033.098h7.326Z"/><defs><clipPath id="a"><path fill="#fff" d="M.082 5.755h44.317v31.06H.082z"/></clipPath></defs></svg>