<svg width="186" height="41" viewBox="0 0 186 41" fill="none" xmlns="http://www.w3.org/2000/svg">
<g clip-path="url(#clip0)">
<path d="M7.83861 32.3972L18.8459 10.3814L43.46 10.3798L32.4528 32.3957L7.83861 32.3972Z" stroke="#0A0A0A"/>
<path d="M1.35864 36.4026L12.3659 14.3867L36.9801 14.3852L25.9728 36.401L1.35864 36.4026Z" stroke="#0A0A0A"/>
<path d="M0.885983 28.3933L11.8932 6.37745L36.5074 6.37588L25.5002 28.3917L0.885983 28.3933Z" stroke="#0A0A0A"/>
<path fill-rule="evenodd" clip-rule="evenodd" d="M25.7782 28.8333L33.2279 13.9331L16.5688 13.9342L9.11914 28.8344L25.7782 28.8333ZM20.636 20.8932L16.6321 22.7334L15.5828 24.8304L23.3398 21.2654L19.1488 17.7039L18.4727 19.0549L20.636 20.8932Z" fill="#0A0A0A"/>
</g>
<path d="M61.2557 32.1177C59.2003 32.1177 57.5426 31.5762 56.2828 30.4932C55.023 29.4102 54.3931 27.9184 54.3931 26.0176C54.3931 25.465 54.4373 24.9567 54.5257 24.4925C54.8351 22.9896 55.023 22.1055 55.0893 21.8403C55.686 19.4091 56.8022 17.5304 58.4377 16.2043C60.0733 14.8782 62.1177 14.2151 64.571 14.2151C66.1845 14.2151 67.5217 14.5024 68.5826 15.0771C69.6656 15.6296 70.4502 16.3258 70.9364 17.1657C71.4227 18.0056 71.6658 18.8234 71.6658 19.619C71.6658 19.818 71.6547 19.9616 71.6326 20.05C71.6105 20.2711 71.5111 20.4589 71.3343 20.6136C71.1796 20.7684 70.9917 20.8457 70.7707 20.8457H67.7537C67.2896 20.8457 67.0465 20.6247 67.0244 20.1826C67.0244 18.5029 66.1071 17.663 64.2727 17.663C63.1455 17.663 62.1619 18.0277 61.3221 18.7571C60.5043 19.4643 59.9075 20.5473 59.5318 22.0061L59.0345 24.3268C58.9461 24.7909 58.9019 25.2772 58.9019 25.7855C58.9019 27.7084 59.8302 28.6698 61.6867 28.6698C63.5212 28.6698 64.8694 27.8631 65.7314 26.2497C65.864 26.0065 65.9966 25.8408 66.1292 25.7524C66.284 25.6418 66.4718 25.5866 66.6928 25.5866H69.6766C69.8976 25.5866 70.0745 25.664 70.2071 25.8187C70.2734 25.9071 70.3065 26.0176 70.3065 26.1502C70.3065 26.2165 70.2955 26.2939 70.2734 26.3823C70.0302 27.2 69.5551 28.051 68.8478 28.9351C68.1626 29.797 67.1791 30.5485 65.8972 31.1895C64.6153 31.8083 63.0681 32.1177 61.2557 32.1177Z" fill="#0A0A0A"/>
<path d="M81.6552 32.1177C79.4229 32.1177 77.6879 31.5762 76.4502 30.4932C75.2125 29.4102 74.5936 27.9405 74.5936 26.0839C74.5936 25.7745 74.6378 25.2882 74.7262 24.6252C74.9252 23.4537 75.1351 22.4813 75.3561 21.7077C75.9529 19.3649 77.058 17.5304 78.6714 16.2043C80.2849 14.8782 82.3846 14.2151 84.9705 14.2151C87.2028 14.2151 88.9378 14.7566 90.1755 15.8396C91.4354 16.9226 92.0653 18.4034 92.0653 20.2821C92.0653 20.5694 92.0211 21.0446 91.9327 21.7077C91.6011 23.299 91.3912 24.2715 91.3027 24.6252C90.6839 26.9901 89.5788 28.8356 87.9874 30.1617C86.3961 31.4657 84.2854 32.1177 81.6552 32.1177ZM81.9867 28.8356C83.1803 28.8356 84.1969 28.4709 85.0368 27.7415C85.8767 26.9901 86.4735 25.896 86.8271 24.4594C86.9818 23.8405 87.1697 22.9786 87.3907 21.8735C87.4791 21.2104 87.5233 20.7463 87.5233 20.481C87.5233 18.4918 86.5619 17.4973 84.639 17.4973C83.4455 17.4973 82.4288 17.873 81.5889 18.6245C80.7711 19.3759 80.1854 20.4589 79.8318 21.8735C79.5887 22.647 79.4008 23.509 79.2682 24.4594C79.1798 24.9235 79.1356 25.4208 79.1356 25.9513C79.1356 27.8742 80.086 28.8356 81.9867 28.8356Z" fill="#0A0A0A"/>
<path d="M95.6398 31.7862C95.4188 31.7862 95.242 31.7089 95.1094 31.5541C94.9989 31.3994 94.9657 31.2116 95.0099 30.9905L98.3252 15.3423C98.3694 15.1213 98.4799 14.9334 98.6568 14.7787C98.8557 14.624 99.0657 14.5466 99.2867 14.5466H102.005C102.226 14.5466 102.392 14.624 102.503 14.7787C102.591 14.8892 102.635 15.0218 102.635 15.1765C102.635 15.2207 102.624 15.276 102.602 15.3423L102.304 16.7016C103.917 15.0439 105.84 14.2151 108.072 14.2151C109.907 14.2151 111.299 14.6792 112.25 15.6075C113.222 16.5137 113.708 17.7956 113.708 19.4533C113.708 20.0942 113.62 20.8347 113.443 21.6745L111.454 30.9905C111.41 31.2337 111.288 31.4326 111.089 31.5873C110.912 31.7199 110.713 31.7862 110.492 31.7862H107.575C107.354 31.7862 107.177 31.7089 107.044 31.5541C106.934 31.3994 106.901 31.2116 106.945 30.9905L108.868 21.8735C109.023 21.0999 109.1 20.5252 109.1 20.1495C109.1 19.3317 108.879 18.735 108.437 18.3592C108.017 17.9614 107.321 17.7625 106.348 17.7625C105.088 17.7625 104.017 18.1272 103.132 18.8565C102.27 19.5859 101.696 20.5915 101.408 21.8735L99.4856 30.9905C99.4414 31.2337 99.3309 31.4326 99.1541 31.5873C98.9772 31.7199 98.7783 31.7862 98.5573 31.7862H95.6398Z" fill="#0A0A0A"/>
<path d="M123.754 32.1177C122.207 32.1177 120.936 31.8967 119.942 31.4547C118.947 31.0126 118.229 30.4932 117.787 29.8965C117.345 29.2776 117.124 28.703 117.124 28.1725C117.124 27.8631 117.223 27.62 117.422 27.4432C117.621 27.2442 117.842 27.1448 118.085 27.1448H120.704C120.793 27.1448 120.87 27.1558 120.936 27.1779C121.003 27.2 121.069 27.2663 121.135 27.3769C121.202 27.4432 121.401 27.6421 121.732 27.9736C122.041 28.3272 122.428 28.6035 122.892 28.8024C123.357 29.0014 123.898 29.1008 124.517 29.1008C125.511 29.1008 126.34 28.8908 127.003 28.4709C127.666 28.0289 127.998 27.4321 127.998 26.6806C127.998 26.1723 127.7 25.7634 127.103 25.454C126.528 25.1446 125.434 24.813 123.821 24.4594C122.296 24.1279 121.157 23.6416 120.406 23.0007C119.654 22.3597 119.279 21.5309 119.279 20.5142C119.279 20.1163 119.323 19.7406 119.411 19.387C119.588 18.5029 120.03 17.6741 120.737 16.9005C121.445 16.1048 122.373 15.4639 123.522 14.9776C124.672 14.4693 125.976 14.2151 127.434 14.2151C128.915 14.2151 130.142 14.4472 131.114 14.9113C132.087 15.3755 132.783 15.928 133.203 16.569C133.557 17.0994 133.733 17.5857 133.733 18.0277C133.733 18.1161 133.722 18.2045 133.7 18.2929C133.678 18.5139 133.568 18.7018 133.369 18.8565C133.192 19.0112 133.004 19.0886 132.805 19.0886H130.385C130.164 19.0886 129.998 19.0112 129.888 18.8565C129.755 18.7239 129.545 18.5029 129.258 18.1935C128.97 17.9061 128.628 17.6741 128.23 17.4973C127.854 17.3204 127.368 17.232 126.771 17.232C125.954 17.232 125.279 17.4088 124.749 17.7625C124.219 18.1161 123.887 18.5803 123.754 19.1549C123.732 19.2433 123.721 19.387 123.721 19.5859C123.721 20.05 123.998 20.4368 124.55 20.7463C125.103 21.0557 126.152 21.3651 127.7 21.6745C131.037 22.3376 132.706 23.719 132.706 25.8187C132.706 26.0397 132.662 26.3933 132.573 26.8796C132.242 28.4267 131.291 29.6865 129.722 30.659C128.175 31.6315 126.186 32.1177 123.754 32.1177Z" fill="#0A0A0A"/>
<path d="M143.554 32.1177C141.322 32.1177 139.587 31.5762 138.349 30.4932C137.112 29.4102 136.493 27.9405 136.493 26.0839C136.493 25.7745 136.537 25.2882 136.625 24.6252C136.824 23.4537 137.034 22.4813 137.255 21.7077C137.852 19.3649 138.957 17.5304 140.57 16.2043C142.184 14.8782 144.284 14.2151 146.87 14.2151C149.102 14.2151 150.837 14.7566 152.075 15.8396C153.334 16.9226 153.964 18.4034 153.964 20.2821C153.964 20.5694 153.92 21.0446 153.832 21.7077C153.5 23.299 153.29 24.2715 153.202 24.6252C152.583 26.9901 151.478 28.8356 149.886 30.1617C148.295 31.4657 146.184 32.1177 143.554 32.1177ZM143.886 28.8356C145.079 28.8356 146.096 28.4709 146.936 27.7415C147.776 26.9901 148.373 25.896 148.726 24.4594C148.881 23.8405 149.069 22.9786 149.29 21.8735C149.378 21.2104 149.422 20.7463 149.422 20.481C149.422 18.4918 148.461 17.4973 146.538 17.4973C145.345 17.4973 144.328 17.873 143.488 18.6245C142.67 19.3759 142.084 20.4589 141.731 21.8735C141.488 22.647 141.3 23.509 141.167 24.4594C141.079 24.9235 141.035 25.4208 141.035 25.9513C141.035 27.8742 141.985 28.8356 143.886 28.8356Z" fill="#0A0A0A"/>
<path d="M157.539 31.7862C157.318 31.7862 157.141 31.7089 157.008 31.5541C156.898 31.3994 156.865 31.2116 156.909 30.9905L161.584 9.04323C161.628 8.82221 161.738 8.63434 161.915 8.47963C162.092 8.32492 162.291 8.24756 162.512 8.24756H165.264C165.507 8.24756 165.695 8.32492 165.827 8.47963C165.916 8.59014 165.96 8.72275 165.96 8.87747C165.96 8.92167 165.949 8.97693 165.927 9.04323L161.252 30.9905C161.208 31.2337 161.086 31.4326 160.887 31.5873C160.711 31.7199 160.512 31.7862 160.291 31.7862H157.539Z" fill="#0A0A0A"/>
<path d="M174.634 32.1177C172.512 32.1177 170.877 31.5873 169.728 30.5264C168.6 29.4655 168.037 27.9405 168.037 25.9513C168.037 25.1998 168.092 24.5367 168.203 23.9621C168.247 23.6085 168.368 23.0559 168.567 22.3044C169.208 19.7848 170.402 17.8067 172.148 16.3701C173.916 14.9334 176.016 14.2151 178.447 14.2151C180.613 14.2151 182.248 14.7787 183.353 15.9059C184.481 17.011 185.044 18.536 185.044 20.481C185.044 21.2104 184.956 22.0392 184.779 22.9675L184.613 23.6637C184.569 23.8847 184.447 24.0726 184.249 24.2273C184.072 24.382 183.862 24.4594 183.619 24.4594H172.612L172.546 24.7246C172.479 25.0782 172.446 25.4429 172.446 25.8187C172.446 26.7691 172.678 27.5426 173.142 28.1394C173.629 28.7361 174.336 29.0345 175.264 29.0345C176.546 29.0345 177.695 28.5262 178.712 27.5095C178.977 27.2663 179.176 27.1116 179.309 27.0453C179.441 26.979 179.629 26.9459 179.872 26.9459H182.757C182.956 26.9459 183.11 27.0122 183.221 27.1448C183.309 27.2332 183.353 27.3437 183.353 27.4763C183.353 27.5205 183.342 27.5758 183.32 27.6421C183.166 28.1725 182.69 28.7914 181.895 29.4987C181.121 30.2059 180.093 30.8248 178.811 31.3552C177.552 31.8636 176.159 32.1177 174.634 32.1177ZM180.535 21.6745L180.569 21.5751C180.657 21.1551 180.701 20.7352 180.701 20.3153C180.701 19.3649 180.447 18.6134 179.939 18.0609C179.452 17.5083 178.745 17.232 177.817 17.232C176.668 17.232 175.684 17.6299 174.866 18.4255C174.048 19.2212 173.507 20.2711 173.242 21.5751L173.209 21.6745H180.535Z" fill="#0A0A0A"/>
<defs>
<clipPath id="clip0">
<rect width="44.3171" height="31.0598" fill="white" transform="translate(0.0820312 5.75537)"/>
</clipPath>
</defs>
</svg>
