<svg width="186" height="41" viewBox="0 0 186 41" fill="none" xmlns="http://www.w3.org/2000/svg">
<g clip-path="url(#clip0)">
<path d="M7.98333 32.3078L18.9011 10.4708L43.3153 10.4692L32.3975 32.3062L7.98333 32.3078Z" stroke="#5269FF" stroke-width="1.2"/>
<path d="M1.50287 36.3131L12.4207 14.4762L36.8349 14.4746L25.917 36.3116L1.50287 36.3131Z" stroke="#F561F5" stroke-width="1.2"/>
<path d="M1.02924 28.3039L11.947 6.46689L36.3612 6.46533L25.4434 28.3023L1.02924 28.3039Z" stroke="#01BC90" stroke-width="1.2"/>
<path d="M16.6323 22.7331L20.6362 20.893L18.473 19.0546L19.149 17.7036L23.34 21.2652L15.583 24.8302L16.6323 22.7331Z" fill="white"/>
</g>
<path d="M61.2553 32.1177C59.1998 32.1177 57.5421 31.5762 56.2823 30.4932C55.0225 29.4102 54.3926 27.9184 54.3926 26.0176C54.3926 25.465 54.4368 24.9567 54.5252 24.4925C54.8346 22.9896 55.0225 22.1055 55.0888 21.8403C55.6855 19.4091 56.8017 17.5304 58.4372 16.2043C60.0728 14.8782 62.1172 14.2151 64.5706 14.2151C66.184 14.2151 67.5212 14.5024 68.5821 15.0771C69.6651 15.6296 70.4497 16.3258 70.9359 17.1657C71.4222 18.0056 71.6653 18.8234 71.6653 19.619C71.6653 19.818 71.6543 19.9616 71.6322 20.05C71.6101 20.2711 71.5106 20.4589 71.3338 20.6136C71.1791 20.7684 70.9912 20.8457 70.7702 20.8457H67.7533C67.2891 20.8457 67.046 20.6247 67.0239 20.1826C67.0239 18.5029 66.1066 17.663 64.2722 17.663C63.145 17.663 62.1614 18.0277 61.3216 18.7571C60.5038 19.4643 59.907 20.5473 59.5313 22.0061L59.034 24.3268C58.9456 24.7909 58.9014 25.2772 58.9014 25.7855C58.9014 27.7084 59.8297 28.6698 61.6862 28.6698C63.5207 28.6698 64.8689 27.8631 65.7309 26.2497C65.8635 26.0065 65.9961 25.8408 66.1288 25.7524C66.2835 25.6418 66.4713 25.5866 66.6924 25.5866H69.6761C69.8971 25.5866 70.074 25.664 70.2066 25.8187C70.2729 25.9071 70.306 26.0176 70.306 26.1502C70.306 26.2165 70.295 26.2939 70.2729 26.3823C70.0298 27.2 69.5546 28.051 68.8473 28.9351C68.1621 29.797 67.1786 30.5485 65.8967 31.1895C64.6148 31.8083 63.0676 32.1177 61.2553 32.1177Z" fill="white"/>
<path d="M81.6547 32.1177C79.4224 32.1177 77.6874 31.5762 76.4497 30.4932C75.212 29.4102 74.5931 27.9405 74.5931 26.0839C74.5931 25.7745 74.6373 25.2882 74.7257 24.6252C74.9247 23.4537 75.1346 22.4813 75.3557 21.7077C75.9524 19.3649 77.0575 17.5304 78.671 16.2043C80.2844 14.8782 82.3841 14.2151 84.97 14.2151C87.2023 14.2151 88.9373 14.7566 90.1751 15.8396C91.4349 16.9226 92.0648 18.4034 92.0648 20.2821C92.0648 20.5694 92.0206 21.0446 91.9322 21.7077C91.6006 23.299 91.3907 24.2715 91.3023 24.6252C90.6834 26.9901 89.5783 28.8356 87.987 30.1617C86.3956 31.4657 84.2849 32.1177 81.6547 32.1177ZM81.9863 28.8356C83.1798 28.8356 84.1965 28.4709 85.0363 27.7415C85.8762 26.9901 86.473 25.896 86.8266 24.4594C86.9813 23.8405 87.1692 22.9786 87.3902 21.8735C87.4786 21.2104 87.5228 20.7463 87.5228 20.481C87.5228 18.4918 86.5614 17.4973 84.6385 17.4973C83.445 17.4973 82.4283 17.873 81.5884 18.6245C80.7706 19.3759 80.1849 20.4589 79.8313 21.8735C79.5882 22.647 79.4003 23.509 79.2677 24.4594C79.1793 24.9235 79.1351 25.4208 79.1351 25.9513C79.1351 27.8742 80.0855 28.8356 81.9863 28.8356Z" fill="white"/>
<path d="M95.6394 31.7862C95.4183 31.7862 95.2415 31.7089 95.1089 31.5541C94.9984 31.3994 94.9652 31.2116 95.0094 30.9905L98.3247 15.3423C98.3689 15.1213 98.4795 14.9334 98.6563 14.7787C98.8552 14.624 99.0652 14.5466 99.2862 14.5466H102.005C102.226 14.5466 102.392 14.624 102.502 14.7787C102.59 14.8892 102.635 15.0218 102.635 15.1765C102.635 15.2207 102.624 15.276 102.601 15.3423L102.303 16.7016C103.917 15.0439 105.839 14.2151 108.072 14.2151C109.906 14.2151 111.299 14.6792 112.249 15.6075C113.222 16.5137 113.708 17.7956 113.708 19.4533C113.708 20.0942 113.619 20.8347 113.443 21.6745L111.453 30.9905C111.409 31.2337 111.288 31.4326 111.089 31.5873C110.912 31.7199 110.713 31.7862 110.492 31.7862H107.574C107.353 31.7862 107.177 31.7089 107.044 31.5541C106.933 31.3994 106.9 31.2116 106.945 30.9905L108.867 21.8735C109.022 21.0999 109.099 20.5252 109.099 20.1495C109.099 19.3317 108.878 18.735 108.436 18.3592C108.016 17.9614 107.32 17.7625 106.348 17.7625C105.088 17.7625 104.016 18.1272 103.132 18.8565C102.27 19.5859 101.695 20.5915 101.408 21.8735L99.4851 30.9905C99.4409 31.2337 99.3304 31.4326 99.1536 31.5873C98.9768 31.7199 98.7778 31.7862 98.5568 31.7862H95.6394Z" fill="white"/>
<path d="M123.754 32.1177C122.207 32.1177 120.936 31.8967 119.941 31.4547C118.947 31.0126 118.228 30.4932 117.786 29.8965C117.344 29.2776 117.123 28.703 117.123 28.1725C117.123 27.8631 117.223 27.62 117.422 27.4432C117.621 27.2442 117.842 27.1448 118.085 27.1448H120.704C120.792 27.1448 120.87 27.1558 120.936 27.1779C121.002 27.2 121.069 27.2663 121.135 27.3769C121.201 27.4432 121.4 27.6421 121.732 27.9736C122.041 28.3272 122.428 28.6035 122.892 28.8024C123.356 29.0014 123.898 29.1008 124.516 29.1008C125.511 29.1008 126.34 28.8908 127.003 28.4709C127.666 28.0289 127.997 27.4321 127.997 26.6806C127.997 26.1723 127.699 25.7634 127.102 25.454C126.528 25.1446 125.434 24.813 123.82 24.4594C122.295 24.1279 121.157 23.6416 120.405 23.0007C119.654 22.3597 119.278 21.5309 119.278 20.5142C119.278 20.1163 119.322 19.7406 119.411 19.387C119.588 18.5029 120.03 17.6741 120.737 16.9005C121.444 16.1048 122.373 15.4639 123.522 14.9776C124.671 14.4693 125.975 14.2151 127.434 14.2151C128.915 14.2151 130.141 14.4472 131.114 14.9113C132.086 15.3755 132.783 15.928 133.203 16.569C133.556 17.0994 133.733 17.5857 133.733 18.0277C133.733 18.1161 133.722 18.2045 133.7 18.2929C133.678 18.5139 133.567 18.7018 133.368 18.8565C133.191 19.0112 133.004 19.0886 132.805 19.0886H130.385C130.163 19.0886 129.998 19.0112 129.887 18.8565C129.755 18.7239 129.545 18.5029 129.257 18.1935C128.97 17.9061 128.627 17.6741 128.23 17.4973C127.854 17.3204 127.368 17.232 126.771 17.232C125.953 17.232 125.279 17.4088 124.748 17.7625C124.218 18.1161 123.887 18.5803 123.754 19.1549C123.732 19.2433 123.721 19.387 123.721 19.5859C123.721 20.05 123.997 20.4368 124.55 20.7463C125.102 21.0557 126.152 21.3651 127.699 21.6745C131.037 22.3376 132.705 23.719 132.705 25.8187C132.705 26.0397 132.661 26.3933 132.573 26.8796C132.241 28.4267 131.291 29.6865 129.721 30.659C128.174 31.6315 126.185 32.1177 123.754 32.1177Z" fill="white"/>
<path d="M143.554 32.1177C141.321 32.1177 139.586 31.5762 138.349 30.4932C137.111 29.4102 136.492 27.9405 136.492 26.0839C136.492 25.7745 136.536 25.2882 136.625 24.6252C136.824 23.4537 137.034 22.4813 137.255 21.7077C137.851 19.3649 138.957 17.5304 140.57 16.2043C142.183 14.8782 144.283 14.2151 146.869 14.2151C149.101 14.2151 150.836 14.7566 152.074 15.8396C153.334 16.9226 153.964 18.4034 153.964 20.2821C153.964 20.5694 153.92 21.0446 153.831 21.7077C153.5 23.299 153.29 24.2715 153.201 24.6252C152.582 26.9901 151.477 28.8356 149.886 30.1617C148.295 31.4657 146.184 32.1177 143.554 32.1177ZM143.885 28.8356C145.079 28.8356 146.096 28.4709 146.935 27.7415C147.775 26.9901 148.372 25.896 148.726 24.4594C148.88 23.8405 149.068 22.9786 149.289 21.8735C149.378 21.2104 149.422 20.7463 149.422 20.481C149.422 18.4918 148.46 17.4973 146.538 17.4973C145.344 17.4973 144.327 17.873 143.487 18.6245C142.67 19.3759 142.084 20.4589 141.73 21.8735C141.487 22.647 141.299 23.509 141.167 24.4594C141.078 24.9235 141.034 25.4208 141.034 25.9513C141.034 27.8742 141.985 28.8356 143.885 28.8356Z" fill="white"/>
<path d="M157.538 31.7862C157.317 31.7862 157.141 31.7089 157.008 31.5541C156.897 31.3994 156.864 31.2116 156.908 30.9905L161.583 9.04323C161.627 8.82221 161.738 8.63434 161.915 8.47963C162.091 8.32492 162.29 8.24756 162.511 8.24756H165.263C165.506 8.24756 165.694 8.32492 165.827 8.47963C165.915 8.59014 165.959 8.72275 165.959 8.87747C165.959 8.92167 165.948 8.97693 165.926 9.04323L161.252 30.9905C161.207 31.2337 161.086 31.4326 160.887 31.5873C160.71 31.7199 160.511 31.7862 160.29 31.7862H157.538Z" fill="white"/>
<path d="M174.634 32.1177C172.512 32.1177 170.876 31.5873 169.727 30.5264C168.6 29.4655 168.036 27.9405 168.036 25.9513C168.036 25.1998 168.092 24.5367 168.202 23.9621C168.246 23.6085 168.368 23.0559 168.567 22.3044C169.208 19.7848 170.401 17.8067 172.147 16.3701C173.915 14.9334 176.015 14.2151 178.446 14.2151C180.612 14.2151 182.248 14.7787 183.353 15.9059C184.48 17.011 185.044 18.536 185.044 20.481C185.044 21.2104 184.955 22.0392 184.779 22.9675L184.613 23.6637C184.569 23.8847 184.447 24.0726 184.248 24.2273C184.071 24.382 183.861 24.4594 183.618 24.4594H172.611L172.545 24.7246C172.479 25.0782 172.446 25.4429 172.446 25.8187C172.446 26.7691 172.678 27.5426 173.142 28.1394C173.628 28.7361 174.335 29.0345 175.264 29.0345C176.546 29.0345 177.695 28.5262 178.712 27.5095C178.977 27.2663 179.176 27.1116 179.308 27.0453C179.441 26.979 179.629 26.9459 179.872 26.9459H182.756C182.955 26.9459 183.11 27.0122 183.22 27.1448C183.309 27.2332 183.353 27.3437 183.353 27.4763C183.353 27.5205 183.342 27.5758 183.32 27.6421C183.165 28.1725 182.69 28.7914 181.894 29.4987C181.121 30.2059 180.093 30.8248 178.811 31.3552C177.551 31.8636 176.159 32.1177 174.634 32.1177ZM180.535 21.6745L180.568 21.5751C180.657 21.1551 180.701 20.7352 180.701 20.3153C180.701 19.3649 180.447 18.6134 179.938 18.0609C179.452 17.5083 178.745 17.232 177.816 17.232C176.667 17.232 175.684 17.6299 174.866 18.4255C174.048 19.2212 173.507 20.2711 173.241 21.5751L173.208 21.6745H180.535Z" fill="white"/>
<defs>
<clipPath id="clip0">
<rect width="44.3171" height="31.0598" fill="white" transform="translate(0.0820312 5.75537)"/>
</clipPath>
</defs>
</svg>
