<svg width="32" height="32" viewBox="0 0 32 32" fill="none" xmlns="http://www.w3.org/2000/svg">
<path d="M3.16659 13.167C2.15325 13.167 1.33325 13.987 1.33325 15.0003V17.0003C1.33325 18.0137 2.15325 18.8337 3.16659 18.8337C4.17992 18.8337 4.99992 18.0137 4.99992 17.0003V15.0003C4.99992 13.987 4.17992 13.167 3.16659 13.167Z" fill="#0066D9"/>
<path d="M28.8331 13.167C27.8198 13.167 26.9998 13.987 26.9998 15.0003V17.0003C26.9998 18.0137 27.8198 18.8337 28.8331 18.8337C29.8464 18.8337 30.6664 18.0137 30.6664 17.0003V15.0003C30.6664 13.987 29.8464 13.167 28.8331 13.167Z" fill="#4285F4"/>
<path d="M9.50008 19.167C8.48675 19.167 7.66675 19.987 7.66675 21.0003V23.0003C7.66675 24.0137 8.48675 24.8337 9.50008 24.8337C10.5134 24.8337 11.3334 24.0137 11.3334 23.0003V21.0003C11.3334 19.987 10.5134 19.167 9.50008 19.167Z" fill="#EA4335"/>
<path d="M9.50008 7.16699C8.48675 7.16699 7.66675 7.98699 7.66675 9.00033V15.542H7.66841C7.69175 16.5353 8.50175 17.3337 9.50008 17.3337C10.4984 17.3337 11.3084 16.5353 11.3317 15.542H11.3334V9.00033C11.3334 7.98699 10.5134 7.16699 9.50008 7.16699Z" fill="#EA4335"/>
<path d="M22.5001 7.16699C21.4867 7.16699 20.6667 7.98699 20.6667 9.00033V11.0003C20.6667 12.0137 21.4867 12.8337 22.5001 12.8337C23.5134 12.8337 24.3334 12.0137 24.3334 11.0003V9.00033C24.3334 7.98699 23.5134 7.16699 22.5001 7.16699Z" fill="#34A853"/>
<path d="M16.0001 1.33301C14.9867 1.33301 14.1667 2.15301 14.1667 3.16634V5.16634C14.1667 6.17967 14.9867 6.99967 16.0001 6.99967C17.0134 6.99967 17.8334 6.17967 17.8334 5.16634V3.16634C17.8334 2.15301 17.0134 1.33301 16.0001 1.33301Z" fill="#FAB908"/>
<path d="M16.0001 25C14.9867 25 14.1667 25.82 14.1667 26.8333V28.8333C14.1667 29.8467 14.9867 30.6667 16.0001 30.6667C17.0134 30.6667 17.8334 29.8467 17.8334 28.8333V26.8333C17.8334 25.82 17.0134 25 16.0001 25Z" fill="#FAB908"/>
<path d="M22.5001 14.667C21.4867 14.667 20.6667 15.487 20.6667 16.5003V23.0003C20.6667 24.0137 21.4867 24.8337 22.5001 24.8337C23.5134 24.8337 24.3334 24.0137 24.3334 23.0003V16.5003C24.3334 15.487 23.5134 14.667 22.5001 14.667Z" fill="#34A853"/>
<path d="M17.8334 10.6663C17.8334 9.65301 17.0134 8.83301 16.0001 8.83301C14.9867 8.83301 14.1667 9.65301 14.1667 10.6663V15.1113V16.8897V21.333C14.1667 22.3463 14.9867 23.1663 16.0001 23.1663C17.0134 23.1663 17.8334 22.3463 17.8334 21.333V16.888V15.1113V10.6663Z" fill="#FAB908"/>
</svg>
