<svg width="32" height="32" viewBox="0 0 32 32" fill="none" xmlns="http://www.w3.org/2000/svg">
<path fill-rule="evenodd" clip-rule="evenodd" d="M31.367 27.7357C31.0559 28.5258 30.3381 29.6383 29.3203 30.4219C28.7326 30.8745 28.031 31.3072 27.0673 31.5927C26.04 31.8971 24.7747 32 23.1998 32H8.79985C7.22509 32 5.95975 31.8971 4.93233 31.5927C3.96863 31.3072 3.26716 30.8745 2.67937 30.4219C1.66163 29.6382 0.943745 28.5258 0.632685 27.7357C0.00611405 26.1438 -0.000244141 24.3376 -0.000244141 23.2V8.79997C-0.000244141 7.66243 0.00611405 5.85622 0.632685 4.26429C0.943745 3.47418 1.6615 2.36169 2.67937 1.57806C3.26703 1.12546 3.96863 0.692826 4.93233 0.407328C5.95962 0.102881 7.22497 0 8.79985 0H23.1999C24.7747 0 26.04 0.102881 27.0674 0.407328C28.0311 0.692826 28.7326 1.12559 29.3204 1.57806C30.3381 2.36182 31.056 3.47418 31.3671 4.26429C31.9937 5.85622 32 7.66243 32 8.79997V23.2C31.9999 24.3375 31.9935 26.1437 31.367 27.7357Z" fill="url(#paint0_linear_1035_8393)"/>
<path d="M18.3209 18.3932C17.8407 17.8866 16.9973 17.5618 16.0016 17.5618C15.0059 17.5618 14.1625 17.8866 13.6823 18.3932C13.4318 18.6576 13.2993 18.9286 13.2575 19.3147C13.1767 20.0623 13.2221 20.7061 13.3097 21.7353C13.3931 22.716 13.5516 24.0238 13.7583 25.3558C13.9055 26.3038 14.025 26.8154 14.1339 27.1818C14.3104 27.7755 14.97 28.2948 16.0016 28.2948C17.0331 28.2948 17.6928 27.7754 17.8693 27.1818C17.9781 26.8154 18.0977 26.3038 18.2448 25.3558C18.4516 24.0238 18.61 22.716 18.6935 21.7353C18.7811 20.706 18.8265 20.0622 18.7456 19.3147C18.7039 18.9287 18.5714 18.6576 18.3209 18.3932ZM13.3852 13.8821C13.3852 15.3284 14.5577 16.5009 16.0041 16.5009C17.4505 16.5009 18.623 15.3284 18.623 13.8821C18.623 12.4357 17.4505 11.2631 16.0041 11.2631C14.5577 11.2631 13.3852 12.4357 13.3852 13.8821ZM15.9716 3.54692C9.84669 3.56434 4.8279 8.53329 4.7521 14.6578C4.69055 19.6192 7.85762 23.8631 12.28 25.4187C12.3873 25.4564 12.4963 25.3673 12.4794 25.2547C12.4214 24.8695 12.3667 24.4824 12.3165 24.1018C12.2987 23.9673 12.213 23.8513 12.0887 23.797C8.5933 22.2699 6.15251 18.7643 6.19168 14.7036C6.24305 9.37465 10.5946 5.03024 15.9236 4.98713C21.3714 4.94313 25.8174 9.36206 25.8174 14.7999C25.8174 18.8199 23.3873 22.2825 19.9191 23.7974C19.7949 23.8517 19.7097 23.968 19.692 24.1024C19.6418 24.4829 19.5871 24.8699 19.5292 25.2547C19.5122 25.3673 19.6212 25.4564 19.7285 25.4188C24.1087 23.8781 27.2573 19.7002 27.2573 14.8C27.257 8.58403 22.1914 3.52912 15.9716 3.54692ZM15.7683 8.70942C19.2404 8.575 22.1079 11.3606 22.1079 14.8033C22.1079 16.5542 21.3661 18.1349 20.1805 19.2482C20.0799 19.3426 20.0258 19.4766 20.0336 19.6143C20.0572 20.0331 20.0486 20.44 20.0207 20.8996C20.0132 21.0221 20.1506 21.1003 20.2519 21.0313C22.2401 19.6726 23.5478 17.3879 23.5478 14.8033C23.5478 10.5477 20.0031 7.10427 15.7112 7.27061C11.7226 7.42525 8.52259 10.7138 8.47147 14.7051C8.4379 17.3302 9.7536 19.6558 11.7674 21.0315C11.8685 21.1006 12.0054 21.0222 11.9979 20.8999C11.9699 20.44 11.9614 20.0331 11.9849 19.6143C11.9927 19.4767 11.9388 19.3427 11.8384 19.2485C10.6158 18.1006 9.86501 16.4557 9.91282 14.6397C9.99701 11.4439 12.5736 8.83316 15.7683 8.70942Z" fill="white"/>
<defs>
<linearGradient id="paint0_linear_1035_8393" x1="15.9999" y1="0" x2="15.9999" y2="32" gradientUnits="userSpaceOnUse">
<stop stop-color="#F452FF"/>
<stop offset="1" stop-color="#832BC1"/>
</linearGradient>
</defs>
</svg>
